/* XPM */
static char *result[] = {
/* columns rows colors chars-per-pixel */
"64 64 117 2 ",
"   c black",
".  c #161919",
"X  c #232828",
"o  c #600018",
"O  c #385054",
"+  c #515151",
"@  c #784040",
"#  c #C00030",
"$  c #F86828",
"%  c #E05060",
"&  c #D89070",
"*  c #283FA4",
"=  c #375FDA",
"-  c #63BF99",
";  c #64BF99",
":  c #65BF99",
">  c #65C099",
",  c #65C09A",
"<  c #66C09A",
"1  c #67C09A",
"2  c #67C19B",
"3  c #68C19B",
"4  c #69C19B",
"5  c #6BC09B",
"6  c #6BC19B",
"7  c #68C29B",
"8  c #6CC19B",
"9  c #6FC09B",
"0  c #69C29C",
"q  c #6AC29C",
"w  c #6BC29C",
"e  c #6AC39C",
"r  c #6BC39D",
"t  c #6DC19C",
"y  c #6CC39D",
"u  c #6EC29C",
"i  c #6EC29D",
"p  c #6FC29D",
"a  c #6FC39D",
"s  c #6CC49E",
"d  c #6DC49E",
"f  c #6EC49E",
"g  c #6EC49F",
"h  c #6EC59F",
"j  c #6FC59F",
"k  c #70C39E",
"l  c #71C39E",
"z  c #71C49E",
"x  c #71C49F",
"c  c #70C59F",
"v  c #72C49F",
"b  c #72C4A0",
"n  c #73C5A0",
"m  c #70C6A0",
"M  c #71C6A0",
"N  c #71C6A1",
"B  c #72C6A0",
"V  c #72C7A0",
"C  c #72C6A1",
"Z  c #72C7A1",
"A  c #73C7A1",
"S  c #74C5A1",
"D  c #74C6A1",
"F  c #74C7A1",
"G  c #74C6A2",
"H  c #74C7A2",
"J  c #76C7A3",
"K  c #77C7A4",
"L  c #74C8A2",
"P  c #75C8A2",
"I  c #74C8A3",
"U  c #75C8A3",
"Y  c #75C9A3",
"T  c #76C8A3",
"R  c #76C9A3",
"E  c #76C9A4",
"W  c #77C9A4",
"Q  c #77C9A5",
"!  c #77CAA5",
"~  c #77CAA6",
"^  c #78CAA4",
"/  c #78CAA5",
"(  c #79CAA5",
")  c #7ACAA5",
"_  c #78CAA6",
"`  c #78CBA6",
"'  c #79CBA7",
"]  c #7ACAA6",
"[  c #7ACBA6",
"{  c #7BCBA6",
"}  c #7BCBA7",
"|  c #7CCBA7",
" . c #7CCCA7",
".. c #79CBA8",
"X. c #7ACBA8",
"o. c #7ACCA8",
"O. c #7ACCA9",
"+. c #7BCCA9",
"@. c #7BCDA9",
"#. c #7DCCA8",
"$. c #7ECCA8",
"%. c #7ECDA9",
"&. c #7FCDA9",
"*. c #7CCDAA",
"=. c #6080D0",
"-. c #80CDAA",
";. c #80CEAA",
":. c #81CEAA",
">. c #81CEAB",
",. c #82CEAB",
"<. c #82CFAB",
"1. c #83CFAC",
"2. c #84D0AC",
"3. c #F8C090",
"4. c #B0B0D0",
"5. c #90C0F0",
"6. c #E8E8F8",
/* pixels */
"9 z x v D b z z x n K n z p 8 i l z z z z z v D n z z z v J S x a 5 i l z z z z z v K n v z l v G J v k 6 u k z z z z z x J D v ",
"l A U o.' _ A A L +.@.*.N 1 e 0 A A A A A L o.~ ' L A A ' *.*.I < r 3 Z A A A A A o.O...U A A ! *.*.' q r 2 m A A A A A ! @.' ! ",
"l A H E L L A A A E U E B d M M A Y L A A A E L L A A A U Y E A d M m A L U A A A E L U A A A H E E U j M c A L E A A A U Y L H ",
"l A A A A A A A A A A A A A A A _ @.+.E A A A A A A A A A A A A A A A Q ' +.E A A A A A A A A A A A A A A A E ' @.! A A A A A A ",
"l A A A A A A A A A A A A A A A U E E L A A A A A A A A A A A A A A A L U E U A A A A A A A A A A A A A A A A U U Y A A A A A A ",
"l A A A A A A A A A A A A A A A A A A A A A A A A A A A A A A A A A A A A A A A A A A A A A A A A A A A A A A A A A A A A A A A ",
"l A A A A A A A A A A A A A A A A B A A A A A A A A A A A A A A A A A A Z B A A A A A A A A A A A A A A A A A A B A A A A A A A ",
"l A A A A A A A A A A A A A A A d > 3 j A A A A A A A A A A A A A A A j 0 < c A A A A A A A A A A A A A A A c q : f A A A A A A ",
"l A A A A A A A A A A A A A A A g d q M A A A A A A A A A A A A A A A m j r j A A A A A A A A A A A A A A A M h d d A A A A A A ",
"l A A A A A A A A A A A A A A E +.o.U A A A A A A A A A A A A A A A Y ` ! E A A A A A A A A A A A A A A A L ` _ E H A A A A A A ",
"p j y f A A A A A A A A A A A E _ ' E B j y d Z A A A A A A A A A A U _ Q _ A j , d M A A A A A A A A A A L _ E ' A M 2 w j A A ",
"t 0 d r A A A j y f M A A A A A A A A B 3 d q Z A A M d y c A A A A A A A A A q 3 q M A A Z c y c Z A A A A A A A A y 3 q f A A ",
"l Z A A A A A d r q d A A A A A A A A A Z A A A A o o o o o o o o o o o o o o o o A A A A B 3 d 3 Z A A A A A A A A A A A A A A ",
"l A H ( $.( P A A Z A A A A A A A A A A A A ^ &.| o o o o o o o o o o o o o o o o W #.#.P A Z A Z A A A A A A A A A A A T [ :.R ",
"l A L 1.>.2.W A A A A A A A A A A A A A A A ;.o o # # % % % % % % % % % % % % # # o o 1.] A A A A A A A A A A A A A A A / ;.,.-.",
"l A A P U T A A A A A A A A A A A A A A A A L o o # # % % % % % % % % % % % % # # o o U L A A A A A A A A A A A A A A A A L L T ",
"l A A A A A A A A A A A A A A A A A A A A A A o o % % % % 6.6.6.6.6.6.6.6.% % % % o o A A A A A A A A A A A A A A A A A A A A A ",
"l A A H U A A A A A ! L A B j A A A A A A A A o o % % % % 6.6.6.6.6.6.6.6.% % % % o o H A A A A U E A A j Z A A A A A A A Q U A ",
"l A U _ ' _ A A L ' *.o.Z q 0 q A A A A A o o # # % % 6.6.6.6.6.6.6.6.6.6.6.6.% % # # o o A A ! +.*._ y q 3 c A A A A A E *.X.! ",
"l A H E U U A A A E E ! C d m c A E L A A o o # # % % 6.6.6.6.6.6.6.6.6.6.6.6.% % # # o o A A L Q E U f m j A L E A A A U E U L ",
"l A A A A A A A A A A A A A A A _             # # 4.4.6.6.6.6.=.=.=.=.6.6.6.6.4.4.# #     A A A A A A A A A E ' @.! A A A A A A ",
"l A A A A A A A A A A A A A A A U             # # 4.4.6.6.6.6.=.=.=.=.6.6.6.6.4.4.# #     A A A A A A A A A A U U U A A A A A A ",
"l A A A A A A A A A A A A A A A A A A         # # 4.4.4.4.=.=.5.5.5.5.=.=.4.4.4.4.# #         A A A A A A A A A A A A A A A A A ",
"l A A A A A A A A A A A A A A A A M Z         # # 4.4.4.4.=.=.5.5.5.5.=.=.4.4.4.4.# #         A A A A A A A A A M A A A A A A A ",
"l A A A A A A A A A A A A A A A d         & & o o # # 4.4.4.4.=.=.=.=.4.4.4.4.# # o o & &         A A A A A j 0 ; f A A A A A A ",
"l A A A A A A A A A A A A A A A y         & & o o # # 4.4.4.4.=.=.=.=.4.4.4.4.# # o o & &         A A A A A M d y y A A A A A A ",
"l A A A A A A A A A A A A A A U ` ` L     & &     o o % % % % % % % % % % % % o o     & &         A A A A H E Q U A A A A A A A ",
"p c y j A A A A A A A A A A A E ' X.E     & &     o o % % % % % % % % % % % % o o     & &         A A A A L _ E ' A M 3 r c A A ",
"t 7 y q A A A c d j M A A A A A A     . .     @ @ & & o o o o o o o o o o o o & & @ @         d m Z A A A A A A H A y 1 0 f A A ",
"l V A A A A A d r q d A A A A A A     . .     @ @ & & o o o o o o o o o o o o & & @ @         y 3 B A A A A A A A A Z Z A A A A ",
"l A A P ( U F A A Z A A A A A A A A A         & & & & 3.3.    3.3.3.3.    3.3.& & & &             A A A A A A A A A A A H T { L ",
"l A F &.:.;.U A A A A A A A A A A A A         & & & & 3.3.    3.3.3.3.    3.3.& & & &             A A A A A A A A A A A R #.:.$.",
"l A A P P U A A A A A A A A A A A A A A A     @ @ & & & & @ @ 3.3.3.3.@ @ & & & & @ @     A A A A A A A A A A A A A A A A L L U ",
"l A A A A A A A A A A A A A A A A A A A A     @ @ & & & & @ @ 3.3.3.3.@ @ & & & & @ @     A A A A A A A A A A A A A A A A A A A ",
"l A A A L A A A A A E H A Z M A A A A A A     * *     @ @ & & & & & & & & @ @     * *     A A A L U A A m Z A A A A A A A U L A ",
"l A U _ ' _ A A L ' *.o.Z q q 0 A A A A A     * *     @ @ & & & & & & & & @ @     * *     A A ! +.@._ y q 3 c A A A A A E +.' ! ",
"l A H E U L A A A E Y E C d M m A U L A A     + + X X . .                 . . X X + +     A A L E E U j M j A L Y A A A U E U L ",
"l A A A A A A A A A A A A A A A _ *.+.E A     + + X X . .                 . . X X + +     A A A A A A A A A E ' *.! A A A A A A ",
"l A A A A A A A A A A A A A A A Q ! ' L A     X X X X . . X X X X X X X X . . X X X X     A A A A A A A A A H E E ! A A A A A A ",
"l A A A A A A A A A A A A A A A A A A A A     X X X X . . X X X X X X X X . . X X X X     A A A A A A A A A A A A A A A A A A A ",
"l A A A A A A A A A A A A A A A A B A A A A A . . . .         O O O O         . . . . A A A A A A A A A A A A A B A A A A A A A ",
"l A A A A A A A A A A A A A A A d : 0 f A A A . . . .         O O O O         . . . . A A A A A A A A A A A j q ; j A A A A A A ",
"l A A A A A A A A A A A A A A A 0 < ; d A A A                                         A A A A A A A A A A A f 3 2 q A A A A A A ",
"l A A A A A A A A A A A A A A U _ _ A A A A A                                         A A A A A A A A A A H E E L Z A A A A A A ",
"p j y f A A A A A A A A A A A E ` ' E B c y f Z A A A     $ $ * *     $ $     j , d M A A A A A A A A A A L _ E ' A M 2 r c A A ",
"t 0 d r A A A j y h M A A A A A A A A B 3 d q Z A A M     $ $ * *     $ $     0 3 q M A A B m y m Z A A A A A A A A y 2 q f A A ",
"l Z A A A A A q 4 0 y A A A A A A A A A Z A A A A A h     $ $ = =     $ $     Z A A A A A M 2 r 2 B A A A A A A A A A A A A A A ",
"l A A P [ T H A B M B A A A A A A A A A A A P { ^ L A     $ $ = =     $ $     A A L ( ) A A c B c A A A A A A A A A A A L R  .L ",
"l A L ;.>.<.R A A A A A A A A A A A A A A A %.1.1.[ A A A     X X         A A A A } &.<.( A A A A A A A A A A A A A A A W &.<.%.",
"l A A U T R A A A A A A A A A A A A A A A A P T R F A A A     X X         A A A A H L T L A A A A A A A A A A A A A A A A P P R ",
"l A A A A A A A A A A A A A A A A A A A A A A A A A A A A A A X X     A A A A A A A A A A A A A A A A A A A A A A A A A A A A A ",
"l A A A L A A A A A U A A A M A A A A A A A A L A A A A A U L X X     A A A A A A A U A A A A A L U A A M A A A A A A A A U L A ",
"l A U ! ' _ A A L ' *.o.Z w q q A A A A A L ! _ ` H A A ! @.o.        B A A A A A ! @.' U A A Q +.+._ y q 0 m A A A A A E +.' ! ",
"l A L Q U U A A A E E ! C y c j A U H A A A Q L Y A A A E E !         A L L A A A E U Y A A A L ! E Y f c h Z A U A A A U E U L ",
"l A A A A A A A A A A A A A A A E @.' U A A A A A A A A A A A A A A A U ' +.U A A A A A A A A A A A A A A A U _ *.Y A A A A A A ",
"l A A A A A A A A A A A A A A A E ! _ L A A A A A A A A A A A A A A A U E ! Y A A A A A A A A A A A A A A A L E Q E A A A A A A ",
"l A A A A A A A A A A A A A A A A A A A A A A A A A A A A A A A A A A A A A A A A A A A A A A A A A A A A A A A A A A A A A A A ",
"l A A A A A A A A A A A A A A A A A A A A A A A A A A A A A A A A A A A A A A A A A A A A A A A A A A A A A A A A A A A A A A A ",
"l A A A A A A A A A A A A A A A c 3 r c A A A A A A A A A A A A A A A c r 3 M A A A A A A A A A A A A A A A M s 1 m A A A A A A ",
"l A A A A A A A A A A A A A A A q 1 , f A A A A A A A A A A A A A A A d q 1 d A A A A A A A A A A A A A A A j 0 3 q A A A A A A ",
"l A A A A A A A A A A A A A A P _ ~ A A A A A A A A A A A A A A A A L E E H A A A A A A A A A A A A A A A H E E L A A A A A A A ",
"p m d j A A A A A A A A A A A E ' o.E B M s h Z A A A A A A A A A A U _ ! _ A c < f M A A A A A A A A A A L ` Q ' A M 3 y c A A ",
"8 3 q 1 A A A B c M A A A A A A A A A M 3 r < M A A Z M j Z A A A A A A A A A 3 - < j A A A Z j Z A A A A A A A H A r ; < r A A ",
"k j B B A A A r 3 0 d A A A A A A A A A j B M A A A j 2 4 q A A A A A A A A A c M M A A A M 3 q 4 B A A A A A A A A M c M Z A A "
};
