/* XPM */
static char *result[] = {
/* columns rows colors chars-per-pixel */
"64 64 121 2 ",
"   c black",
".  c #161919",
"X  c #232828",
"o  c #600018",
"O  c #385054",
"+  c #21457C",
"@  c #515151",
"#  c #784040",
"$  c #C00030",
"%  c #C53A3A",
"&  c #F86828",
"*  c #E05060",
"=  c #55AC5A",
"-  c #D89070",
";  c #283FA4",
":  c #2F66B9",
">  c #375FDA",
",  c #63BF99",
"<  c #64BF99",
"1  c #65BF99",
"2  c #65C099",
"3  c #65C09A",
"4  c #66C09A",
"5  c #67C09A",
"6  c #67C19B",
"7  c #68C19B",
"8  c #69C19B",
"9  c #6BC09B",
"0  c #6BC19B",
"q  c #68C29B",
"w  c #6CC19B",
"e  c #6FC09B",
"r  c #69C29C",
"t  c #6AC29C",
"y  c #6BC29C",
"u  c #6AC39C",
"i  c #6BC39D",
"p  c #6DC19C",
"a  c #6CC39D",
"s  c #6EC29C",
"d  c #6EC29D",
"f  c #6FC29D",
"g  c #6FC39D",
"h  c #6CC49E",
"j  c #6DC49E",
"k  c #6EC49E",
"l  c #6EC49F",
"z  c #6EC59F",
"x  c #6FC59F",
"c  c #70C39E",
"v  c #71C39E",
"b  c #71C49E",
"n  c #71C49F",
"m  c #70C59F",
"M  c #72C49F",
"N  c #72C4A0",
"B  c #73C5A0",
"V  c #70C6A0",
"C  c #71C6A0",
"Z  c #71C6A1",
"A  c #72C6A0",
"S  c #72C7A0",
"D  c #72C6A1",
"F  c #72C7A1",
"G  c #73C7A1",
"H  c #73C7A2",
"J  c #74C5A1",
"K  c #74C6A1",
"L  c #74C7A1",
"P  c #74C6A2",
"I  c #74C7A2",
"U  c #76C7A3",
"Y  c #77C7A4",
"T  c #74C8A2",
"R  c #75C8A2",
"E  c #74C8A3",
"W  c #75C8A3",
"Q  c #75C9A3",
"!  c #76C8A3",
"~  c #76C9A3",
"^  c #76C9A4",
"/  c #77C9A4",
"(  c #77C9A5",
")  c #77CAA5",
"_  c #77CAA6",
"`  c #78CAA4",
"'  c #78CAA5",
"]  c #79CAA5",
"[  c #78CAA6",
"{  c #78CBA6",
"}  c #79CBA7",
"|  c #7ACAA6",
" . c #7ACBA6",
".. c #7BCBA6",
"X. c #7CCCA7",
"o. c #79CBA8",
"O. c #7ACBA8",
"+. c #7ACCA8",
"@. c #7ACCA9",
"#. c #7BCCA9",
"$. c #7BCDA9",
"%. c #7DCCA8",
"&. c #7ECCA8",
"*. c #7ECDA9",
"=. c #7FCDA9",
"-. c #7CCDAA",
";. c #5A8BD6",
":. c #6080D0",
">. c #80CDAA",
",. c #80CEAA",
"<. c #81CEAA",
"1. c #81CEAB",
"2. c #82CEAB",
"3. c #82CFAB",
"4. c #83CFAC",
"5. c #84D0AC",
"6. c #F8C090",
"7. c #B0B0D0",
"8. c #90C0F0",
"9. c #E8E8F8",
"0. c #EFEFFF",
/* pixels */
"e b n M K N b b n B Y B b f w d v b b b b b M K B b b b M U J n g 9 d v b b b b b M Y B M b v M P U M c 0 s c b b b b b n U K M ",
"v G W +.} [ G G T #.$.-.Z 5 u r G G G G G T +._ } T G G } -.-.E 4 i 7 F G G G G G +.@.o.W G G ) -.-.} t i 6 V G G G G G ) $.} ) ",
"v G I ^ T T G G G ^ W ^ A j C C G Q T G G G ^ T T G G G W Q ^ G j C V G T W G G G ^ T W G G G I ^ ^ W x C m G T ^ G G G W Q T I ",
"v G G G G G G G G G G G G G G G [ $.#.^ G G G G G G G G G G G G G G G ( } #.^ G G G G G G G G G G G G G G G ^ } $.) G G G G G G ",
"v G G G G G G G G G G G G G G G W ^ ^ T G G G G G G G G G G G G G G G T W ^ W G G G G G G G G G G G G G G G G W W Q G G G G G G ",
"v G G G G G G G G G G G G G G G G G G G G G G G G G G G G G G G G G G G G G G G G G G G G G G G G G G G G G G G G G G G G G G G ",
"v G G G G G G G G G G G G G G G G A G G G G G G G G G G G G G G G G G G F A G G G G G G G G G G G G G G G G G G A G G G G G G G ",
"v G G G G G G G G G G G G G G G j 2 7 x G G G G G G G G G G G G G G G x r 4 m G G G G G G G G G G G G G G G m t 1 k G G G G G G ",
"v G G G G G G G G G G G G G G G l j t C G G G G G G G G G G G G G G G V x i x G G G G G G G G G G G G G G G C z j j G G G G G G ",
"v G G G G G G G G G G G G G G ^ #.+.W G G G G G G G G G G G G G G G Q { ) ^ G G G G G G G G G G G G G G G T { [ ^ I G G G G G G ",
"f x a k G G G G G G G G G G G ^ [ } ^ A x a j F G G o o o o o o o o o o o o o o o o C G G G G G G G G G G T [ ^ } G C 6 y x G G ",
"p r j i G G G x a k C G G G G G G G G A 7 j t F G G o o o o o o o o o o o o o o o o C G G F m a m F G G G G G G G G a 7 t k G G ",
"v F G G G G G j i t j G G G G G G G G G F G G G o o $ $ * * * * * * * * * * * * $ $ o o G A 7 j 7 F G G G G G G G G G G G G G G ",
"v G I ] &.] R G G F G G G G G G G G G G G G ` =.o o $ $ * * * * * * * * * * * * $ $ o o R G F G F G G G G G G G G G G G !  .<.~ ",
"v G T 4.1.5./ G G G G G G G G G G G G G G G o o 7.7.7.7.* * * * * * * * * * * * * * o o | G G G G G G G G G G G G G G G ' ,.2.>.",
"v G G R W ! G G G G G G G G G G G G G G G G o o 7.7.7.7.* * * * * * * * * * * * * * o o T G G G G G G G G G G G G G G G G T T ! ",
"v G G G G G G G G G G G G G G G G G G G o o :.:.7.7.9.9.9.9.* * * * * * * * * * * * $ $ o o G G G G G G G G G G G G G G G G G G ",
"v G G I W G G G G G ) T G A x G G G G G o o :.:.7.7.9.9.9.9.* * * * * * * * * * * * $ $ o o G G W ^ G G x F G G G G G G G ( W G ",
"v G W [ } [ G G T } -.+.F t r t G G o o * * 8.8.:.:.7.7.9.9.9.9.* * * * * * * * $ $ $ $ o o         [ a t 7 m G G G G G ^ -.O.) ",
"v G I ^ W W G G G ^ ^ ) D j V m G ^ o o * * 8.8.:.:.7.7.9.9.9.9.* * * * * * * * $ $ $ $ o o         W k V x G T ^ G G G W ^ W T ",
"v G G G G G G G G G G G G G G G [ $.o o * * :.:.7.7.7.7.7.7.7.7.$ $ $ $ $ $ $ $ $ $ $ $ o o     G G G G G G ^ } $.) G G G G G G ",
"v G G G G G G G G G G G G G G G W W o o * * :.:.7.7.7.7.7.7.7.7.$ $ $ $ $ $ $ $ $ $ $ $ o o     G G G G G G G W W W G G G G G G ",
"v G G G G G G G G G G G G G G G G G o o * * $ $ 7.7.7.7.7.7.7.7.$ $ $ $ $ $ $ $ $ $ o o . . O O     G G G G G G G G G G G G G G ",
"v G G G G G G G G G G G G G G G G C o o * * $ $ 7.7.7.7.7.7.7.7.$ $ $ $ $ $ $ $ $ $ o o . . O O     G G G G G G C G G G G G G G ",
"v G G G G G G G G G G G G G G G j < 7 k o o $ $ $ $ $ $ 7.7.7.7.$ $ $ $ $ $ o o o o . . . .     G G G G G G x r < k G G G G G G ",
"v G G G G G G G G G G G G G G G a i r m o o $ $ $ $ $ $ 7.7.7.7.$ $ $ $ $ $ o o o o . . . .     G G G G G G C j a a G G G G G G ",
"v G G G G G G G G G G G G G G W { { T G G G o o o o o o o o o o o o o o o o . . . . . . . . . .     G G G I ^ ( W G G G G G G G ",
"f m a x G G G G G G G G G G G ^ } O.^ A m a o o o o o o o o o o o o o o o o . . . . . . . . . .     G G G T [ ^ } G C 7 i m G G ",
"p q a t G G G m j x C G G G G G G G G A 7 j # # - - - -     - - - - . . 6.6.- - . . . .         V F G G G G G G I G a 5 r k G G ",
"v S G G G G G j i t j G G G G G G G G G A G # # - - - -     - - - - . . 6.6.- - . . . .         7 A G G G G G G G G F F G G G G ",
"v G G R ] W L G G F G G G G G G G G G G G G . . # # 6.6.# # 6.6.- - - - 6.6.- - . .     G G A G A G G G G G G G G G G G I ! ..T ",
"v G L =.<.,.W G G G G G G G G G G G G G G G . . # # 6.6.# # 6.6.- - - - 6.6.- - . .     ' G G G G G G G G G G G G G G G ~ %.<.&.",
"v G G R R W G G G G G G G G G G G G G G G G     X X # # - - - - - - - - . . . . + +     T G G G G G G G G G G G G G G G G T T W ",
"v G G G G G G G G G G G G G G G G G G G G G     X X # # - - - - - - - - . . . . + +     G G G G G G G G G G G G G G G G G G G G ",
"v G G G T G G G G G ^ I G F C G G G G G G G     X X     . .     ; ; > > . . X X : : ;.;.    G G T W G G V F G G G G G G G W T G ",
"v G W [ } [ G G T } -.+.F t t r G G G G G T     X X     . .     ; ; > > . . X X : : ;.;.    G ) #.$.[ a t 7 m G G G G G ^ #.} ) ",
"v G I ^ W T G G G ^ Q ^ D j C V G W T G     O O     @ @ @ @ ; ; ; ; ; ; . . X X : : = =     G T ^ ^ W x C x G T Q G G G W ^ W T ",
"v G G G G G G G G G G G G G G G [ -.#.^     O O     @ @ @ @ ; ; ; ; ; ; . . X X : : = =     G G G G G G G G ^ } -.) G G G G G G ",
"v G G G G G G G G G G G G G G G ( ) } T     O O     X X X X ; ; ; ;     @ @ . . : : : :     G G G G G G G G I ^ ^ ) G G G G G G ",
"v G G G G G G G G G G G G G G G G G G G     O O     X X X X ; ; ; ;     @ @ . . : : : :     G G G G G G G G G G G G G G G G G G ",
"v G G G G G G G G G G G G G G G X X X X         & &     . .         7.7.        X X     X X X X G G G G G G G G A G G G G G G G ",
"v G G G G G G G G G G G G G G G X X X X         & &     . .         7.7.        X X     X X X X G G G G G G x t < x G G G G G G ",
"v G G G G G G G G G G G G G X X                 & &         7.7.7.7.7.7.                        X X G G G G k 7 6 t G G G G G G ",
"v G G G G G G G G G G G G G X X                 & &         7.7.7.7.7.7.                        X X G G G I ^ ^ T F G G G G G G ",
"f x a k G G G G G G G G X X     $ $ 0.0.$ $ % %                 @ @ @ @     * * $ $ $ $ $ $ $ $     X X G T [ ^ } G C 6 i m G G ",
"p r j i G G G x a z C G X X     $ $ 0.0.$ $ % %                 @ @ @ @     * * $ $ $ $ $ $ $ $     X X G G G G G G a 6 t k G G ",
"v F G G G G G t 8 r a G     7.7.    G G % % G G     7.7.    $ $ $ $ $ $         % % % % G C     7.7.    G G G G G G G G G G G G ",
"v G G R  .! I G A C A G     7.7.    G G % % R ..    7.7.    $ $ $ $ $ $         % % % % G G     7.7.    G G G G G G G G T ~ X.T ",
"v G T ,.1.3.~ G G G G G     7.7.$ $ 0.0.    0.0.$ $ 7.7.                7.7.$ $ 0.0.    0.0.$ $ 7.7.    G G G G G G G G / =.3.*.",
"v G G W ! ~ G G G G G G     7.7.$ $ 0.0.    0.0.$ $ 7.7.                7.7.$ $ 0.0.    0.0.$ $ 7.7.    G G G G G G G G G R R ~ ",
"v G G G G G G G G G G G G G     7.7.7.7.7.7.7.7.7.7.    G G G G G G G G     7.7.7.7.7.7.7.7.7.7.    G G G G G G G G G G G G G G ",
"v G G G T G G G G G W G G G     7.7.7.7.7.7.7.7.7.7.    G W T G G C G G     7.7.7.7.7.7.7.7.7.7.    G G C G G G G G G G G W T G ",
"v G W ) } [ G G T } -.+.F y t t                     G G ) $.+.E i t r A G G                     #.#.[ a t r V G G G G G ^ #.} ) ",
"v G T ( W W G G G ^ ^ ) D a m x                     G G ^ ^ ) H a V x G T T                     ) ^ Q k m z F G W G G G W ^ W T ",
"v G G G G G G G G G G G G G G G ^ $.} W G G G G G G G G G G G G G G G W } #.W G G G G G G G G G G G G G G G W [ -.Q G G G G G G ",
"v G G G G G G G G G G G G G G G ^ ) [ T G G G G G G G G G G G G G G G W ^ ) Q G G G G G G G G G G G G G G G T ^ ( ^ G G G G G G ",
"v G G G G G G G G G G G G G G G G G G G G G G G G G G G G G G G G G G G G G G G G G G G G G G G G G G G G G G G G G G G G G G G ",
"v G G G G G G G G G G G G G G G G G G G G G G G G G G G G G G G G G G G G G G G G G G G G G G G G G G G G G G G G G G G G G G G ",
"v G G G G G G G G G G G G G G G m 7 i m G G G G G G G G G G G G G G G m i 7 C G G G G G G G G G G G G G G G C h 5 V G G G G G G ",
"v G G G G G G G G G G G G G G G t 5 3 k G G G G G G G G G G G G G G G j t 5 j G G G G G G G G G G G G G G G x r 7 t G G G G G G ",
"v G G G G G G G G G G G G G G R [ _ G G G G G G G G G G G G G G G G T ^ ^ I G G G G G G G G G G G G G G G I ^ ^ T G G G G G G G ",
"f V j x G G G G G G G G G G G ^ } +.^ A C h z F G G G G G G G G G G W [ ) [ G m 4 k C G G G G G G G G G G T { ( } G C 7 a m G G ",
"w 7 t 5 G G G A m C G G G G G G G G G C 7 i 4 C G G F C x F G G G G G G G G G 7 , 4 x G G G F x F G G G G G G G I G i < 4 i G G ",
"c x A A G G G i 7 r j G G G G G G G G G x A C G G G x 6 8 t G G G G G G G G G m C C G G G C 7 t 8 A G G G G G G G G C m C F G G "
};
