/* XPM */
static char *result[] = {
/* columns rows colors chars-per-pixel */
"64 64 149 2 ",
"   c #020302",
".  c #080701",
"X  c #090803",
"o  c #161300",
"O  c #1B1A05",
"+  c #1D1B0F",
"@  c #0C1511",
"#  c #0F1B16",
"$  c #111C17",
"%  c #121E19",
"&  c #201E10",
"*  c #14231D",
"=  c #332C04",
"-  c #3F3707",
";  c #38340C",
":  c #37380E",
">  c #2A2815",
",  c #1A2E25",
"<  c #1C3228",
"1  c #20372C",
"2  c #213A2F",
"3  c #3C3920",
"4  c #223B30",
"5  c #423B09",
"6  c #2C4D3E",
"7  c #335138",
"8  c #5E5A0F",
"9  c #444515",
"0  c #565718",
"q  c #675900",
"w  c #685A00",
"e  c #665D0C",
"r  c #6F6001",
"t  c #666A1E",
"y  c #7F7010",
"u  c #434024",
"i  c #626421",
"p  c #6E7126",
"a  c #64643A",
"s  c #2F5141",
"d  c #315344",
"f  c #3C5944",
"g  c #365B48",
"h  c #466E56",
"j  c #416F59",
"k  c #477256",
"l  c #44755E",
"z  c #487158",
"x  c #4A7658",
"c  c #437C64",
"v  c #497D64",
"b  c #877705",
"n  c #857511",
"m  c #4E896E",
"M  c #528565",
"N  c #528E73",
"B  c #539376",
"V  c #579679",
"C  c #55997B",
"Z  c #5A9B7E",
"A  c #958100",
"S  c #9E8902",
"D  c #958413",
"F  c #998714",
"G  c #AB9507",
"H  c #A18E15",
"J  c #BDA300",
"K  c #BEA718",
"L  c #90832F",
"P  c #D1B500",
"I  c #D5B800",
"U  c #D8BB00",
"Y  c #C2AB19",
"T  c #DAC11D",
"R  c #EECE01",
"E  c #E6C80C",
"W  c #F0CF00",
"Q  c #EFD004",
"!  c #F5D505",
"~  c #FEDC04",
"^  c #F3D40B",
"/  c #FADA0A",
"(  c #E5CA1E",
")  c #E6CB1E",
"_  c #EED010",
"`  c #EED21F",
"'  c #F6D710",
"]  c #F7D813",
"[  c #FADB14",
"{  c #F1D51F",
"}  c #FCDE1C",
"|  c #FFE204",
" . c #FFE014",
".. c #FFE11E",
"X. c #F5D921",
"o. c #FBDE24",
"O. c #F6DB34",
"+. c #FFE122",
"@. c #FFE922",
"#. c #FFE22B",
"$. c #FEE233",
"%. c #FEE43A",
"&. c #84824A",
"*. c #8B854A",
"=. c #968C4B",
"-. c #A99D50",
";. c #B2A54F",
":. c #BFB360",
">. c #C8BA5E",
",. c #C2B661",
"<. c #F2DD58",
"1. c #FEE644",
"2. c #FFE74C",
"3. c #F9E357",
"4. c #FFE853",
"5. c #FFE95A",
"6. c #DECF6C",
"7. c #E3D472",
"8. c #E9D972",
"9. c #EFDF78",
"0. c #F9E563",
"q. c #FFEB65",
"w. c #FFEB6A",
"e. c #FFED73",
"r. c #F7E77D",
"t. c #FEED7D",
"y. c #FFF074",
"u. c #FFF37E",
"i. c #5CA484",
"p. c #5FB08D",
"a. c #65AE8D",
"s. c #66B08F",
"d. c #66B492",
"f. c #69B493",
"g. c #6BB996",
"h. c #64BF99",
"j. c #6DBF9B",
"k. c #71BB9B",
"l. c #66C09A",
"z. c #6CC39D",
"x. c #71C49E",
"c. c #73C7A1",
"v. c #75C9A3",
"b. c #79CBA6",
"n. c #7CCCA9",
"m. c #81CEAB",
"M. c #84D0AC",
"N. c #FFEE80",
"B. c #FFF380",
/* pixels */
"z.x.x.x.c.x.x.x.x.x.v.c.x.z.z.x.x.x.x.x.x.x.c.c.c.x.x.x.x.v.v.x.z.z.z.x.x.x.x.x.x.x.v.x.x.x.x.x.v.v.x.x.z.z.z.x.x.x.x.x.x.v.v.x.",
"x.c.c.n.b.v.v.c.v.n.n.n.c.l.z.l.c.c.c.c.c.v.n.v.b.v.c.x.b.n.n.v.l.z.z.c.c.c.c.c.v.b.n.b.v.v.c.v.n.n.b.z.z.z.x.v.v.x.c.c.b.n.b.v.",
"x.c.c.b.v.v.c.c.v.v.v.v.x.z.x.x.c.v.v.c.c.c.v.v.c.c.c.c.v.v.v.c.z.x.c.c.c.v.c.c.c.v.c.v.v.c.c.v.v.v.v.z.c.z.c.c.v.c.c.c.v.v.v.v.",
"x.c.c.c.v.x.v.c.x.v.x.v.v.v.x.v.v.n.n.v.c.c.c.c.c.c.c.v.c.c.c.c.v.x.c.v.b.n.v.c.c.c.c.c.c.c.c.c.v.c.c.v.c.c.v.b.b.b.c.c.c.c.c.c.",
"x.c.c.c.c.c.c.c.c.c.c.c.c.c.c.c.v.v.v.c.c.c.c.c.c.c.c.c.c.v.c.c.c.c.c.c.v.v.v.c.c.c.c.c.c.c.c.c.x.v.c.c.c.c.c.v.v.v.c.c.c.c.c.c.",
"x.c.c.c.c.c.c.c.c.c.c.c.c.c.c.c.c.c.c.c.c.c.c.c.c.c.c.c.c.x.c.c.c.c.c.c.c.c.c.c.c.c.c.v.c.c.c.c.c.c.c.c.c.c.c.c.c.c.c.c.c.c.c.c.",
"x.c.c.c.c.c.c.c.c.c.c.c.c.c.c.c.c.c.c.v.c.c.c.c.c.c.c.c.c.v.c.c.c.c.c.c.c.c.c.c.c.c.c.c.c.c.c.c.c.c.c.c.c.c.c.c.c.c.c.c.c.c.c.c.",
"k.v.c.c.c.c.c.c.x.v.c.c.c.c.c.c.z.h.z.z.c.c.c.c.c.c.c.c.c.c.c.c.c.c.c.z.z.l.x.c.c.c.c.c.c.c.c.c.c.c.c.c.c.c.x.z.l.z.c.c.c.c.c.c.",
"x.c.c.c.c.c.c.c.c.c.x.v.x.v.v.x.x.z.z.x.v.c.c.c.c.c.c.c.c.c.c.c.c.c.c.c.c.z.z.c.c.c.c.c.c.c.c.c.c.c.c.c.c.c.c.z.z.z.c.c.c.c.c.c.",
"x.c.c.c.c.c.c.c.c.c.v.x.v.x.v.v.n.b.v.v.c.c.c.c.c.c.c.c.c.c.c.c.c.c.v.b.v.v.v.c.c.c.c.c.c.c.c.c.c.c.c.c.c.v.b.b.v.v.c.c.c.c.c.c.",
"z.c.z.x.c.c.c.c.v.v.x.v.c.c.x.b.b.b.b.x.z.z.x.c.c.c.c.c.c.c.c.c.c.c.v.v.v.b.c.c.l.z.c.c.c.c.v.x.c.c.c.c.c.v.v.v.b.c.c.l.z.c.c.c.",
"z.z.x.z.c.c.c.x.z.z.x.v.c.c.c.c.c.v.x.x.l.z.z.c.c.c.c.z.z.x.c.c.c.c.c.c.c.c.c.z.l.l.c.c.c.c.x.z.z.c.c.c.c.c.c.c.c.c.z.l.z.z.c.c.",
"z.v.c.c.c.c.c.z.z.z.z.c.c.c.c.c.v.x.v.v.c.c.c.c.c.c.c.l.z.z.c.c.c.c.c.c.c.c.c.c.c.c.v.v.v.x.z.z.z.c.c.c.c.c.c.v.c.c.c.c.c.c.c.c.",
"z.x.v.b.n.b.v.c.c.c.c.c.c.c.c.c.x.v.v.x.c.c.v.m.n.v.c.c.c.c.c.c.c.c.c.c.c.c.c.c.v.v.n.n.v.v.c.c.c.c.c.c.c.c.c.c.c.c.c.c.v.b.n.v.",
"x.c.c.M.n.M.v.c.c.c.c.c.c.c.c.c.c.c.c.c.c.c.m.m.M.n.c.c.c.c.c.c.c.c.c.c.c.c.c.c.c.n.n.n.v.c.c.c.c.c.c.c.c.c.c.c.c.c.c.c.b.n.M.n.",
"x.c.x.v.v.v.c.c.c.c.c.c.c.v.x.v.c.c.c.c.c.c.c.v.v.c.c.c.c.c.c.c.c.c.c.c.c.c.c.c.c.c.v.v.v.c.c.c.c.c.c.c.c.c.c.c.c.c.v.x.v.v.v.v.",
"x.x.c.c.c.c.c.c.c.c.c.v.c.c.c.c.c.c.c.v.c.c.c.c.c.c.c.z.j.j.k.x.j.z.j.j.x.c.c.c.c.c.c.c.c.c.c.c.c.c.c.c.c.c.c.c.c.c.c.c.c.c.c.c.",
"x.v.v.x.v.c.c.c.c.c.v.v.c.c.c.c.c.c.c.c.c.c.v.c.c.c.c.j , < , < < , , , m x.v.x.c.v.v.c.c.c.c.c.v.v.c.c.z.c.c.c.c.c.c.c.c.b.c.c.",
"x.v.v.b.b.b.c.c.v.b.n.n.c.z.l.l.c.c.c.c.c.c.c.c.f.a.s.f & & & & & & > + x s.a.s.z.n.n.n.v.c.c.b.n.n.b.z.z.l.c.c.c.c.c.c.v.n.n.b.",
"x.x.v.v.v.v.c.c.c.v.v.b.c.z.c.c.c.c.c.c.c.c.b.Z % @ @ *.7.7.7.7.7.7.7.7.a @ @ , g.v.v.v.c.c.x.v.v.b.v.z.c.z.c.c.b.c.c.c.c.b.c.c.",
"x.c.c.c.x.c.c.c.c.c.c.c.c.c.c.c.v.n.n.v.c.z.Z M u 3 u ;.y.w.w.q.q.q.q.w.L - 5 9 M i.x.v.v.x.v.v.c.c.c.c.c.c.b.b.b.b.c.c.c.c.c.c.",
"x.c.c.c.v.c.c.c.c.c.c.c.c.c.c.c.v.v.v.c.c.l.* : 9.r.r.3.1.#.+.+.#.+.+.#.+.{ X.T O < x.v.x.v.v.x.c.c.c.c.c.c.c.v.c.b.c.c.c.c.c.c.",
"x.c.c.c.c.c.c.c.c.c.c.c.c.c.c.c.c.c.c.c.m z a L 0.5.3.%.X.] ] ] ' ' ] ] ......` y i k C v.x.v.v.c.c.c.c.c.c.c.c.c.c.c.c.c.c.c.c.",
"x.c.c.c.c.c.c.c.c.c.c.c.c.c.c.c.c.c.c.x.< + 7.y.1.$.+.^ R R R R R R R R [ +.+.@.@.K X 6 x.v.x.x.c.c.c.c.c.c.c.c.c.c.c.c.c.c.c.c.",
"x.v.v.x.c.c.c.c.c.c.c.c.c.c.c.c.z.h.c s &.-.<.2.$.X.^ ] ] ' [ / ] [ [ ] ' ^ } #.+.( H p 6 C x.v.c.c.c.c.c.c.z.z.l.z.c.c.c.c.c.c.",
"x.x.c.c.c.c.c.c.c.c.c.c.c.c.c.c.z.z.s . ,.u.1.%.+.' R ] ..#.#.#.#.#.+.+.^ R [ ..+.+.@.D   l v.x.c.c.c.c.c.c.c.z.z.z.c.c.c.c.c.c.",
"x.v.v.c.c.c.c.c.c.c.c.c.c.c.c.v.b.b.s . :.y.$.} ^ ^ } } +.5.w.w.q.w.2.o.} [ ^ ^ ....@.D   l x.x.c.c.c.c.c.c.v.b.v.c.c.c.c.c.c.c.",
"z.x.z.z.c.c.c.c.c.c.c.c.c.c.c.v.k.s.f > >.w.#.' Q ' +.#.#.q.e.e.w.e.4.} +.+.^ ^ #.#.+.H O k s.x.c.c.c.c.c.c.b.v.b.c.c.z.z.z.c.c.",
"z.z.z.z.c.c.c.x.z.c.c.c.c.c.c.c.v @ *.8.3.%._ ^ } ....4.e.O.[ [ [ [ ' ! } +.} #.w.q.+.X.T i # C c.c.c.c.c.c.c.c.v.c.z.l.z.z.c.c.",
"x.x.v.x.c.c.v.z.z.z.z.c.c.c.c.c.c   =.B.2.O.R ^ +.+...5.t.+./ / / / / ! [ +.+.#.e.w.+.+. .r . B z.c.c.c.c.c.c.c.c.c.c.c.c.c.c.c.",
"x.v.c.v.b.c.c.c.c.c.c.c.c.c.c.c.l   =.u.%.} W ^ ..+...5.t.o./ / / / / ! [ +...#.e.w.+. .| w . C c.c.c.c.c.c.c.c.c.c.c.c.c.v.b.c.",
"x.x.v.n.m.m.v.x.c.c.c.c.c.c.c.c.l   =.t.%.} R ^ +.+.+.5.t.+./ / / / / ! [ +.+.#.e.w.+. .~ q . C c.c.c.c.c.c.c.c.c.c.c.c.v.n.M.n.",
"z.c.c.c.v.v.c.c.c.c.c.c.c.c.c.c.l   =.u.%.} Q Q ..+...5.t.+.~ / / / / ! [ +...#.e.w.+. .~ q   Z c.c.c.c.c.c.c.c.c.c.v.c.c.c.v.v.",
"x.c.c.c.c.c.c.c.c.c.c.c.c.c.c.c.l   =.u.%.} Q ^ +.+...5.t.o./ / / / / ! [ ..+.#.e.w.+. .~ q X V c.c.c.c.c.v.c.c.c.c.c.c.c.c.c.c.",
"x.v.c.c.c.c.c.c.c.c.v.c.c.c.c.c.l   =.u.%.} Q Q o...+.5.t.#./ / / / / ! [ ..+.#.e.w.+.[ ~ q   V v.v.c.c.z.v.c.c.c.c.c.c.c.v.c.c.",
"x.c.v.b.b.b.c.c.v.b.n.b.c.z.z.l.l   =.u.%.} Q Q ..+...5.t.o./ / / / / ! [ +.+.#.t.w.+. .~ w   Z n.n.b.z.z.l.z.c.c.c.c.c.v.n.n.v.",
"x.c.v.v.c.v.c.c.c.v.v.b.c.z.c.c.v $ &.6.O...^ ^ } +.+.4.y.+./ / / / / /  ...#.%.w.5.+._ E e * Z v.v.v.z.c.z.c.v.v.c.c.c.v.v.v.v.",
"x.c.c.c.c.c.c.c.c.c.c.c.c.c.c.c.x.k.f & Y ....[ R ^ ..#.+.' ! ! ! ! ' ..+.#.q.w.$.+.~ S X x l.x.c.c.c.c.v.v.v.n.n.v.c.c.c.c.c.c.",
"x.c.c.c.c.c.c.c.c.c.c.c.c.c.c.c.b.b.d . K +.+...^ ^ ] ..+.[ ' ' / ' [ +.$.%.5.5.#. .| A   l c.c.c.c.c.c.c.c.c.v.v.b.c.c.c.c.c.c.",
"x.c.c.c.c.c.c.c.c.c.c.c.c.c.c.c.c.x.d . K @.+.+.+.] R ] ............+...5.t.%.+.+. .| A   l c.c.c.c.c.c.c.c.c.c.c.v.c.c.c.c.c.c.",
"x.x.c.c.c.c.c.c.c.c.c.c.c.c.c.c.c.x.m g t F { ..+.} ^ $.2.2.2.2.2.2.2.2.2.4.#... .E b t g C c.c.c.c.c.c.c.c.c.c.z.v.c.c.c.c.c.c.",
"x.v.c.c.c.c.c.c.c.c.c.c.c.c.c.c.z.h.z.j.1 O ( +.+.+.+.5.N.N.N.t.t.N.t.N.2...+...~ J . d c.c.c.c.c.c.c.c.c.c.x.z.l.z.c.c.c.c.c.c.",
"x.v.c.c.c.c.c.c.c.c.c.c.c.c.c.c.z.l.h.z.V x 0 n +.+.+.$.1.1.1.1.1.1.1.1.+./ | E r 0 v Z c.c.c.c.c.c.c.c.c.c.z.l.l.z.c.c.c.c.c.c.",
"x.x.c.c.c.c.c.c.c.c.c.c.c.c.c.v.b.v.c.c.v.s.* ; ) { { +.................^ R ! P O 2 x.v.c.c.c.c.c.c.c.c.c.c.b.v.v.c.c.c.c.c.c.c.",
"z.x.z.z.c.c.c.c.c.c.c.c.c.c.v.v.b.b.v.x.x.l.i.M = = = G | | / | | / ~ / b = = : m i.x.v.x.v.c.c.c.c.c.c.c.c.b.v.b.c.c.z.z.z.v.c.",
"z.z.z.z.c.c.c.x.z.z.x.c.c.c.c.v.v.x.v.v.l.z.z.Z , % % y U I I P I U P P 8 $ % < p.z.x.v.v.x.c.z.c.c.c.c.c.c.c.c.c.c.z.l.z.z.c.c.",
"x.c.c.c.c.c.c.z.z.z.z.c.c.c.v.x.x.v.v.x.v.x.x.x.d.g.d.7 o o o o o o o o h g.f.g.x.x.v.x.c.c.l.z.l.c.c.c.c.c.c.c.c.c.c.c.c.c.c.c.",
"x.c.c.c.b.v.v.c.c.c.x.c.c.c.x.v.x.v.x.v.x.v.x.n.v.v.c.l 2 4 6 2 4 4 4 2 N x.c.c.v.v.v.b.c.c.x.c.c.c.c.c.c.c.c.c.c.c.c.c.c.v.n.v.",
"x.v.v.n.M.M.c.c.c.c.c.c.c.c.c.c.c.c.c.c.c.c.n.n.M.n.c.c.z.c.z.c.x.z.z.c.c.c.c.c.c.n.n.n.b.c.c.c.c.c.c.c.c.c.c.c.c.c.c.c.v.n.n.n.",
"x.x.c.v.v.v.c.c.c.c.c.c.c.c.c.c.c.c.c.c.c.c.v.v.v.v.c.c.c.c.c.c.c.c.c.c.c.c.c.c.c.v.v.v.v.c.c.c.c.c.c.c.c.c.c.c.c.c.c.c.v.v.v.b.",
"x.c.c.c.c.c.c.c.c.c.c.c.c.c.c.c.c.c.c.c.c.c.c.c.c.c.c.c.c.c.c.c.c.c.c.c.c.c.c.c.c.c.c.c.c.c.c.c.c.c.c.c.c.c.c.c.c.c.c.c.v.x.v.x.",
"x.c.c.c.v.c.c.c.c.c.v.c.c.c.x.c.c.c.c.c.v.c.c.c.c.c.c.c.c.v.v.c.c.c.c.c.c.c.c.c.c.c.v.c.c.c.c.c.v.c.c.c.c.c.c.c.c.c.c.c.x.v.v.v.",
"x.x.v.v.n.v.c.c.v.b.n.b.c.z.z.z.c.c.c.c.c.v.v.b.v.v.c.c.v.n.n.v.z.z.l.c.c.c.c.c.c.b.n.b.v.c.c.v.n.b.b.z.z.z.z.v.c.c.c.c.v.n.b.b.",
"x.v.v.v.v.v.c.c.c.v.b.b.c.z.x.z.c.v.v.c.c.v.v.v.v.c.c.c.v.v.v.v.z.c.c.c.c.v.c.c.c.v.v.v.c.c.c.v.v.v.v.z.z.z.c.c.v.c.c.c.v.v.v.v.",
"x.v.c.c.c.v.x.c.c.c.c.c.c.c.c.c.v.n.b.v.c.c.c.c.c.c.c.c.v.c.c.c.c.c.c.c.n.n.v.c.c.c.c.c.c.c.c.c.v.c.c.c.v.c.v.b.n.v.c.c.v.x.v.x.",
"x.x.c.c.c.c.v.c.c.c.c.c.c.c.c.c.v.v.b.c.c.c.c.c.c.c.c.c.c.c.c.c.c.c.c.c.v.v.v.c.c.c.c.c.c.c.c.c.c.c.c.c.c.c.v.v.v.v.c.c.c.v.x.v.",
"z.c.c.c.c.c.c.c.c.c.c.c.c.c.c.c.c.c.c.c.c.c.c.c.c.c.c.c.c.c.c.c.c.c.c.c.c.c.c.c.c.c.c.c.c.c.c.c.c.c.c.c.c.c.c.c.v.c.c.c.c.c.c.c.",
"x.c.c.c.c.c.c.c.c.c.c.c.c.c.c.c.c.c.c.c.c.c.c.c.c.c.c.c.c.c.c.c.c.c.c.c.c.c.c.c.c.c.c.c.c.c.c.c.c.c.c.c.c.c.c.c.c.c.c.c.c.c.c.c.",
"x.c.c.c.c.c.c.c.c.c.c.c.c.c.c.c.c.l.z.c.c.c.c.c.c.c.c.c.c.c.c.c.c.c.c.c.z.z.c.c.c.c.c.c.c.c.c.c.c.c.c.c.c.c.c.z.l.z.c.c.c.c.c.c.",
"x.c.c.c.c.c.c.c.c.c.c.c.c.c.c.c.l.l.l.z.c.c.c.c.c.c.c.c.c.c.c.c.c.c.c.z.z.l.z.c.c.c.c.c.c.c.c.c.c.c.c.c.c.c.c.z.z.z.c.c.c.c.c.c.",
"x.c.c.c.c.c.c.c.c.c.c.c.c.c.c.v.v.b.c.c.c.c.c.c.c.c.c.c.c.c.c.c.c.c.c.v.c.c.c.c.c.c.c.c.c.c.c.c.c.c.c.c.c.c.b.c.c.c.c.c.c.c.c.c.",
"z.c.x.z.c.c.c.c.c.c.c.c.c.c.c.v.b.b.v.c.c.z.z.c.c.c.v.c.c.c.c.c.c.c.v.b.v.b.c.c.l.z.c.c.c.c.c.c.c.c.c.c.c.v.b.b.b.c.c.l.z.x.c.c.",
"z.l.z.l.c.c.c.c.z.c.c.c.c.c.c.c.c.c.c.c.l.l.h.c.c.c.c.c.z.c.c.c.c.c.c.c.c.c.c.l.h.h.z.c.c.c.c.c.c.c.c.c.c.c.c.c.c.c.z.h.l.z.c.c.",
"z.c.x.c.c.c.c.z.l.z.c.c.c.c.c.c.c.c.c.c.c.c.c.c.c.c.c.l.z.z.c.c.c.c.c.c.c.c.c.x.c.c.c.c.c.c.l.l.l.c.c.c.c.c.c.c.c.c.c.z.c.c.c.c."
};
