/* XPM */
static char *result[] = {
/* columns rows colors chars-per-pixel */
"64 64 110 2 ",
"   c #000000",
".  c #0D0C02",
"X  c #0A110E",
"o  c #161403",
"O  c #0B1310",
"+  c #101C17",
"@  c #131E19",
"#  c #231F05",
"$  c #1C2619",
"%  c #242005",
"&  c #282305",
"*  c #312B06",
"=  c #25311D",
"-  c #172921",
";  c #192C23",
":  c #1F392E",
">  c #2D402B",
",  c #2C4B3D",
"<  c #3C5538",
"1  c #6E5F00",
"2  c #776700",
"3  c #736509",
"4  c #76680F",
"5  c #7D6E0C",
"6  c #6B691E",
"7  c #786F17",
"8  c #5B6524",
"9  c #6A6E27",
"0  c #335847",
"q  c #345A49",
"w  c #3D6144",
"e  c #38624F",
"r  c #396350",
"t  c #3E6A55",
"y  c #3F6D58",
"u  c #416E5A",
"i  c #40725C",
"p  c #467A62",
"a  c #487C64",
"s  c #847200",
"d  c #8E7D12",
"f  c #4A8168",
"g  c #528D72",
"h  c #549175",
"j  c #599B7D",
"k  c #948313",
"l  c #9C8A14",
"z  c #918419",
"x  c #9F901B",
"c  c #AA9300",
"v  c #B19F1B",
"b  c #CFB300",
"n  c #C0A916",
"m  c #CFB71B",
"M  c #D8BF1C",
"N  c #DBC11D",
"B  c #EECE01",
"V  c #EDCE09",
"C  c #F0CF00",
"Z  c #F2D103",
"A  c #F2D20B",
"S  c #E6CB1D",
"D  c #E9CE1E",
"F  c #F5D611",
"G  c #FADB15",
"H  c #F1D41B",
"J  c #FDDE1A",
"K  c #FFE01D",
"L  c #F1D422",
"P  c #F2D72E",
"I  c #F2D730",
"U  c #FFE322",
"Y  c #FFE922",
"T  c #FFE22B",
"R  c #FFE433",
"E  c #FEE43C",
"W  c #F4DC45",
"Q  c #F5DD4E",
"!  c #FFE546",
"~  c #FFE64A",
"^  c #FDE555",
"/  c #FFE964",
"(  c #F9E46E",
")  c #FFE96B",
"_  c #F9E470",
"`  c #FEEA74",
"'  c #FAE77C",
"]  c #FFEB7A",
"[  c #63AB8A",
"{  c #67B28F",
"}  c #69B693",
"|  c #6BB996",
" . c #64BF99",
".. c #6EBE99",
"X. c #66C09A",
"o. c #6CC39D",
"O. c #71C49E",
"+. c #73C7A1",
"@. c #75C9A3",
"#. c #79CBA6",
"$. c #7CCCA9",
"%. c #81CEAB",
"&. c #84D0AC",
"*. c #FFED85",
"=. c #FFED8C",
"-. c #FEED93",
";. c #FFEF99",
":. c #FEEFA1",
">. c #FFF0A3",
",. c #FFF1AB",
/* pixels */
"o.O.O.O.O.O.O.O.O.+.@.+...o.o.o.o.O.O.O.O.O.O.+.+.O.O.O.O.+.+.O.O.o.o.O.O.O.O.O.o.O.@.O.O.O.o.O.O.#.O.O.o.o.o.O.O.O.+.O.O.+.+.O.",
"O.+.+.$.$.#.+.+.@.$.$.%.+...o...+.+.+.+.+.@.#.#.#.+.+.+.$.$.$.@.X.o.X.+.+.+.+.+.+.$.$.$.@.@.@.#.$.$.#.o.o.X.O.+.+.+.+.+.#.#.$.#.",
"O.+.+.#.+.@.+.@.+.@.@.@.+.o.O.O.+.@.+.+.+.+.@.@.@.+.+.+.@.@.@.+.o.O.+.+.+.+.+.+.+.@.+.@.@.@.o.O.@.@.@.O.o.+.+.@.+.+.+.+.+.#.+.+.",
"O.+.+.+.+.+.+.+.+.+.+.+.+.+.+.+.#.$.$.#.+.+.+.+.+.+.+.+.+.+.+.+.+.+.+.@.$.$.#.+.+.+.+.+.O.@.@.@.@.@.O.@.+.+.@.#.$.#.+.+.+.+.+.+.",
"O.+.+.+.+.+.+.+.+.+.+.+.+.+.+.+.@.#.@.+.+.+.+.+.+.+.+.+.+.+.+.+.+.+.+.+.+.#.+.+.+.+.@.+.+.+.+.+.+.+.+.+.+.+.+.@.+.#.+.+.+.+.+.+.",
"O.+.+.+.+.+.+.+.+.+.+.+.+.+.+.+.+.+.+.+.+.+.+.+.+.+.+.+.+.+.+.+.+.+.+.+.+.+.+.+.+.O.+.+.+.+.+.+.o.@.+.+.+.+.+.+.+.+.+.+.+.+.+.+.",
"O.+.+.+.+.+.+.+.+.+.+.+.+.+.+.+.+.+.+.+.+.+.+.+.+.+.+.+.+.+.+.+.+.+.+.+.+.+.+.+.+.@.+.+.+.+.+.+.@.+.+.+.+.+.+.@.+.+.+.+.+.+.+.+.",
"O.O.+.+.+.+.+.+.+.+.+.+.+.+.+.+.o.X.X.O.+.+.+.+.+.+.+.+.@.+.+.+.+.+.+.o.X.X.+.+.+.+.+.+.+.+.+.+.@.+.+.+.+.+.o.o.o.o.+.+.+.+.+.+.",
"O.+.+.+.+.+.+.+.+.+.+.+.+.+.+.+.o.o.o.+.+.+.+.+.+.+.+.+.+.+.+.+.+.+.+.+.o.o.+.+.+.+.+.+.O.@.@.+.+.+.+.+.+.+.+.o.o.o.+.+.+.+.+.+.",
"O.+.+.+.+.+.+.+.+.+.+.+.+.+.+.#.$.$.@.+.+.+.+.+.+.+.+.+.+.+.+.+.+.+.#.#.#.+.+.+.+.+.+.+.@.@.+.+.+.+.+.+.+.+.#.#.+.+.+.@.+.+.+.+.",
"O.O.o.o.+.+.+.+.+.+.+.+.+.+.+.+.#.#.@.+.o.o.o.+.+.+.+.+.+.+.+.+.+.+.+.#.#.#.+.+.X.o.+.+.@.O.@.O.+.+.+.+.+.+.#.#.#.+.+.X.o.O.+.+.",
"o.X.o.o.+.+.+.+.o.O.+.+.+.+.+.+.+.+.+.O.o.o.o.+.+.+.+.o.o.O.+.+.+.+.+.+.+.+.+.o.X.o.o.+.O.@.O.o.+.@.+.+.+.+.+.+.+.+.o.o.o.o.+.+.",
"O.+.+.+.+.+.+.O.o.X.+.+.+.+.+.+.+.+.+.+.+.+.+.+.+.+.+.o.o.o.+.+.+.+.+.+.+.+.+.+.+.+.O.+.+.+.X.o.X.+.+.+.+.+.+.+.+.+.+.+.+.+.+.+.",
"O.+.+.#.$.#.+.+.+.+.+.+.+.+.+.+.+.+.+.+.+.+.#.$.$.@.+.+.+.+.+.+.+.+.+.+.+.+.+.+.+.#.$.$.@.+.@.@.+.+.+.+.+.+.+.+.+.+.+.+.+.#.&.@.",
"+.+.+.&.&.&.#.+.+.+.+.+.+.+.+.+.+.+.+.+.+.+.&.&.&.#.+.+.+.+.+.+.+.+.+.+.+.+.+.+.+.$.$.&.$.O.@.O.+.+.+.+.+.+.+.+.+.+.+.+.#.&.&.$.",
"+.+.+.+.+.+.+.+.+.+.+.+.+.+.+.+.+.+.+.+.+.+.+.@.+.+.+.+.+.+.+.+.+.+.+.+.+.+.+.+.+.+.@.@.O.@.O.@.+.+.+.+.+.+.+.+.+.+.+.+.+.+.+.+.",
"o.+.+.+.+.+.+.+.+.+.+.+.+.+.+.+.+.+.+.+.+.+.+.+.+.+.+.| y r r r r r e h +.+.+.+.+.+.+.+.+.+.+.+.+.@.+.+.@.+.+.+.+.+.+.+.+.@.@.+.",
"+.+.+.+.@.+.+.+.+.+.#.+.+.+.o.+.+.+.+.+.+.+.+.@.+.+.+.[ X             0 +.+.+.+.+.+.#.+.+.+.+.+.@.+.+.+.o.+.+.+.+.+.+.+.+.+.@.+.",
"..+.@.#.#.#.+.+.+.#.$.$.+.o.o.o.+.+.+.+.+.+.#.#.#...e < z l l l l l l 9 , h +.+.+.#.$.#.+.+.+.#.$.$.@.o.o.X.+.+.+.+.+.+.#.$.#.@.",
"+.+.+.@.@.@.+.+.+.#.@.#.+.o.o.+.+.#.+.+.+.+.#.+.+.} + % D Y Y U Y Y Y d   u +.O.+.@.@.@.+.+.+.+.#.@.@.o.+.o.@.+.@.@.+.+.+.+.@.@.",
"O.+.+.+.+.+.+.+.+.+.+.+.+.+.+.+.#.$.$.+.+.+.+.+.+.} @ # S K A F L U Y d   i +.O.+.+.+.+.+.+.+.+.@.@.+.+.+.+.+.#.$.@.+.+.@.+.+.+.",
"O.+.+.+.+.+.+.+.+.+.+.+.+.+.+.+.@.@.@.+.+.+.+.+...[ $ * S K C A T Y U k . y O.O.+.+.+.+.+.+.+.+.+.+.+.+.+.+.@.+.@.@.+.+.@.+.+.+.",
"O.+.+.+.+.+.+.+.+.+.+.+.+.+.+.+.+.+.+.+.+.+.+.o., = v N V Z J E =.) U S m 6 $ g +.+.+.+.+.+.+.+.+.+.+.+.+.+.+.+.@.+.+.+.+.+.+.+.",
"O.+.+.+.+.+.+.+.+.+.+.+.+.+.+.+.+.+.+.+.+.+.+...- o N K C V T ^ ,.] L U Y 5   f +.+.+.+.+.+.+.+.+.+.+.+.+.+.+.+.+.+.+.+.+.+.+.+.",
"O.+.+.+.+.+.+.+.+.+.+.+.+.+.+.+.o. .X.o.+.+.+...; o N U V H -.>.,.] U U U 4   a +.+.+.+.+.+.+.+.+.+.+.+.+.+.o.o.X.o.+.+.+.+.+.+.",
"O.+.+.+.+.+.+.+.+.+.+.+.+.+.+.+.o.o.X.+.+.+.+...; o M J C H =.;.,.] Y L U 4   a +.+.+.+.+.+.+.+.+.+.+.+.+.+.+.o.o.o.+.+.+.+.+.+.",
"+.+.+.+.+.+.+.+.+.+.+.+.+.+.+.@.#.#.+.+.+.+.+...; o M J B V U ~ ,.] Y U Y 4   a +.+.+.+.+.+.+.+.+.+.+.+.+.+.+.#.@.+.+.@.+.+.+.+.",
"..+...O.+.+.+.+.+.+.+.+.+.+.+.@.$.$.@.+.O.o.o...; o M U V A ! / ,.] U U U 4   p o.o.+.+.+.+.+.+.+.+.+.+.+.+.#.#.#.+.o.X.o.+.+.+.",
"..X.O.o.+.+.+.O.O.O.+.+.+.+.+.+.+.+.+.+.X.o.....; o N K C L >.,.,.] U U U 4   p o.o.o.+.+.+.+.o.+.+.+.+.+.+.+.+.+.+.o.X.X.o.@.+.",
"O.+.+.+.+.+.+.O.o.X.o.+.+.+.+.+.+.+.+.+.+.+.+...; o N K C H ) *.,.` G F G 3   p +.+.+.+.+.+.X.o.o.O.+.+.+.+.+.+.+.+.+.+.+.+.+.+.",
"O.+.+.@.@.@.@.+.+.+.+.+.+.+.+.+.+.+.+.+.+.+.+.O.; o M K C Z K ! ,._ B B C 1   a +.+.#.@.+.+.+.+.+.+.+.+.+.+.+.+.+.+.+.+.+.+.#.+.",
"O.+.+.$.%.$.@.+.+.+.+.+.+.+.+.+.+.+.+.+.+.+.$.#.; o M L V Z K ~ ,._ B B C 1   a +.#.$.&.@.+.+.+.+.+.+.+.+.+.+.+.+.+.+.+.#.$.&.$.",
"o.+.+.@.@.@.+.+.+.+.+.+.+.+.+.+.+.+.+.+.+.+.+...; o M K B A U ! ,.( B B B 1   p +.+.+.@.+.+.+.+.+.+.+.+.+.+.+.+.+.+.+.+.+.@.+.@.",
"+.+.+.+.+.+.+.+.+.+.+.+.+.+.+.+.+.+.+.+.+.+.+...; o M J C V K ! ,.( B B B 1   a +.+.+.+.+.+.+.+.+.+.+.+.+.+.+.+.+.+.+.+.+.+.+.+.",
"o.+.+.+.+.+.+.+.+.+.#.+.+.+.+.+.+.+.+.+.+.+.+...; o M K V A K ! ,.( B B C 1   a +.+.@.+.+.+.+.+.+.@.+.+.+.+.+.+.+.+.+.+.+.@.@.+.",
"O.+.+.#.#.#.+.+.@.#.$.$.+.X.X.X.+.+.+.+.+.+.#.O.; o N K C B V I ,.( B B C 1   a +.#.$.$.@.+.+.#.$.$.#.o.X.X.+.+.+.+.+.+.@.#.#.#.",
"O.+.+.#.@.@.+.+.+.@.@.@.+.o.+.+.+.@.+.+.+.+.@...; o N K V B B P ,.( B B C 1   a +.#.+.+.+.+.+.+.#.@.@.O.+.o.+.+.@.+.+.+.@.@.@.@.",
"O.+.+.+.+.+.+.+.+.+.+.+.+.+.+.+.$.$.$.#.+.+.+...; o M K B B B P ,.( B B C 1   a +.+.+.+.+.+.+.+.+.+.+.+.+.+.#.#.$.#.+.+.+.+.+.+.",
"O.+.+.+.+.+.+.+.+.+.+.@.+.+.+.+.@.#.#.+.+.+.+...; o M J B B B I ,.( B B C 1   a +.+.+.+.+.+.+.+.+.+.+.+.+.+.+.#.@.#.+.+.+.+.+.+.",
"O.+.+.+.+.+.+.+.+.+.+.+.+.+.+.+.+.+.+.+.+.+.+...; o M U B B B I :.( B B C 1   a +.+.+.+.+.+.+.+.+.+.+.+.+.+.+.+.+.+.+.+.+.+.+.+.",
"O.+.+.+.+.+.+.+.+.+.+.+.+.+.+.+.+.+.+.+.+.+.+...; o N K C B B I ,._ B B B 1   a +.+.+.+.+.+.+.+.@.+.+.+.+.@.+.@.+.+.+.+.+.+.+.+.",
"O.+.+.+.+.+.+.+.+.+.+.+.+.+.+.+.o. .o.O.+.+.+...- o N K C B B I ,._ B B C 1   p +.+.+.+.+.+.+.+.+.+.+.+.+.@.o.o.X.o.+.+.+.+.+.+.",
"O.+.+.+.+.+.+.+.+.+.+.+.+.+.+.+.o. . .o.+.+.+...q > x n V F I W ' Q B b c 6 : h +.+.+.+.+.+.+.+.+.+.+.+.+.+.o.X.X.X.@.+.+.+.+.+.",
"O.+.+.+.+.+.+.+.+.+.+.+.+.+.+.#.#.#.+.+.+.+.+.+.O.{ $ & S E >.' V B B s   t +.+.+.+.+.+.+.+.+.+.+.+.+.+.O.@.@.@.@.+.+.+.+.+.+.+.",
"o.O.o.O.+.+.+.+.+.+.+.+.+.+.+.#.#.$.+.O.O.o.o.+.+.} $ o D R ` ^ B B Z s   u +.o.X.o.O.+.+.+.+.+.+.+.+.+.+.@.#.@.#.@.O.X.o.+.@.+.",
"o.o.o.o.+.+.+.O.o.o.+.+.+.+.+.+.+.+.+.+.X.O.o.+.+.} + # D Y K K Z C Z s   t +.o.X.o.+.+.+.+.+.o.+.+.+.+.+.O.+.+.O.@.o.X.X.o.+.+.",
"O.+.+.+.+.+.+.o.X.X.o.+.+.+.+.+.+.+.+.+.+.+.+.+.o.o.y w 7 5 5 5 2 2 2 8 e j +.+.+.+.+.+.+.+.X.o.X.O.+.+.+.@.+.+.@.+.O.@.@.o.+.+.",
"O.+.+.+.$.+.+.+.+.+.+.+.+.+.+.+.+.+.+.+.+.+.+.$.#.@.@.{ O             q +.+.+.+.+.+.#.#.+.+.O.+.+.+.+.+.+.+.+.+.+.+.@.O.@.@.$.@.",
"O.+.+.%.%.%.@.+.+.+.+.+.+.+.+.+.+.+.+.+.+.+.$.&.&.#.+.X.f f f f p p f j +.+.+.+.@.#.$.$.@.+.+.+.+.+.+.+.+.+.+.+.+.+.+.+.@.$.$.$.",
"O.+.+.+.@.@.+.+.+.+.+.+.@.O.O.@.+.+.+.+.+.+.@.@.@.+.+.+.+.+.O.O.+.+.+.+.+.+.+.+.@.@.#.@.@.+.+.+.+.+.+.+.+.+.+.+.+.+.+.+.+.+.@.$.",
"O.+.+.+.+.+.+.+.+.+.+.+.+.+.+.+.+.+.+.+.+.+.+.+.+.+.+.+.+.+.+.+.+.+.@.+.+.+.+.+.+.+.+.+.+.+.+.+.+.+.+.+.+.+.+.+.+.+.+.+.+.+.+.+.",
"O.+.+.+.@.+.+.+.+.+.@.+.+.+.+.+.+.+.+.+.+.+.+.+.+.+.+.+.+.@.@.+.+.o.+.+.+.+.+.+.+.+.@.+.+.+.+.@.+.+.+.+.+.+.+.+.+.+.+.+.+.@.@.+.",
"O.+.@.#.#.#.+.+.+.$.$.$.+.o.o...+.+.+.+.+.@.@.#.#.+.+.+.#.$.#.+.X.X.o.+.+.+.+.+.+.#.$.#.@.+.+.@.$.$.#.o.o.X.+.+.+.+.+.+.@.$.$.@.",
"O.+.+.#.@.+.+.+.+.@.@.@.+.o.+.o.@.@.@.+.+.@.@.@.+.+.+.+.@.#.#.+.o.+.+.+.+.+.+.+.+.@.@.@.+.+.+.+.#.@.@.o.+.+.+.+.@.+.+.+.@.@.@.+.",
"O.+.+.+.+.+.+.+.+.+.+.+.+.+.+.+.@.$.#.@.+.+.+.+.+.+.+.+.+.+.+.+.+.+.+.@.$.$.@.+.+.+.+.+.+.+.+.+.+.+.+.+.+.+.+.#.$.@.+.+.+.+.+.+.",
"O.+.+.+.+.+.+.+.+.+.+.+.+.+.+.+.@.#.@.@.+.+.+.+.+.+.+.+.+.+.+.+.+.+.+.@.@.@.@.+.+.+.+.+.+.+.+.+.+.+.+.+.+.+.+.@.@.@.+.+.+.+.+.+.",
"O.+.+.+.+.+.+.+.+.+.+.+.+.+.+.+.+.+.+.+.+.+.+.+.+.+.+.+.+.+.+.+.+.+.+.+.+.+.+.+.+.+.+.+.+.+.+.+.+.+.+.+.+.+.+.+.@.+.+.+.+.+.+.+.",
"O.+.+.+.+.+.+.+.+.+.+.+.+.+.+.+.+.@.+.+.+.+.+.+.+.+.+.+.+.+.+.+.+.+.+.+.+.+.+.+.+.+.+.+.+.+.+.+.+.+.+.+.+.+.+.+.+.+.+.+.+.+.+.+.",
"O.+.+.+.+.+.+.+.+.+.+.+.+.+.+.+.+.X.X.+.+.+.+.+.+.+.+.+.+.+.+.+.+.+.+.o.o.X.+.+.+.+.+.+.+.+.+.+.+.+.+.+.+.+.+.X.X.+.+.+.+.+.+.+.",
"O.+.+.+.+.+.+.+.+.+.+.+.+.+.+.+.X.X.X.o.+.+.+.+.+.+.+.+.+.+.+.+.+.+.+.o.o.X.o.+.+.+.+.+.+.+.+.+.+.+.+.+.+.+.+.o.o.o.+.+.+.+.+.+.",
"O.+.+.+.+.+.+.+.+.+.+.+.+.+.+.+.@.#.+.+.+.+.+.+.+.+.+.+.+.+.+.+.+.+.@.@.@.@.@.+.+.+.+.+.+.+.+.+.+.@.+.+.+.+.@.@.+.+.+.+.+.+.+.+.",
"o.O.o.O.+.+.+.+.+.+.+.+.+.+.+.#.#.$.@.+.+.o.o.+.+.+.+.+.+.+.+.+.+.+.@.#.@.#.+.+. .o.+.+.+.+.+.+.+.+.+.+.+.+.$.@.$.+.+.X.o.o.+.+.",
"o.X.o.X.+.+.+.+.+.+.+.+.+.+.+.+.+.+.+.+.X.o.X.o.+.+.+.+.+.+.+.+.+.+.+.+.+.+.+.X. . .o.+.+.+.+.+.+.+.+.+.+.+.+.+.+.+.o. .X.o.+.+.",
"O.o.+.+.+.+.+.o.X.o.o.+.+.+.+.+.+.+.+.@.o.+.+.+.+.+.+.X.X.o.+.+.+.+.+.+.+.+.+.o.+.+.+.+.+.+.X.o.X.+.+.+.+.+.+.+.+.+.+.o.+.+.+.+."
};
