/* XPM */
static char *result[] = {
/* columns rows colors chars-per-pixel */
"64 64 190 2 ",
"   c black",
".  c #000101",
"X  c #010201",
"o  c #040300",
"O  c #020403",
"+  c #040400",
"@  c #050400",
"#  c #050401",
"$  c #090700",
"%  c #090801",
"&  c #0C0A00",
"*  c #0C0B00",
"=  c #0D0B01",
"-  c #0D0B02",
";  c #100E00",
":  c #161300",
">  c #171402",
",  c #181503",
"<  c #15261F",
"1  c #162921",
"2  c #172A21",
"3  c #182A22",
"4  c #192A23",
"5  c #192B23",
"6  c #1A2D25",
"7  c #1F382D",
"8  c #20372C",
"9  c #20382E",
"0  c #21392E",
"q  c #223A2F",
"w  c #223A30",
"e  c #233C31",
"r  c #2B4B3D",
"t  c #2C4C3D",
"y  c #2D4D3F",
"u  c #4E450A",
"i  c #554B0B",
"p  c #64580D",
"a  c #64590D",
"s  c #3A6653",
"d  c #41705B",
"f  c #857300",
"g  c #907D00",
"h  c #528D72",
"j  c #528E73",
"k  c #599B7D",
"l  c #AB9400",
"z  c #BBA200",
"x  c #BBA201",
"c  c #BEA400",
"v  c #CAAF00",
"b  c #CAAF01",
"n  c #CDB200",
"m  c #C5AD13",
"M  c #C9B11A",
"N  c #C9B21A",
"B  c #CAB21A",
"V  c #D5BB14",
"C  c #D9C01C",
"Z  c #DAC01C",
"A  c #DAC11C",
"S  c #DAC01D",
"D  c #EFCF00",
"F  c #F0CF01",
"G  c #F0D000",
"H  c #F1D001",
"J  c #F3D200",
"K  c #F4D300",
"L  c #FCDD18",
"P  c #FDDE18",
"I  c #FFE321",
"U  c #FFE322",
"Y  c #FFE421",
"T  c #FFE422",
"R  c #FFE522",
"E  c #5C9E80",
"W  c #61B692",
"Q  c #64B894",
"!  c #67BA96",
"~  c #68BA96",
"^  c #63BF99",
"/  c #66BD98",
"(  c #64BF99",
")  c #65BF99",
"_  c #67BE99",
"`  c #6DBD99",
"'  c #65C099",
"]  c #65C09A",
"[  c #66C09A",
"{  c #67C09A",
"}  c #67C19B",
"|  c #68C19B",
" . c #69C19B",
".. c #6BC09B",
"X. c #6BC19B",
"o. c #68C29B",
"O. c #6CC19B",
"+. c #6EC09B",
"@. c #6FC09B",
"#. c #69C29C",
"$. c #6AC29C",
"%. c #6BC29C",
"&. c #6AC39C",
"*. c #6BC39D",
"=. c #6DC19C",
"-. c #6CC39D",
";. c #6EC29C",
":. c #6EC29D",
">. c #6FC29D",
",. c #6FC39D",
"<. c #6CC49E",
"1. c #6DC49E",
"2. c #6EC49E",
"3. c #6EC49F",
"4. c #6EC59F",
"5. c #6FC59F",
"6. c #70C39E",
"7. c #71C39E",
"8. c #71C49E",
"9. c #71C49F",
"0. c #70C59F",
"q. c #72C49F",
"w. c #72C59F",
"e. c #72C4A0",
"r. c #73C4A0",
"t. c #72C5A0",
"y. c #73C5A0",
"u. c #70C6A0",
"i. c #71C6A0",
"p. c #71C6A1",
"a. c #72C6A0",
"s. c #72C7A0",
"d. c #72C6A1",
"f. c #72C7A1",
"g. c #73C7A1",
"h. c #73C7A2",
"j. c #74C5A1",
"k. c #74C6A1",
"l. c #74C7A1",
"z. c #74C6A2",
"x. c #75C6A2",
"c. c #74C7A2",
"v. c #76C7A3",
"b. c #77C7A4",
"n. c #78C7A5",
"m. c #74C8A2",
"M. c #75C8A2",
"N. c #74C8A3",
"B. c #75C8A3",
"V. c #75C9A3",
"C. c #76C8A3",
"Z. c #76C9A3",
"A. c #76C9A4",
"S. c #77C9A4",
"D. c #77C9A5",
"F. c #77CAA5",
"G. c #77CAA6",
"H. c #78CAA4",
"J. c #78CAA5",
"K. c #79CAA5",
"L. c #7ACAA5",
"P. c #78CAA6",
"I. c #78CBA6",
"U. c #79CBA7",
"Y. c #7ACAA6",
"T. c #7ACBA6",
"R. c #7BCBA6",
"E. c #7BCBA7",
"W. c #7CCBA7",
"Q. c #7CCCA7",
"!. c #79CBA8",
"~. c #7ACBA8",
"^. c #7ACCA8",
"/. c #7ACCA9",
"(. c #7BCCA9",
"). c #7BCDA9",
"_. c #7DCCA8",
"`. c #7ECCA8",
"'. c #7ECDA8",
"]. c #7ECDA9",
"[. c #7FCDA9",
"{. c #7CCDAA",
"}. c #80CDAA",
"|. c #80CEAA",
" X c #81CEAA",
".X c #81CEAB",
"XX c #82CEAB",
"oX c #82CFAB",
"OX c #83CFAC",
"+X c #84D0AC",
/* pixels */
"@.8.9.q.k.e.8.8.9.y.b.y.8.>.O.:.7.8.8.8.8.8.q.k.y.8.8.8.q.v.j.9.,...:.7.8.8.8.8.8.q.b.y.q.8.7.q.z.v.q.6.X.;.6.8.8.8.8.8.9.v.k.q.",
"7.g.B.^.U.P.g.g.m.(.).{.p.{ &.#.g.g.g.g.g.m.^.G.U.m.g.g.U.{.{.N.[ *.| f.g.g.g.g.g.^./.!.B.g.g.F.{.{.U.$.*.} u.g.g.g.g.g.F.).U.F.",
"7.g.c.A.m.m.g.g.g.A.B.A.a.1.i.i.g.V.m.g.g.g.A.m.m.g.g.g.B.V.A.g.1.i.u.g.m.B.g.g.g.A.m.B.g.g.g.c.A.A.B.5.i.0.g.m.A.g.g.g.B.V.m.c.",
"7.g.g.g.g.g.g.g.g.g.g.g.g.g.g.g.P.).(.A.g.g.g.g.g.g.g.g.g.g.g.g.g.g.g.D.U.(.A.g.g.g.g.g.g.g.g.g.g.g.g.g.g.g.A.U.).F.g.g.g.g.g.g.",
"7.g.g.g.g.g.g.g.g.g.g.g.g.g.g.g.B.A.A.m.g.g.g.g.g.g.g.g.g.g.g.g.g.g.g.m.B.A.B.g.g.g.g.g.g.g.g.g.g.g.g.g.g.g.g.B.B.V.g.g.g.g.g.g.",
"7.g.g.g.g.g.g.g.g.g.g.g.g.g.g.g.g.g.g.g.g.g.g.g.g.g.g.g.g.g.g.g.g.g.g.g.g.g.g.g.g.g.g.g.g.g.g.g.g.g.g.g.g.g.g.g.g.g.g.g.g.g.g.g.",
"7.g.g.g.g.g.g.g.g.g.g.g.g.g.g.g.g.a.g.g.g.g.g.g.g.g.g.g.g.g.g.g.g.g.g.g.f.a.g.g.g.g.g.g.g.g.g.g.g.g.g.g.g.g.g.g.a.g.g.g.g.g.g.g.",
"7.g.g.g.g.g.g.g.g.g.g.g.g.g.g.g.1.' | 5.g.g.g.g.g.g.g.g.g.g.g.g.g.g.g.5.#.[ 0.g.g.g.g.g.g.g.g.g.g.g.g.g.g.g.0.$.) 2.g.g.g.g.g.g.",
"7.g.g.g.g.g.g.g.g.g.g.g.g.g.g.g.3.1.$.i.g.g.g.g.g.g.g.g.g.g.g.g.g.g.g.u.5.*.5.g.g.g.g.g.g.g.g.g.g.g.g.g.g.g.i.4.1.1.g.g.g.g.g.g.",
"7.g.g.g.g.g.g.g.g.g.g.g.g.g.g.A.(.^.B.g.g.g.g.g.g.g.g.g.g.g.g.g.g.g.V.I.F.A.g.g.g.g.g.g.g.g.g.g.g.g.g.g.g.m.I.P.A.c.g.g.g.g.g.g.",
">.5.-.2.g.g.g.g.g.g.g.g.g.g.g.A.P.U.A.a.5.-.1.f.g.g.g.g.g.g.g.g.g.g.B.P.D.P.g.5.] 1.i.g.g.g.g.g.g.g.g.g.g.m.P.A.U.g.i.} %.5.g.g.",
"=.#.1.*.g.g.g.5.-.2.i.g.g.g.g.g.g.g.g.a.| 1.$.f.g.g.i.1.-.0.g.g.g.g.g.g.g.g.g.$.| $.i.g.g.f.0.-.0.f.g.g.g.g.g.g.g.g.-.| $.2.g.g.",
"7.f.g.g.g.g.g.1.*.$.1.g.g.g.g.g.g.g.g.g.f.g.g.g.g.g.u.$.*.*.g.g.g.g.g.g.g.g.g.f.g.g.g.g.g.a.| 1.| f.g.g.g.g.g.g.g.g.g.g.g.g.g.g.",
"7.g.c.K.`.K.M.g.g.f.g.g.g.g.g.g.g.g.g.g.g.g.H.[.W.S.g.g.g.g.g.g.g.g.g.g.g.g.g.g.g.S._._.M.g.f.g.f.g.g.g.g.g.g.g.g.g.g.g.C.T. XZ.",
"7.g.m.OX.X+XS.g.g.g.g.g.g.g.g.g.g.g.g.g.g.g.|.OX+XQ.g.g.g.g.g.g.g.g.g.g.g.g.g.g.g._.|.OXY.g.g.g.g.g.g.g.g.g.g.g.g.g.g.g.J.|.XX}.",
"7.g.g.M.B.C.g.g.g.g.g.g.g.g.g.g.g.g.g.g.g.g.m.B.C.g.g.8.k h j j j j h E t.g.g.g.g.l.m.B.m.g.g.g.g.g.g.g.g.g.g.g.g.g.g.g.g.m.m.C.",
"7.g.g.g.g.g.g.g.g.g.g.g.g.g.g.g.g.g.g.g.g.g.g.g.g.g.g.` 6 X O O O O . e 7.g.g.g.g.g.g.g.g.g.g.g.g.g.g.g.g.g.g.g.g.g.g.g.g.g.g.g.",
"7.g.g.c.B.g.g.g.g.g.F.m.g.a.5.g.g.g.g.g.g.g.g.V.g.g.g.` 3 % i p a u # 0 7.g.g.g.g.g.F.c.g.g.g.g.B.A.g.g.5.f.g.g.g.g.g.g.g.D.B.g.",
"7.g.B.P.U.P.g.g.m.U.{.^.f.$.#.$.g.g.g.g.g.m.F.P.U.m.g.` 5 , A Y R B - 0 7.g.g.g.g.P.{.U.B.g.g.F.(.{.P.-.$.| 0.g.g.g.g.g.A.{.~.F.",
"7.g.c.A.B.B.g.g.g.A.A.F.d.1.u.0.g.A.m.g.g.g.D.m.B.g.g.` 5 , Z I Y M - 0 r.V.g.g.g.A.B.V.g.g.g.m.D.A.B.2.u.5.g.m.A.g.g.g.B.A.B.m.",
"7.g.g.g.g.g.g.g.g.g.g.g.g.g.g.g.P.).(.A.g.g.g.g.g.g.g.` 3 , C I Y M - q b.(.A.g.g.g.g.g.g.g.g.g.g.g.g.g.g.g.A.U.).F.g.g.g.g.g.g.",
"7.g.g.g.g.g.g.g.g.g.g.g.g.g.g.g.B.B.A.c.g.g.g.g.g.g.g.` 3 , C I Y M - 0 q.V.m.g.g.g.g.g.g.g.g.g.g.g.g.g.g.g.g.B.B.B.g.g.g.g.g.g.",
"7.g.g.g.g.g.g.g.g.g.g.g.g.g.g.g.g.g.g.g.g.g.g.g.g.g.g.` 3 , C I Y M - 0 7.g.g.g.g.g.g.g.g.g.g.g.g.g.g.g.g.g.g.g.g.g.g.g.g.g.g.g.",
"7.g.g.g.g.g.g.g.g.g.g.g.g.g.g.g.g.i.f.g.g.g.g.g.g.g.g.` 3 , C I Y M - 0 6.a.g.g.g.g.g.g.g.g.g.g.g.g.g.g.g.g.g.g.i.g.g.g.g.g.g.g.",
"7.g.g.g.g.g.g.g.g.g.g.g.g.g.g.g.1.( | 2.g.g.g.g.g.g.g.` 3 , C I Y M - 7 / ] 5.g.g.g.g.g.g.g.g.g.g.g.g.g.g.g.5.#.( 2.g.g.g.g.g.g.",
"7.g.g.g.g.g.g.g.g.g.g.g.g.g.g.g.-.*.#.0.g.g.g.g.g.g.g.` 3 , C I Y M - 9 ..$.2.g.g.g.g.g.g.g.g.g.g.g.g.g.g.g.i.1.-.-.g.g.g.g.g.g.",
"7.g.g.g.g.g.g.g.g.g.g.g.g.g.g.B.I.I.m.g.g.g.g.g.g.g.g.` 3 , C I Y M - q j.m.g.g.g.g.g.g.g.g.g.g.g.g.g.g.g.c.A.D.B.g.g.g.g.g.g.g.",
">.0.-.5.g.g.g.g.g.g.g.g.g.g.g.A.U.~.A.a.0.-.2.f.g.g.g.` 3 , C I Y M - w x.P.g.0.[ 2.a.g.g.g.g.g.g.g.g.g.g.m.P.A.U.g.i.| *.0.g.g.",
"=.o.-.$.g.g.g.0.1.5.i.g.g.g.g.g.g.g.g.a.| 1.#.f.g.g.i.~ 2 , C I Y M - 0 7.g.g.#.} #.i.g.g.f.u.1.u.f.g.g.g.g.g.g.c.g.-.{ #.2.g.g.",
"7.s.g.g.g.g.g.1.*.$.1.g.g.g.g.g.g.g.g.g.a.g.g.g.g.g.0.Q 1 , S U T N - 0 7.g.g.f.g.g.g.g.g.a.| -.| a.g.g.g.g.g.g.g.g.f.f.g.g.g.g.",
"7.g.g.M.K.B.l.g.g.f.g.g.g.g.g.g.g.g.g.g.g.g.m.Y.S.c.g.` 3 > V L P m = 0 7.g.g.g.g.m.J.K.g.g.a.g.a.g.g.g.g.g.g.g.g.g.g.g.c.C.R.m.",
"7.g.l.[. X|.B.g.g.g.g.g.g.g.g.g.g.g.g.g.g.g._.oXoXK.g.` 3 : b F H x & 0 7.g.g.g.g.Y.'..XJ.g.g.g.g.g.g.g.g.g.g.g.g.g.g.g.Z._. X`.",
"7.g.g.M.M.B.g.g.g.g.g.g.g.g.g.g.g.g.g.g.g.g.m.M.B.g.g.` 3 : v D G z & 0 7.g.g.g.g.l.c.M.m.g.g.g.g.g.g.g.g.g.g.g.g.g.g.g.g.m.m.B.",
"7.g.g.g.g.g.g.g.g.g.g.g.g.g.g.g.g.g.g.g.g.g.g.g.g.g.g.` 3 : v D G z & 0 7.g.g.g.g.g.g.g.g.g.g.g.g.g.g.g.g.g.g.g.g.g.g.g.g.g.g.g.",
"7.g.g.g.m.g.g.g.g.g.A.c.g.f.i.g.g.g.g.g.g.g.g.m.g.g.g.` 3 : v D G z & 0 7.g.g.g.g.g.A.c.g.g.g.g.m.B.g.g.u.f.g.g.g.g.g.g.g.B.m.g.",
"7.g.B.P.U.P.g.g.m.U.{.^.f.$.$.#.g.g.g.g.g.m.P.P.U.m.g.` 5 : v D G z & 0 7.g.g.g.g.P.).U.B.g.g.F.(.).P.-.$.| 0.g.g.g.g.g.A.(.U.F.",
"7.g.c.A.B.m.g.g.g.A.V.A.d.1.i.u.g.B.m.g.g.g.A.m.B.g.g.` 4 : v D G z & 0 q.B.g.g.g.A.B.B.g.g.g.m.A.A.B.5.i.5.g.m.V.g.g.g.B.A.B.m.",
"7.g.g.g.g.g.g.g.g.g.g.g.g.g.g.g.P.{.(.A.g.g.g.g.g.g.g.` 3 : v D G z & q n.(.A.g.g.g.g.g.g.g.g.g.g.g.g.g.g.g.A.U.{.F.g.g.g.g.g.g.",
"7.g.g.g.g.g.g.g.g.g.g.g.g.g.g.g.D.F.U.m.g.g.g.g.g.g.g.` 3 : v D G z & 0 j.P.A.g.g.g.g.g.g.g.g.g.g.g.g.g.g.g.c.A.A.F.g.g.g.g.g.g.",
"7.g.g.g.g.g.g.g.g.g.g.g.g.g.g.g.g.g.g.g.g.g.g.g.g.g.g.` 3 : v D G z & 0 7.g.g.g.g.g.g.g.g.g.g.g.g.g.g.g.g.g.g.g.g.g.g.g.g.g.g.g.",
"7.g.g.g.g.g.g.g.g.g.g.g.g.g.g.g.g.a.g.g.g.g.g.g.g.g.g.` 3 : v D G z & 0 6.a.g.g.g.g.g.g.g.g.g.g.g.g.g.g.g.g.g.g.a.g.g.g.g.g.g.g.",
"7.g.g.g.g.g.g.g.g.g.g.g.g.g.g.g.1.) #.2.g.g.g.g.g.g.g.` 3 : v D G z & 7 / [ 0.g.g.g.g.g.g.g.g.g.g.g.g.g.g.g.5.$.( 5.g.g.g.g.g.g.",
"7.g.g.g.g.g.g.g.g.g.g.g.g.g.g.g.#.[ ( 1.g.g.g.g.g.g.g.` 3 : v D G z & 7 _ [ -.g.g.g.g.g.g.g.g.g.g.g.g.g.g.g.2.| } $.g.g.g.g.g.g.",
"7.g.g.g.g.g.g.g.g.g.g.g.g.g.g.B.P.P.g.g.g.g.g.g.g.g.g.` 3 : v D G z & q j.m.g.g.g.g.g.g.g.g.g.g.g.g.g.g.g.c.A.A.m.f.g.g.g.g.g.g.",
">.5.-.2.g.g.g.g.g.g.g.g.g.g.g.A.I.U.A.a.0.-.2.f.g.g.g.` 3 : n J K c * w x.P.g.5.] 1.i.g.g.g.g.g.g.g.g.g.g.m.P.A.U.g.i.} *.0.g.g.",
"=.#.1.*.g.g.g.5.-.4.i.g.g.g.g.g.g.g.g.a.| 1.$.f.g.g.i.! 2 ; g l l f $ 0 7.g.g.#.| $.i.g.g.a.u.-.u.f.g.g.g.g.g.g.g.g.-.} $.2.g.g.",
"7.f.g.g.g.g.g.$. .#.-.g.g.g.g.g.g.g.g.g.f.g.g.g.g.g.4.W <   + @ @ o   8 7.g.g.f.g.g.g.g.g.i.} *.} a.g.g.g.g.g.g.g.g.g.g.g.g.g.g.",
"7.g.g.M.T.C.c.g.a.i.a.g.g.g.g.g.g.g.g.g.g.g.M.R.H.m.g.+.s r y y y y t d w.g.g.g.g.m.K.L.g.g.0.a.0.g.g.g.g.g.g.g.g.g.g.g.m.Z.Q.m.",
"7.g.m.|..XoXZ.g.g.g.g.g.g.g.g.g.g.g.g.g.g.g.].OXOXT.g.g.g.g.g.g.g.g.g.g.g.g.g.g.g.E.[.oXK.g.g.g.g.g.g.g.g.g.g.g.g.g.g.g.S.[.oX].",
"7.g.g.B.C.Z.g.g.g.g.g.g.g.g.g.g.g.g.g.g.g.g.M.C.Z.l.g.g.g.g.g.g.g.g.g.g.g.g.g.g.g.c.m.C.m.g.g.g.g.g.g.g.g.g.g.g.g.g.g.g.g.M.M.Z.",
"7.g.g.g.g.g.g.g.g.g.g.g.g.g.g.g.g.g.g.g.g.g.g.g.g.g.g.g.g.g.g.g.g.g.g.g.g.g.g.g.g.g.g.g.g.g.g.g.g.g.g.g.g.g.g.g.g.g.g.g.g.g.g.g.",
"7.g.g.g.m.g.g.g.g.g.B.g.g.g.i.g.g.g.g.g.g.g.g.m.g.g.g.g.g.B.m.g.g.i.g.g.g.g.g.g.g.g.B.g.g.g.g.g.m.B.g.g.i.g.g.g.g.g.g.g.g.B.m.g.",
"7.g.B.F.U.P.g.g.m.U.{.^.f.%.$.$.g.g.g.g.g.m.F.P.I.c.g.g.F.).^.N.*.$.#.a.g.g.g.g.g.F.).U.B.g.g.D.(.(.P.-.$.#.u.g.g.g.g.g.A.(.U.F.",
"7.g.m.D.B.B.g.g.g.A.A.F.d.-.0.5.g.B.c.g.g.g.D.m.V.g.g.g.A.A.F.h.-.u.5.g.m.m.g.g.g.A.B.V.g.g.g.m.F.A.V.2.0.4.f.g.B.g.g.g.B.A.B.m.",
"7.g.g.g.g.g.g.g.g.g.g.g.g.g.g.g.A.).U.B.g.g.g.g.g.g.g.g.g.g.g.g.g.g.g.B.U.(.B.g.g.g.g.g.g.g.g.g.g.g.g.g.g.g.B.P.{.V.g.g.g.g.g.g.",
"7.g.g.g.g.g.g.g.g.g.g.g.g.g.g.g.A.F.P.m.g.g.g.g.g.g.g.g.g.g.g.g.g.g.g.B.A.F.V.g.g.g.g.g.g.g.g.g.g.g.g.g.g.g.m.A.D.A.g.g.g.g.g.g.",
"7.g.g.g.g.g.g.g.g.g.g.g.g.g.g.g.g.g.g.g.g.g.g.g.g.g.g.g.g.g.g.g.g.g.g.g.g.g.g.g.g.g.g.g.g.g.g.g.g.g.g.g.g.g.g.g.g.g.g.g.g.g.g.g.",
"7.g.g.g.g.g.g.g.g.g.g.g.g.g.g.g.g.g.g.g.g.g.g.g.g.g.g.g.g.g.g.g.g.g.g.g.g.g.g.g.g.g.g.g.g.g.g.g.g.g.g.g.g.g.g.g.g.g.g.g.g.g.g.g.",
"7.g.g.g.g.g.g.g.g.g.g.g.g.g.g.g.0.| *.0.g.g.g.g.g.g.g.g.g.g.g.g.g.g.g.0.*.| i.g.g.g.g.g.g.g.g.g.g.g.g.g.g.g.i.<.{ u.g.g.g.g.g.g.",
"7.g.g.g.g.g.g.g.g.g.g.g.g.g.g.g.$.{ ] 2.g.g.g.g.g.g.g.g.g.g.g.g.g.g.g.1.$.{ 1.g.g.g.g.g.g.g.g.g.g.g.g.g.g.g.5.#.| $.g.g.g.g.g.g.",
"7.g.g.g.g.g.g.g.g.g.g.g.g.g.g.M.P.G.g.g.g.g.g.g.g.g.g.g.g.g.g.g.g.g.m.A.A.c.g.g.g.g.g.g.g.g.g.g.g.g.g.g.g.c.A.A.m.g.g.g.g.g.g.g.",
">.u.1.5.g.g.g.g.g.g.g.g.g.g.g.A.U.^.A.a.i.<.4.f.g.g.g.g.g.g.g.g.g.g.B.P.F.P.g.0.[ 2.i.g.g.g.g.g.g.g.g.g.g.m.I.D.U.g.i.| -.0.g.g.",
"O.| $.{ g.g.g.a.0.i.g.g.g.g.g.g.g.g.g.i.| *.[ i.g.g.f.i.5.f.g.g.g.g.g.g.g.g.g.| ^ [ 5.g.g.g.f.5.f.g.g.g.g.g.g.g.c.g.*.( [ *.g.g.",
"6.5.a.a.g.g.g.*.| #.1.g.g.g.g.g.g.g.g.g.5.a.i.g.g.g.5.}  .$.g.g.g.g.g.g.g.g.g.0.i.i.g.g.g.i.| $. .a.g.g.g.g.g.g.g.g.i.0.i.f.g.g."
};
