/* XPM */
static char *result[] = {
/* columns rows colors chars-per-pixel */
"64 64 102 2 ",
"   c #010101",
".  c #050907",
"X  c #0D0D04",
"o  c #070C0A",
"O  c #080D0A",
"+  c #0B130F",
"@  c #12140B",
"#  c #0C1410",
"$  c #322C06",
"%  c #1B2F26",
"&  c #20372D",
"*  c #473E00",
"=  c #453D09",
"-  c #3A411D",
";  c #3B4B27",
":  c #254034",
">  c #274739",
",  c #4B4106",
"<  c #4C430A",
"1  c #5C4F00",
"2  c #5E5200",
"3  c #4E511D",
"4  c #63570D",
"5  c #6C5F0E",
"6  c #766600",
"7  c #7C6C09",
"8  c #7E7012",
"9  c #4B5D33",
"0  c #4D622F",
"q  c #58652E",
"w  c #4C673F",
"e  c #325645",
"r  c #396451",
"t  c #3E6B56",
"y  c #467A62",
"u  c #50866A",
"i  c #50896E",
"p  c #508B70",
"a  c #559276",
"s  c #599A7C",
"d  c #9B8914",
"f  c #A69001",
"g  c #AC9A19",
"h  c #C3A900",
"j  c #C7AF14",
"k  c #C2AC1C",
"l  c #CAB21B",
"z  c #D7BD15",
"x  c #ECCC00",
"c  c #EFD007",
"v  c #F3D40C",
"b  c #E1C61D",
"n  c #F4D614",
"m  c #F9DA14",
"M  c #F3D619",
"N  c #FBDC19",
"B  c #FFE11F",
"V  c #F0D420",
"C  c #FBDD21",
"Z  c #F3D72C",
"A  c #F3D935",
"S  c #F3DA3B",
"D  c #FFE322",
"F  c #FFE22A",
"G  c #FFE53F",
"H  c #F5DD4B",
"J  c #F6DE51",
"K  c #FFE546",
"L  c #FDE44D",
"P  c #FFE754",
"I  c #FDE65C",
"U  c #FFE85D",
"Y  c #F7E161",
"T  c #FFE962",
"R  c #FFE968",
"E  c #FFEB75",
"W  c #FAE77C",
"Q  c #5D9D80",
"!  c #5DA384",
"~  c #62A385",
"^  c #63A488",
"/  c #63AC8B",
"(  c #66B18F",
")  c #67B290",
"_  c #68B391",
"`  c #64BF99",
"'  c #6FBF9B",
"]  c #66C09A",
"[  c #6CC39D",
"{  c #71C49E",
"}  c #73C7A1",
"|  c #75C9A3",
" . c #79CBA6",
".. c #7CCCA9",
"X. c #81CEAB",
"o. c #84D0AC",
"O. c #FFEE8D",
"+. c #FFEE92",
"@. c #FFEF9C",
"#. c #FFF0A3",
"$. c #FFF2AE",
"%. c #FFF2B1",
/* pixels */
"[ { { { { } { { { { | } { ' [ { [ { { { { { { | { { { { } | { { { [ [ { { { { { { {  .} { { { { |  .{ [ [ [ [ { { { } { {  .} { ",
"{ } } .. ...} } } X.....} ` [ ' } } } } } }  . . .| } }  .....| ] [ ] { | } } } } .. . . .} {  .......[ [ ] { } } } } } | ..|  .",
"{ } }  .| } } } } | }  .{ { { { | | | } } } | | | } } } | | | } [ { } | | | } } } | } | } } } }  .| { { { } } | | } } } | | | } ",
"{ } } } } } } } } } } } } } } }  ... .| } } } } } } } } } } } } } } | |  ...| } } } } } } } } } } | { | } } |  ...| } } } } } } ",
"{ } } } } } } } } } } } } } } } | | | | } } } } } } } } } } } } } } } } | | | } } } } } } } } } } } } } } } } |  .| } } } } } } ",
"{ } } } } } } } } } } } } } } } } | } } } } } } } } } } } } } } } } } } } } } } } } } } } } } } } } } } } } } } } } } } } } } } ",
"{ } } } } | } } } } } } } } } } | { | | } } } } } } } } } } } } } } } } | { } } } } } } } } } } } } } } } } } } { } } } } } } } ",
"' } } } } } } } } } } } } } } } [ ` ] [ } } } } } } } } } } } } } } } } ] ] { } } } } } } } } } } } } } } } { [ ] [ } } } } } } ",
"} } } } } } } } } } } } } } } } [ [ [ } } } } } } } } } } } } } } } } } } ] } } } } } } } } } } } } } } } } } { [ { } } } } } } ",
"{ } } } } } } } } } } } } } } | ....| } } } } } } } } } } } } } } } |  . .| } } } } } } } } } } } } } } } } |  .| } } } } } } } ",
"[ { [ [ } } } } } } } } } } }  . . . .{ { [ [ } } } } } } } } } } } | | |  .} } ` [ } } } } } } } } } } } |  .|  .} } ] [ } } } ",
"[ [ [ [ } } } } [ { } } } } } } } } } } [ [ [ } } } { { [ { } } } } } | } } } ] ] ] } } } } } [ } } } } } } } } | } [ [ ] [ } } ",
"{ } } } } } } [ [ [ [ } } } } } } } } } } } } } } } } [ [ [ } } } } } } } } } } | } } } } } [ [ ] } } } } } } } } } } } } | } } ",
"{ } }  .....| } } } } } } } } } } } } } } {  .....| } { | } } } } } } } } } } } } | ....| } } } } } } } } } } } } } } } } | ..| ",
"{ } } X...o.| } } } } } } } } } } } } } } } o.o.o...} } } } } } } } } } } } } } }  ...o. .} } } } } } } } } } } } | } }  ...o.o.",
"{ } } | | | } } } } } } } } } } } } } } } } } } | } } } { | } { } } } } } } } } } } | | } } } } } } } } } } } } } } } } | } } | ",
"{ } } } } } } } | } } } } } } } } } } } } } } } } } } ! r r r r r r t ! } { } { } } } } } } } } } } } } } } } } } } } } } } } } ",
"{ } } } } } } } } } | | } } [ } } } } } } } } | } } } y               a } | } | } | | } } | } } | | } } [ } } } } } } } } | | } ",
"{ } } .... .} } |  .....} [ ] [ } } } } } }  . . .~ e q d d d d d d d 9 e ( } } }  ... .| } } | ....| [ [ ] } } } } } } | .. . .",
"{ } } | } | } } } | |  .} [ } { } | } } } }  .} } i   4 D D D D D D B , O ! } { } | | | } } } } | | | } } [ } | | | } } | | | | ",
"{ } } } } } } } } } } } } } } }  .....| } } } } } p   4 D D D m v m C = . ! } | } } } } } } } } } } } } } } |  ...| } } | } } } ",
"{ } } } } } } } } } } } } } } } } | | } } } } } ' u X 5 D C F n c m N < @ s [ { } } } } } } } } } } } } } } } | | | } } } } } } ",
"{ } } } } } } } } } } } } } } } } } } } } } } ! % 3 l b C P +.L B v c z k - & ) } } } } } } } } | } } } } } } } | } } } } } } } ",
"' } } } } } } } } } } } } } } } } } } } } } } s . < C D D T $.R F n x N B $ # ( } } } } } } } } } } } } } } } } } } } } } } } } ",
"} } } } } } } } } } } } } } } } [ ] ] { } } } s . < D D B T $.#.@.A x N V $ # / } } } } } } } } } } } } } } { [ ` [ } } } } } } ",
"{ } } } } } } } } } } } } } } } [ [ [ { } } } s . < C D B T $.@.O.A x N V $ # / } } } } } } } } } } } } } } } [ [ [ } } } } } } ",
"{ } } } } } } } } } } } } } } |  . .} } } } { s . < C C B T $.U F v x N V $ # / } } } } } } } } } } } } } } }  .| } } } } } } } ",
"' } ' } } } } } } } } } } } } }  ...} } { [ [ s . < C D B T $.E K n x N V $ # ! ] [ } } } } } } } } } } } }  . . .} } ] [ } } } ",
"' [ [ [ } } } } [ } } } } } } } } } } } ] [ [ s . < C D D T $.$.$.S x N V $ # ! ] [ } } } } } [ } } } } } } } } } } [ ] ] [ | } ",
"[ } } } } } } [ [ [ [ } } } } } } } } } } } } s . , n n n I $.O.E Z x N V $ # ( } } } } } } ] [ ] } } } } } } } } } } } } } } } ",
"{ } } }  .} } } } } } } } } } } } } } } } } } Q . * x x x J $.U B c x N V $ # / } | |  .} } { } } } } } } } } } } } } } } | | | ",
"{ } } X.X.X.} } } } } } } } } } } } } } } } ..^ . * x x x J $.U B v x B V $ # / | ......| } } } } } } } } } } } } } } }  ...o...",
"} } } | | } } } } } } } } } } } } } } } } } | s   * x x x J $.U B v x m V $ # / } } | | } } } } } } } } } } } } } } } } } | } | ",
"[ } } } } } } } } } } } } } } } } } } } } } } s . * x x x J $.U B v c m V $ + ( } } } } } } } } } } } } } } } } } } } } } } } } ",
"{ | } } } } } } } } | } } } } } } } } } } } | s . * x x x J %.U B v c N V $ + / } } | } } } } | } | } } [ } } } } } } } } | | } ",
"{ } }  . ...} } } .... .} ] [ ] } } } | { | ..s . * x x x J %.U B v c m V $ + / }  .....| } } | .... .[ [ [ } } } } } } | .. .| ",
"{ } } | } } } } }  .}  .} [ } } } | | }  .{  .s . * x x x J $.U B v x N V $ # / } | | | } } } } | | | { } { } } | } } } |  .} | ",
"{ } } } } } } } } } } | } } } }  .....| { | { s . * x x x J $.H c c x N V $ # / } } } } } } } } } } } } } } }  ... .} } } } } } ",
"{ } } } } } } } } } } } } } } }  .|  .| | { { s . , x x x J %.H x x c m V $ # / } } } } } } } } } } } } } } }  .|  .} } } } } } ",
"{ } } } } } } } } } } } } } } } } } } } { | { s . $ x x x J %.H x x c N V $ # / } } } } } } } } } } } } } } } } } } } } } } } } ",
"{ { } } } } } } } } } } } } } } } { } } } } } s o * x x x L %.H x x x N V $ # / } } } } } } } } } } } } } } } } } } } } } } } } ",
"{ | } } } } } } } } } } } } } } [ ] [ [ } } { s   * x x x J %.H x x x B V $ # / } } } } } } } } } } } } } | [ [ ] [ } } } } } } ",
"{  .{ } } } } } } } } } } } } } [ ] ] [ } } | / : 3 f h x S W J Z M c j g ; > _ } } } } } } } } } } } } } } [ [ ] [ } } } } } } ",
"[ { } } } } } } } } } } } } } }  .| | } } | { [ } p   2 x x x Y $.P N , o ! { } } } } } } } } } } } } } } | | | | } } } } } } } ",
"{ [ [ { } } } } } } } } } } | |  . .| { { [ [ } } p   1 x x x K W G N = o ! } { ] [ } } } } } } } } } } } }  .|  .} } ] [ [ | } ",
"[ [ [ [ } } | { [ } } } } } } } } } } } [ [ [ } } p   2 c c x m D B B = . Q } ] ] [ } } } } } [ [ | } } } } } } } } [ [ [ [ } } ",
"{ } } } } { } [ ] ] [ } } } } } } } } } } } } } } / r 0 6 6 6 7 8 8 8 w t _ } } } } } } } [ [ [ ] } } } } } } } } } } } } } } } ",
"{ } }  .|  .} } } } } } } } } } } } } } } } |  . .} } y             . a } } } } } }  . .} } [ } } } } } } } } } } } } } } } ..| ",
"{ } } o...o.| } } } } } } } } } } } } } } } ....o.| | / u y y u t u u _ } } } } }  .....| } } } } } } } } } } } } } } } | ......",
"[ } } } |  .} } } } } } } } } } } } } } } } }  ...| } } } } [ { } { { } } } } } }  .| | | } } } } } } } } } } } } } } } | } | ..",
"{ } } } } } } } | } } } } } } } } } } } } } } } } } } } } } } } } } } } } } } } } } } } } | } } } } } } } } } } } } } } } { } } ",
"{ } } } } } } } } } | } } } { } } } } } } } } | } } } } } | | } } } | } } } } } } } | } } } } } } | } } } } } } } } } } }  .} } ",
"{ { |  . . .} } |  ... .} [ [ [ } } } } } }  . .| | } } | ....| [ ] ] } } } } } }  .| ..| } } | .... .[ [ ] [ | } } } }  ... . .",
"{ | }  . .} } } } | | | } [ { { } } } } } |  .} | } } } | | | } [ } } } } | } } }  .} | } } } | | | | [ } [ } } | } } } }  .} } ",
"{ | { } { } } } } } } } } } } }  ... .} } } } } } } } } | } } } } } } | ....| } } } } } } } } } | } } } } } |  ...| } } } } } } ",
"{ { | } } } } } } } } } } } } } }  . .} } } } } } } } | } } } } } } } | | | | } } } } } } } } } } } } } } } | | |  .} } } } } } ",
"{ } } } } } } } } } } } } } } } } } } } } } } } } } } } } } } } } } } } } } } } } } } } } } } } } } } } | } } } } } } } } } } } ",
"{ } } } } } } } | } } } } } } } } } } } } } } } } } } } } } } } } } } } } } } } } } } } } } } } } } } } } } } } } } } } } } } } ",
"{ } } } } } } } } } } } } } } } } ] [ [ } } } } } } } } } } } } } } } [ [ ] } } } } } } } } } } } } } } } } | [ [ [ } } } } } } ",
"{ } } } } } } } } } } } } } } } ] ] ] } } } } } } } | } } } } } } } } [ [ ] [ } } } } } } } } } } } } } } } [ [ ] [ } } } } } } ",
"{ } } } } } } } } } } } } } } |  . .} } } } } } } } } } } } } } } } | | | | } } } } } } } } } } } } } } } } | | | } } | } | } } ",
"[ } [ { } } } } } | } } } } } |  . .} } } [ [ } } } } } } } } } } } |  . . .} [ ] [ } } } } } | } } } } } |  .|  .| [ ] [ { } } ",
"[ ] ] ] } } } } } } } } } } } } } } } } ] [ ` } } } } } [ } } } } } } } } } } ] ` ` [ } } } } [ } } } } } } } } | } [ ` ] [ } } ",
"{ { } } } } } [ ] ] [ } } } | } } } } } [ } } } } } } ] ] [ } } } } } } } } } } } } } } } } ] [ ] } } } } } } } } } | { [ | { | "
};
