/* XPM */
static char *home1677608602[] = {
/* columns rows colors chars-per-pixel */
"64 64 217 2 ",
"   c #4C3132",
".  c #6F3033",
"X  c #793335",
"o  c #553A5D",
"O  c #424443",
"+  c #45464A",
"@  c #4B4B4B",
"#  c #554948",
"$  c #41584D",
"%  c #4A4B52",
"&  c #455253",
"*  c #4C5254",
"=  c #435B54",
"-  c #4C5B5E",
";  c #515254",
":  c #56585B",
">  c #6B555C",
",  c #446258",
"<  c #47735F",
"1  c #60605F",
"2  c #535C64",
"3  c #5D5D63",
"4  c #555E6A",
"5  c #595E71",
"6  c #775963",
"7  c #795963",
"8  c #785A66",
"9  c #496B64",
"0  c #4B6B64",
"q  c #586268",
"w  c #407760",
"e  c #4A7365",
"r  c #447E65",
"t  c #497B66",
"y  c #4B7E68",
"u  c #517269",
"i  c #5C6977",
"p  c #5C6B76",
"a  c #5B757B",
"s  c #626264",
"d  c #61656B",
"f  c #64696D",
"g  c #6B6B6D",
"h  c #6C6E71",
"j  c #686876",
"k  c #726170",
"l  c #6E7072",
"z  c #66727D",
"x  c #737374",
"c  c #70717F",
"v  c #8B1F1E",
"b  c #8B201E",
"n  c #8C2121",
"m  c #972828",
"M  c #A42A2A",
"N  c #A92929",
"B  c #B62D2D",
"V  c #A63131",
"C  c #AB3030",
"Z  c #B53535",
"A  c #BC3131",
"S  c #B53C3A",
"D  c #C2302F",
"F  c #C53434",
"G  c #CB3737",
"H  c #C63A3A",
"J  c #CE3A3A",
"K  c #D13837",
"L  c #D03F3F",
"P  c #9F443E",
"I  c #A3453F",
"U  c #B7403D",
"Y  c #A23E42",
"T  c #9F454A",
"R  c #965355",
"E  c #9C5057",
"W  c #9A565E",
"Q  c #A54740",
"!  c #A94747",
"~  c #B74546",
"^  c #A85B53",
"/  c #B55659",
"(  c #9B6255",
")  c #916E5E",
"_  c #A7655C",
"`  c #926C6B",
"'  c #96717C",
"]  c #C94646",
"[  c #C54A4A",
"{  c #CC4D4D",
"}  c #D24343",
"|  c #D44B4B",
" . c #C35252",
".. c #D55353",
"X. c #D75A5A",
"o. c #D85D5D",
"O. c #DA6666",
"+. c #D66868",
"@. c #DB6A6A",
"#. c #DC7373",
"$. c #DF7C7C",
"%. c #E07D7D",
"&. c #468067",
"*. c #488067",
"=. c #4B8269",
"-. c #4F896F",
";. c #52856E",
":. c #858C74",
">. c #8B8973",
",. c #8B8C75",
"<. c #84967C",
"1. c #525989",
"2. c #555793",
"3. c #62478B",
"4. c #6C529A",
"5. c #73589B",
"6. c #646E84",
"7. c #657383",
"8. c #6B7888",
"9. c #767685",
"0. c #737597",
"q. c #575CA1",
"w. c #5F65B4",
"e. c #6B72C4",
"r. c #797EC5",
"t. c #707BE4",
"y. c #857A88",
"u. c #947A87",
"i. c #748A89",
"p. c #679C8A",
"a. c #6E8192",
"s. c #728494",
"d. c #7A8798",
"f. c #768C9D",
"g. c #7B8D9C",
"h. c #7F9093",
"j. c #66AC8E",
"k. c #67B290",
"l. c #6DBC9A",
"z. c #79B695",
"x. c #74BD9A",
"c. c #7887A0",
"v. c #788EA0",
"b. c #7C92A4",
"n. c #67C09A",
"m. c #6DC39D",
"M. c #72C39E",
"N. c #73C7A1",
"B. c #75C8A3",
"V. c #79CBA6",
"C. c #7CCCA9",
"Z. c #7A86C8",
"A. c #768CE7",
"S. c #7B95FA",
"D. c #7F9DFE",
"F. c #7FA0FA",
"G. c #8C8894",
"H. c #918796",
"J. c #928897",
"K. c #948C9B",
"L. c #8A929A",
"P. c #848CA5",
"I. c #8396A4",
"U. c #8495AB",
"Y. c #8899AA",
"T. c #939AA7",
"R. c #879EB1",
"E. c #939CB5",
"W. c #97A3A9",
"Q. c #8CA3B4",
"!. c #8EA7B9",
"~. c #8FA9BC",
"^. c #95A3B6",
"/. c #9BABB4",
"(. c #96A4BA",
"). c #93ABBC",
"_. c #9AACBD",
"`. c #B1B8BC",
"'. c #81CEAB",
"]. c #8186C6",
"[. c #9AACC2",
"{. c #97B1C2",
"}. c #9BB3C3",
"|. c #8FA4DC",
" X c #A2B5C4",
".X c #A2B8C6",
"XX c #A7B9C7",
"oX c #A5BBCA",
"OX c #ACBDCA",
"+X c #B5B8C7",
"@X c #AFB1D0",
"#X c #A7BDD2",
"$X c #8891E2",
"%X c #829CFE",
"&X c #86A4FC",
"*X c #8EAAFD",
"=X c #95ADFF",
"-X c #99B3FD",
";X c #A1B8FD",
":X c #ADC2CD",
">X c #B1C5CF",
",X c #B2C6D0",
"<X c #B9CBD7",
"1X c #BBD1E3",
"2X c #C4D3DB",
"3X c #CBD6DB",
"4X c #D2D9DB",
"5X c #C2C2E3",
"6X c #C9DCE9",
"7X c #D4DCE1",
"8X c #DAE4E7",
"9X c #D2E6F3",
"0X c #D9EBF7",
"qX c #E0E7E9",
"wX c #E5EAEB",
"eX c #E9ECED",
"rX c #E4F3FA",
/* pixels */
"m.M.M.M.N.N.m.M.N.N.B.N.N.m.l.m.M.M.M.M.N.M.M.<.( ^ [ ] o.X.............K G H U ( ) z.M.M.M.m.M.B.V.M.m.n.m.m.m.M.m.m.M.M.B.B.M.",
"M.N.B.C.V.V.N.N.N.C.C.C.N.l.n.n.N.N.N.N.N.z._  .| ..o...O.X.............L } } F B D Z >.M.M.M.V.C.C.C.m.m.m.B.B.B.B.N.N.V.C.V.V.",
"M.N.N.B.N.B.N.N.N.B.B.B.N.m.N.N.N.B.M.M.z._ #.@.o...X...O...| ......| ..L } } F B K J B >.M.M.B.B.B.B.m.M.M.M.M.B.B.m.N.B.B.B.B.",
"M.N.N.N.N.N.N.N.N.N.N.N.N.N.N.N.V.C.C.z._ +.$.+.X.X.o...O...............L L } F B G J A B >.M.B.B.B.M.B.V.M.V.V.C.V.B.N.N.N.N.N.",
"M.N.N.N.N.N.N.N.N.N.<.) ) ) ) ) ) ) ) _ +.#.%.@.X...o...+.X.......| ....L } } F B G J A B C ) ) ) ) ) ) ) ) ) M.B.N.N.N.N.N.N.N.",
"M.N.N.N.N.N.N.N.N.<.~ { { { { { { | { o.#.#.%.@.X.X.o...O.X.............L } } F B G J A B B ] { {  .{ { { { { ( M.N.N.N.N.N.N.N.",
"M.N.N.N.N.N.N.N.<.U | X.O.O.@.@.@.o...o.#.#.%.O.X.X.o...O.X.............L L L G B K K A B A { o.+.O.O.O.@.O...J ( M.M.N.N.N.N.N.",
"M.N.N.N.N.N.N.<.U | X.O.O.@.@.+.O.@.o.o.#.#.%.@.X...X...O...............L } } F B G J A B A ..O.@.O.@.O.@.O.O...K ( M.N.N.N.N.N.",
"m.N.B.B.C.'.<.U J | o.@.@.O.@.O.O.O.O.o.#.#.%.@.X.X.X...O.X.| ..| ......L } } G B G K A B A ..+.@.O.O.O.O.O.O...} G ( M.M.M.N.N.",
"M.N.B.B.M.;.U } | | X.@.@.O.O.O.O.O.o.o.#.#.%.@.X.X.o...O.X...........| L L } F B G K A B A X.+.O.O.O.@.O.O.O...} | H ( M.M.N.N.",
"m.M.m.m.V.:.F L } | o.+.O.O.O.O.O.@.O.o.#.#.%.@.X...X.X.O.X.......| ....L } L F B G K A B A X.O.O.O.O.O.O.O.O...} | K I m.M.N.N.",
"m.m.m.M.M.:.A } } | o.@.O.O.O.O.O.O.o.o.#.#.%.@.X...X...O...............L } } G B G K A B Z ..+.O.O.O.O.@.O.O...} | G I n.M.N.N.",
"m.N.N.N.B.:.A L } | o.O.@.O.O.O.O.O.O.X.#.#.%.@.X...X.X.O.X...| ........K L } F B K G A B A ..O.@.O.O.@.O.O.O...} | L I M.M.M.M.",
"M.N.M.V.'.,.F } { | o.O.O.O.O.O.O.O.o.o.#.@.%.@.X.X.X...O.X.............L } } F B G K A B A X.+.O.O.O.O.@.O.O...} | K I M.'.'.V.",
"m.N.B.'.'.,.F L | | o.@.O.O.O.O.O.O.O.o.#.#.%.@.X...X...O.......| ......L } } F B G K A B B X.O.O.O.O.O.O.O.O...} | K I M.'.'.'.",
"M.B.B.B.B.:.A } } | o.O.O.@.O.O.@.@.o.o.#.#.%.@.X.X.X.X.O.............| L } L G B K K A C A ..O.O.O.@.O.O.O.O...} | K I M.N.V.M.",
"M.N.B.N.N.:.A } } | o.+.@.O.O.@.O.O.O.o.#.#.$.+.X...o...@.X.| ..........L L L F B G K A B Z X.+.@.O.O.O.@.O.O...} | K I M.M.M.V.",
"M.N.M.B.B.:.A } } | o.@.O.O.O.O.O.O.o.o.#.#.%.@.X.X.o...@...........| ..L } } G B G K A B A ..O.O.O.O.@.O.O.O...} | L I M.'.V.N.",
"M.N.B.V.C.:.A } | | o.O.@.O.O.O.O.O.o.o.#.#.%.@.X...o...O.X.............L } } F B G J A B A ..+.O.O.O.O.O.O.O...} } K I M.C.V.V.",
"M.B.N.B.B.:.D } } | o.@.O.O.@.O.@.O.O.o.#.#.$.@.X.X.o...O.........| ....L } } F B G K A B B X.O.O.@.O.O.O.O.O...} | K I M.V.N.M.",
"M.N.N.N.M.:.A } | | o.O.O.O.O.O.O.O.o.X.#.#.$.@.X.X.X...O...........| ..L } } F B G J A B Z ..O.O.@.O.O.O.O.O...} | L I M.V.M.V.",
"M.N.N.N.B.:.D } } | o.O.O.O.@.O.O.O.O.o.#.#.$.@.o...o...O...............L } } F B K K A B A ..+.O.O.@.O.O.@.O...} | K I M.M.V.M.",
"M.N.N.N.B.:.D } } | o.O.O.@.@.O.+.O.O.o.#.#.$.@.X...o...O...............L L L H B G J A B Z X.+.O.@.O.O.O.O.O...} | K I M.N.M.N.",
"m.N.N.B.M.:.A } | | o.O.O.O.O.O.@.O.o.o.#.#.%.@.X.X.o...O.X.........| ..L } } F B G K A B A ..O.O.O.O.O.O.O.O...} | K I M.N.N.N.",
"M.N.N.N.B.:.A } } ..o.O.O.O.O.+.O.O.O.X.#.#.$.@.X.X.o...O.............| L } } G B G K A B A ..+.O.O.O.O.O.O.@...} | K I M.N.N.N.",
"M.B.N.N.B.:.A } } | o.O.@.O.O.O.O.O.o.o.#.#.$.@.X...o...O.X.......| ....L L L F B G J A B Z X.O.O.O.O.O.O.O.O...} } L I M.N.N.N.",
"m.N.N.N.B.:.D } | | o.O.O.O.O.O.@.O.O.o.#.#.%.@.o...o...O...........| ..L } } G B G K A B B ..O.O.@.O.@.O.O.O...| } K I M.N.N.N.",
"M.N.m.m.M.:.D L } | o.O.O.@.O.O.O.+.o.o.#.#.$.@.X.X.o...O.X...| ........L L } F B G K A B A X.+.O.O.O.O.O.O.O...} | K I m.M.N.N.",
"m.n.m.m.N.:.A } } | o.O.+.O.@.O.O.O.O.o.#.#.%.@.X...o...O.X...........| L } } F B G K A B A X.@.O.O.O.O.O.O.O...} | L I n.M.M.N.",
"M.N.N.N.N.:.D } | | o.+.@.O.O.O.O.O.o.o.#.#.%.@.X.X.o...O.X.............L } } F B G K A B A ..O.O.@.O.O.O.O.O...} | K I M.M.N.N.",
"M.N.N.B.V.:.D } } ..o.O.O.O.O.O.@.O.o.o.#.#.$.@.X.X.o...O.X.....| ......L } L G B G K A B A ..O.@.O.@.O.O.O.O...} | K I M.M.V.V.",
"M.N.N.C.'.<.D } } | o.O.O.O.@.O.O.O.O.o.#.#.$.+.X...o...O...| ..........L } } F B G K A B Z X.O.O.O.O.O.O.O.O...} | K I M.V.'.'.",
"M.M.B.B.B.:.F } } ..o.+.O.O.O.O.O.O.O.o.#.#.$.@.o.X...|  .N B B B B C B B L L F B G K A B A ..+.@.O.O.O.O.@.O...} } J I M.M.V.B.",
"M.B.M.M.M.:.A J } | o.@.O.@.O.@.+.O.O.X.#.#.$.+.} Y M M Q W W W W W W W R M M M C A K A B A ..O.@.@.O.@.O.@.O...} } F P M.M.M.M.",
"M.B.M.B.N.p.P D K | X.o.@.O.+.@.O.O.X.X.#.#. .Z V Q u.u.K.{.).!.).~.~.).!.u.u.` V M B B B Z ..O.@.+.O.O.+.@.X...} F m > m.B.V.B.",
"m.B.B.V.C.p.K./ F } | X.o.o.o.o.O.....X.#.[ Y ` U.E.{.{.}.OX:X>X:X:X:X:XOX{.{./.T.G.E V B B | ..o.O.o.o.o.X...| F m 6 a M.C.V.V.",
"M.M.B.B.N.p./.:X/ D J | ....| ..| ..| X.~ ! Y.{..XXX,X,X<XOX@X(.(.(.[.@X,X>X:X:X.X}.).' M B ..............| | F m 6 a.a M.V.B.M.",
"M.B.M.B.N.p.`.8X`./ F H H H H H H H J Z T T.XX:X,X,X>X,XOX[.@XwXeXeX7X(. X>X>X>X,X>XOX{.' V F H H F H H H H A m 6 a.f.a M.V.M.B.",
"m.B.B.B.N.p.`.eX8X`./ N M M M M M M M T T.oX,X,X>X>X,XOXE.@X<X+X+X+X+X5X@X X>X>X>X>X,X:X{.' M M M M M M M M m 7 a.f.f.a k.N.B.B.",
"M.m.B.M.B.p.W.wXeX8X`.J.H.G.y.G.H.H.H.T.oX,X,X,XOX,X,XE.@XE.P.[.5X<XP.P.[.E. X,X>X>X>X,X:X_.K.J.H.H.y.y.H.J.9.0.v.v.a.u -.k.N.N.",
"M.B.N.N.N.m.j./.qXeX8X:X_._.b.).}.}.}.XX>X>X>X>X>X>XXXE.G.U.6X0XrXrX0X#Xd.P.[.,X,XOX,X,X>X>X}.}.}.}.Q.!.}.}.b.f.v.a.i y =.=.k.B.",
"m.B.N.N.N.N.m.p /.qXwX<X>X,X)._.,X,X>X,X>X>X>X>X,X,X(.P.U.6X9X[.^.E.<X0X#XP.P.OX,X,X,X,X>X>X>X>X,X:X!..X,X>XQ.f.a.i e =.=.=.-.k.",
"M.M.B.B.N.N.m.i.Y./.8X<X>X:X).:X,X,X,X,X,X:X>X>X,X,XU.6.[.rX#XP.6XOXU.9X7X0.8.XX,X,X,X,X,X,X>X>X,X,X).}.,X,XQ.a.i 7.0 =.=.=.&.-.",
"M.B.M.B.N.N.l.i.<XT./.}.).).b.Q.[.{.).).).).{.).)._.d.6.P._.b.@X0X9XP.(.^.8.6.(.).).).[.).).).)._.).b.Q._._.f.p 8.7.0 -.=.=.=.=.",
"m.m.m.M.N.N.l.h.qX2XL.q 2 2 q 7.i > 8 8 8 6 6 6 8 8 8 6.E.6X#Xf.oXR.U.6X<X0.k 7 8 7 8 7 6 6 7 > 3 8.7.- 2 2 i 8.s.8.0 &.r =.=.=.",
"m.m.m.m.N.N.l.h.wXwX:X* + O 2 !.9.n F J J J J J G G G 8 c.1X0X<XXX@X6X0X{.6.! K J J J J J J F m . b.b.O + O 8.d.v.a.0 &.r r =.=.",
"M.N.N.N.N.N.l.h.wXeX3X: @ @ q ).b.6 m H | | | | | ..} ~ j c.<X0XrXrX6X[.6.W Y } | | | | | ] n X 9.Q.b.O * O a.b.b.a.0 =.=.=.=.=.",
"M.N.N.N.V.N.l.h.wXeX3Xq s 3 f :X).).` m H ............} ~ j 6.I.XX[.0.7.W H } ..........[ m X W.{.}./.* h ; L.b.v.a.u =.=.=.;.=.",
"M.N.N.'.'.'.x.h.wXwX3Xf l h z ,X!..XOX8 m H ............} ~ E k j k 8 ~ H } | ......| ] m . L.>XQ..X/.q x d L.I.b.a.0 -.=.;.;.;.",
"M.N.N.B.B.B.l.h.wXeX3Xj l l 8.:X)..X:XQ.` M L ..| ..........} ] ] ] ] } | ..........] m . G.}.:X!..X/.f x f Y.b.f.a.e =.=.=.=.=.",
"N.N.N.N.N.N.l.i.7XeX3Xz l l 9.:X).}.:X!.3X>.N A Z Z Z Z Z Z S Z Z Z Z S S S Z Z Z Z m . 9.R.[.>X)..X/.q x f Y.b.f.z e =.=.=.=.=.",
"m.N.N.N.N.N.l.p W.7X3Xz x g i.:X!.}.:X!.7XwXu.m n n n v b b b b v n v v v v v n n n X 8.v.R.}.,X)..X_.f x f L.g.z * 0 =.=.=.=.=.",
"M.N.B.B.C.B.l.u l W.,Xz l l z _.Y.!._.Y.4XeX4X#     o 5.5.4.4.4.5.y.4.4.4.4.3.      3 v.g.I.Q.{.Y.!.Y.f x f f.8.* & e =.=.;.=.=.",
"M.N.B.B.B.B.M.-.0 x L.i l l j I.s.h.I.s.`.qX8X@ + O 2.%XD.&XD.&X=X*X%X%X&X%Xt.+ @ O q v.s.s.f.I.d.g.s.d x f 8.; & e -.=.=.;.=.=.",
"M.N.N.N.N.N.N.-.y 0 g ; h l ; f g g g g L.2X4X; : # 2.S.D.D.&X-X*XD.S.%X%X&X$X% : @ q c.7.d g f f g q : x s : * y =.=.=.=.=.=.=.",
"M.N.N.N.N.N.l.-.=.y , O 1 : + , - - - - x L.XX: g s 2.A.i Z.-X*XF.D.D.D.&X-X$X: h s q 7.* * - - - - * @ s ; & t ;.=.t =.=.=.=.=.",
"M.N.N.N.B.B.M.-.=.=.y = $ $ , =.*.y =.t 0 l L.d x g 2.A.8.|.*X&XF.F.%X&X-X;X$X4 x h 2 % & e t y *.*.e $ $ $ < -.=.=.=.=.=.=.=.y ",
"M.N.N.N.N.M.m.-.&.=.=.=.=.=.=.=.=.=.=.=.&.0 f q x j q.%X-X*X%X%X%XD.&X-X;X=Xt.5 x h % & r =.=.=.=.=.*.=.=.=.=.=.=.=.=.=.=.=.=.=.",
"M.N.N.N.N.N.m.-.*.=.=.=.=.=.=.=.r r *.=.=.=., 2 x h 1.r.Z.e.e.e.e.e.Z.Z.Z.e.w.4 x h = e =.=.=.=.=.=.=.=.=.=.*.r r y =.=.=.=.=.&.",
"M.N.N.N.N.N.M.-.=.=.=.*.=.=.=.=.r r r t =.=.y q x h < e 9 e e e < e 0 e e 0 0 2 x l 0 =.=.=.=.=.=.=.=.=.=.=.=.r r r =.=.=.=.=.=.",
"M.B.B.N.B.M.M.-.*.=.=.=.=.=.=.=.-.=.=.=.=.*.t q x h 0 ;.=.-.=.=.-.=.=.-.;.;.t q x g < -.=.=.=.=.=.=.*.=.=.=.=.=.*.=.*.=.=.=.=.=.",
"m.M.m.m.B.M.M.-.*.=.=.=.=.=.=.=.=.;.=.=.*.*.r : x h 0 =.=.*.=.=.*.=.=.=.*.=.t 2 x l , ;.=.=.=.=.=.=.=.=.=.=.;.=.;.=.=.r r &.=.=.",
"m.n.m.n.M.V.m.-.*.*.*.=.=.=.=.=.=.=.=.*.*.*.w * h q = =.*.=.=.=.=.=.=.=.=.=.t @ l s , =.=.=.*.*.=.=.=.=.=.=.=.=.=.=.*.r r r *.=.",
"m.m.N.N.M.M.m.=.r *.*.=.=.=.=.=.=.=.=.=.*.*.t O ; @ = r r r =.=.=.=.=.=.=.=.*.O ; @ $ =.=.*.r r r *.=.=.*.=.=.=.*.=.*.*.*.=.=.=."
};
