/* XPM */
static char *home21677608602[] = {
/* columns rows colors chars-per-pixel */
"64 64 87 1 ",
"  c #2D2D2D",
". c #343434",
"X c #3E3E3E",
"o c #3F4D47",
"O c #444444",
"+ c #424A46",
"@ c #464F4B",
"# c #4B4B4B",
"$ c #40554B",
"% c #4E5552",
"& c #435D52",
"* c #4E5E57",
"= c #535353",
"- c #515A56",
"; c #535F5A",
": c #5B5B5B",
"> c #436355",
", c #496156",
"< c #4C6459",
"1 c #476F5D",
"2 c #4C6B5D",
"3 c #53635C",
"4 c #5A605E",
"5 c #52685E",
"6 c #49715F",
"7 c #5F6562",
"8 c #556B61",
"9 c #4B7461",
"0 c #447E65",
"q c #497E66",
"w c #4B7F68",
"e c #567265",
"r c #567668",
"t c #58776A",
"y c #5A796B",
"u c #646464",
"i c #636866",
"p c #666C69",
"a c #6E6E6E",
"s c #6B726F",
"d c #6F7170",
"f c #737373",
"g c #7E7E7E",
"h c #478067",
"j c #498067",
"k c #478269",
"l c #4B8269",
"z c #52866E",
"x c #5B8471",
"c c #568F75",
"v c #569478",
"b c #678678",
"n c #6A8A7C",
"m c #63937D",
"M c #5EA788",
"N c #69A68A",
"B c #66AA8C",
"V c #6AAC8E",
"C c #64B492",
"Z c #69B492",
"A c #6DBA97",
"S c #6EBA98",
"D c #70BC9A",
"F c #67C09A",
"G c #6DC39D",
"H c #71C39E",
"J c #73C7A1",
"K c #75C8A3",
"L c #79CBA6",
"P c #7CCCA9",
"I c #828282",
"U c #8B8B8B",
"Y c #939393",
"T c #919A96",
"R c #9C9C9C",
"E c #A4A4A4",
"W c #ABABAB",
"Q c #B3B3B3",
"! c #BCBCBC",
"~ c #81CEAB",
"^ c #C2C2C2",
"/ c #CBCBCB",
"( c #D4D4D4",
") c gainsboro",
"_ c #E3E3E3",
"` c #ECECEC",
"' c gray94",
/* pixels */
"GHHHJHHHHJLJHGGGHHHHHHHHHMyxu::::-:=exxDHHJHHHHHJKJDFJGGJGHHJKJJ",
"HJKPLLJJJPPPJAGFJJJJJJAy4puafaaaaaau::=;3NJPKJJLP~LGGFJJJJJJKPLK",
"HJJKKKJJJKKKJGJJJKKJJmufaffggaaaaada:u-##=8SJJJJKKKGJGJKKKJJKKJK",
"HJJJJJJJJJJJJJJJKPPKmgUgagafgaaaaaau:u:#=:=5DJJJJJJKJJKLPKJJJJJJ",
"HJJJJJJJJJJJJJJJKKKmfUUgffffgaaaaaap:u:##:=#8DJKJJKKKJJKKKJJJJJJ",
"HJJJJJJJJHx8ee89eeefUUUgagaggaaaaafu:u:#=:=##3e88r7u8eVJJJJJJJJJ",
"HJJJJJJJDy4aaaddaaaIUUUfafffgaaaaaau:u:#=:###7aaaaaaau7VJJJJJJJJ",
"HJJJJJJHy:agIgIIgfagUUUgagaggaaaaafu:u:#=:=##ufgNgggIfu3MGJJJJJJ",
"HJJJJJDt:agggggIgIfIUUUgagaggaaaaaau:u:#=:=##uIggggIggfu;BJJJJJJ",
"HJJJJJy:4agggggggIfIUUUgafffgafaaaaa:u:#=:=##ugIIIggggfu:3VJJJJJ",
"GJGGJx=uuaggIgIgggfIUUUgagaggaaaaaau:u:#=:###uIgggIgIgfup:3CFJJJ",
"GSGGJr=uuaggggIgIIfIUUUgafagfaaaaafu:u:#=:=##ugggIggIgfuu:%CGGJJ",
"GJJJJr=uuaggggIgIgfIUUUfagagfaaaaaau:u=##:=O#ugIgggIIgfuu:%SJJJJ",
"GKJL~t=u:aggIgIgggfIUUUgffffgaaaaafu:a:#=:=##ugggIggggfuu:%SKK~K",
"HJK~~y=uuagIgggggIfgUUUgafffgafaaafu:u:#=:###uIIIgIggIfuu:%SLP~~",
"HJJKKr=uuagIgggggggIUUUgfgaggaaaaaau:u:#=:=##uggggIgggfpu:%AKKKK",
"HJJJJr=uuaggggggIgggUUUgfffggaaaaafu:u:#=:=##uIgggIgggfup:%DJJJJ",
"HJJKKr=u:aggggIgIgfIUUUgafffgaaaaaau:u=#===##uggIgIggIfuu:%SJKKJ",
"HJKLLt=uuaggIIgggIfIUUUgagaggaaaaaau:u:#=:=##ugIIgggggfuu:=SKPLL",
"HJJKKy=uuagggggIggfIUUUgffagfaaafaaa:u:##:=##ugIgggIIgfuu:=SKKKK",
"JJJJKr=uuagIgggIgIfIUUUgagafgafaaaau:u:#=:=##uIggIggIgfuu:%SJJJJ",
"GJJJJr=uuafgIIggIIfgIUUgafaggaaaaafu4u:#=:###uIgggIgIgfuu:%SJJJJ",
"JJJJJt=uuagIggIgggfIUUUgagffgaaaaaau:u:#=:=##uIgIIggggfuu:%SJJJJ",
"DJJJJy=u:agggIgggIfgUUUgfffgfaaaaaaa:u:##:=##ugggggIgIfuu:%SJJJK",
"JJJJJr=uuaggggIIggfIUUUgagaffaaaaaau:u:==:=##ugIggggggfuu:%SJJJJ",
"HJJJJr=uuaggIgggIgfIUUUgafaggaaaaafu:u:#=:=##ugIIgIIIIfup:%AJJJJ",
"GJJJJr:u4aggggIggIggUUUgagfggaafaaau:u=##:###uggggggggfuu:=SJJJJ",
"GJGGJr=uuaggIggggIfgUUUgafffgaaaaafu:u:#=:=##ugggIIggIfup:%CGJJJ",
"SGGGJr=uuagggggIgIfIUYUfagaggaaaaafu:u:#=:=##uggggIgggfuu:%CSGJJ",
"JJJJJr=uuaggIggIggfIUUUgafagfaaaaaau:u:#===##uIgIgIgIgfuu:%SJJJJ",
"GJJKLr=u4aggggggIIfIUUUgfgafgaaaaafu:u:#=:=##ugIgIggIgfui:%AKLPJ",
"HJJP~y=uuafIgIIgggfIUUUgaffggaaaafau:u:#=:=##ugIgggIgIfuu:%AKPPP",
"HJJKKy=uuaggIggggIfIUUUgafagauuuuuuu:u:#=:=##uggIIgggIfuu:=AHKJK",
"HJJJJe=uuaggggIIgIfgUUUgau::OOOOOOOO#=##=:###uIggggIgIfuu:=SKJJJ",
"HJJJJt#::agggIggIgfIUUg=#===IUUUUUUUu==XO==##ugggggIggfu:##DJKKH",
"HJKKPba#:uagggIgIfagUaOuaUREWQQQQQQWERRfu#OO#ufgIIgggfa:#O7DKPLL",
"DJKKKnWg#:aafffffafIa=IREQ!!^^!QQ!^^!Q!WWUuO#uaffffffau#OdpDKLJJ",
"JJJJKn//g#:uuuuauuuu=YQ!!^^^!WQQQQWQ^^^!!QWaOuuuuuuuuu#OdIsSJJJJ",
"JJJJKn(_^f##OO##OOO=YQ^^^^^!EQ_```^WQ^^^^^!Eu##O#O#OOOOaIUsSJJJJ",
"DJJJKn/`_^guu:::uuuY!^!^^^!R!WUEEYR!EW^^^^^!Ea:uu::uu:aIUUicGJJJ",
"JJJJJVT)`_^EERUEEEEQ^^^^^^WYUY^`'(WIRR^^^^^^!WEEEYYEEUIUUf8jvHHK",
"HJJJJJNU)`_!!QE!!!!^^^^^^!RUR__//)`QIYW^^^^^^!!!!WE!!EUUf8lllvHH",
"HJJJJJNfR)_^^!E!^^^^^^^^^!II(_ERWU(`RgE^^^^^^^^^^QW^^WUfp5zlllvG",
"HJJJJJNRWR(!!WR!!!!!!!!!!Qag^^Y)`WW/YuR!!!!!!!!!!EE!!Edaf8lllljc",
"GJGJJJNW)EUgggfgggggggggggufWEU^(YRQUafggggggggggffggaagg8jhjjll",
"GFGSJJNW`(UO#OfU##==:====:ua/`!YYE)_Uu:=:==::=#.gU###ugII8jh0jll",
"HJJJJJNW``WXOXIRuX#uuuuuuu:uI/`_``)Ra::uu:uuu#.#UR##OaUUI8llllll",
"GJJKKJNW``Q#u=UQRIO=aaaaaau:ugE()QUa::uaaaaa:.uREQ=4-fRUI8llllzl",
"HJJ~~~NW'`Q:a:R!E!IX=aaaaaau:uuffau::uaaaaa:.:QWW!:a4IRUI3lllzxz",
"HJJKKKNW``QufpRQE!QfO=aaaafauuu:uu::aaaada:.=R^WW!ufaURUI8lllllz",
"HJJJJJNE``QufuR!E!WQRO:uuuu:u:u::::u:uu47:.#UW^WW!ufaIYUg5llllll",
"HJJJJGNg/`QufpY!E!QW`RXXXXXXXXXXXXXXXXXXXX#UYE^WW!afaIRgu*llllll",
"HJKKLLBuU/QufpYQRQWW``U   XOOXXX#OOXXX.. XIUYRQEEQufaIU:#2lllzzl",
"HJKKKKZ9uURufaIRURYR)'RXOOIRYYYRERYYYU#OO#UUUURYYYufafa#,jllllll",
"HJJJJJZl9ua:fuufadag!_RO=OgRERWQEEERRE:###Ugsafdaf:fa:=<zlllllll",
"HJJJJJZll9=#a=#::::uY^U:a#gUgWQERRREWWuuu#gu%::::=#u:#3lzlllllll",
"HJJJJJZlll1o@+>99999iYIpf:gffQWRERRW!Wuaf:4#*69996+$+&llllllllll",
"HJJJJJZllllqqqllllll9pppf:gEQERRERE!!R:af=#*jlllllwqqjllllllljll",
"HJJJJJZjllllllllk0hll9=af4gRUIIUIUREYg:af=,wlllllllllljh0hllllll",
"HJJJJJZlllllllll000lll2af438885848e853-ff;wlllllllljlljh00ljljll",
"HKJJJJClllllllllllllll2af:wllllllllzzz<df3wljlllllllllllllljlllj",
"GHHHJJZljlllllllzllllh<afuwllllllllllz<ff3wlllllllllllzlllj0hjll",
"GFFFJJZjjlljlllllllhhh>us%9ljlllllllwz&ua$jllljjjlllllllllh00hll",
"HHHJJJZh00hlllllllllkl&=:O0h00llllljll$::+jllj0h0ljllllllljjjlll"
};
