/* XPM */
static char *oie_2715336KHC73mdp1677508447[] = {
/* columns rows colors chars-per-pixel */
"64 64 50 1 ",
"  c gray19",
". c #313131",
"X c #353535",
"o c gray22",
"O c gray24",
"+ c #434343",
"@ c #444444",
"# c #494949",
"$ c #4C4C4C",
"% c #505050",
"& c gray34",
"* c gray35",
"= c gray37",
"- c gray38",
"; c #656565",
": c gray42",
"> c gray43",
", c #727272",
"< c gray46",
"1 c #7B7B7B",
"2 c gray50",
"3 c #808080",
"4 c gray53",
"5 c #898989",
"6 c gray56",
"7 c #909090",
"8 c gray58",
"9 c #9B9B9B",
"0 c gray62",
"q c gray63",
"w c #A7A7A7",
"e c #AAAAAA",
"r c #ACACAC",
"t c #B1B1B1",
"y c #B4B4B4",
"u c gray73",
"i c #BCBCBC",
"p c gray76",
"a c #C5C5C5",
"s c #CACACA",
"d c #CECECE",
"f c gray82",
"g c #D7D7D7",
"h c gray86",
"j c #DFDFDF",
"k c #E1E1E1",
"l c #E4E4E4",
"z c #EAEAEA",
"x c #ECECEC",
"c c gray94",
/* pixels */
"rttrttttttyttrrrtrtttrrytttrryttrrrtrrtttryttttttttrrrttttttrttt",
"ryyuuytttuuuterryttytyuyurwe2>,>:>:>0eettuuyytyyuuurrrttttytuuuy",
"ttyyytyttyyytttttyytyty06<*->::;:;:-&*-58yyyttyyyyytttttyyttyyty",
"ryttytttttyttytyyuuytr2:=>>12>>>>>>-=-&#%>0tytttyttttyyuuytyyttt",
"ttttyttytttttytttyyye121,<,<2>>>>>,-=-&#%&=9yttttytttytyyyttttty",
"ttytyttyyytttttyttyr<262,<,<1>>>>>>;*;&$&*$*0tyrttttttytttyytytt",
"tyttttttttw6666666612562,<,<1>>>>>>-=-&#&*%#&666766670tytyttytyt",
"rttytyyttr>=======*,5562><,12>>>>>,-=-&#&*$#$*=======;8retytttyt",
"tttytytte>=<22222<>15562,<>11>>>>>>;=-&#&*$#%><222221;=9rttyttty",
"ryttttte:=>2222222<15562><,<1>>>>>,-=-&#&*$#%,2222222<-=0ttttytt",
"ttrtyte>*;<22222222<6562,<,<1>>>>>>-=-&#&*$#%<22222221:==9trrryt",
"retryr:*;;<2222222115562,<,<2>>>>>>;=-&#&*%#$<2222233<:-=*9ertyt",
"tyttte&*;;<2222222115562><,<2>>>>>,-=-&#&&$#%<22222221:--%7tyttt",
"rttuur&*;;,22222221<5462,<,11>>>>>>;=;&$&*%#%<22222221:-=%7tyuiy",
"ttyiuy&*;:,32222222<5562><><1>>>>>>-=-&#%*$#%<22222231:;-%7tyuiu",
"tttyye&*;;,2222222115662,<,11>>>>>,-*;&#&*$#%<2222223<:--%7tyyyy",
"rtttye&*;;,2222222115563><,11>>>>>>;=-&#&*%#%,22222231:--%7tttyt",
"tyyyye&*;:<22222221<5562,<,<1>>>>>,-=-&#&*$#%<2222223<:--%7tyyyt",
"rtyyyr&*;;<2222222115562,<,<1>>>>>,-=-&#&&$#%<22222221:-=%6tyuuy",
"ttyyye&*;;,2222222115562><,12>>>>>>-=;&$&*%#$<22222221:;-%6tyyyy",
"tyytye&*;;,2222222115562,<,<1>>>>>>-=-&#%*$#%<22222231:--%7tttyt",
"rtttte&*;:<22222221<5662,<,<1>>>>>>;=-&#&*$#%<22222221:--%7tytyt",
"tttyte&*;;<2222222115562><,<1>>>>>>;=-&$&*%#%<2222222<:;=%6ttytt",
"ttttte&*;;,2222222115462,<,<2>>>>>,-=-&#&*$#$<22222221:--%7yttty",
"rtytte&*;;<2222222115562><,<2>>>>>>-=;&#%*$#%<22222221:--$7tttyt",
"ttytte&*;;<22222222<5662,<,11>>>>>,-=-&#&*%#$<22222221:;-%7tytyt",
"tyttte**;;,32222221<5552><><1>>>>>>;=;&#&*$#%<32222221:--%6ttttt",
"rtrtte&*;;<2222222115562,<,11>>>>>>-=-&#&*%#%<2222233<:--%6ettty",
"rrrrye&*;;,3222222115562><,<2>>>>>,-=-&#%*$#%,22222221:;-%6rrttt",
"ttttte&*;;<2222222115562,<,<1>>>>>>;*;&$&*%#%<22222221;--$6tttyt",
"rtyyyr&*;;,22222221<5562,<,<1>>>>>>-=-&#&*%#%<22222221:--$7tytut",
"ttyuit&*;:<2222222115662><,12>>>>>,-=-&#&*$#$<22222221:;-%7tyuuu",
"tyyyte&*;;,2222222115562,<,<2>,>>,>;=;&#&*$#%<22222231:--%7ttyyy",
"rtttte&*;;<2222222115562,<,<-&&&&&&%*-&#&*$#%<2222223<:--%7tyttt",
"ttttye&*-:,22222222<5571;*#$%&%&%&%&#@@#%*$#%,32222221:-=$6tttyt",
"ttyyur*$&;,1222222<155>%+=,,8qqqqqq01>:@#$##%,2222222,:=#+7yyuuy",
"rtyyyr11$=:,11121<>15-%,69eeyiuuiuuureq64&@#%:,21121<:-##-8yyyyy",
"tttytw5a1$*:,>>>>>><-=9etupppprwweupppitrq<@$:>>>>>>>-#@,<8tytty",
"tttyte7lp1$********%=0uippiptqgkjjrepppaiie<#********#@,4<8tttty",
"ryttte7xka1@@@@@@@@=0uppppptrpiiiupyeipppaie<@@@@+@@+@,46<4tyytt",
"ttttyr5gxlp855236559upppppy9e68adq6qqepppppie65541454<454>:7tttt",
"ttytttq6gxlptt9wtttupppippe63izxxxf659uppippitttr9ete554>:<,7tty",
"tyttttt16fxfppwtappppppppi85uzp0qrlf66tpipppppppiqupu75,=>,<<6tt",
"rttyyyt308gfpiwtpppppppppi1<gj7aj7az6>rpppppppppiwuai5>>;,<<<<7t",
"rtrtttt4sr8e00570000900000,,006hlq7w2>700000000085909,>2;,,,,,<9",
"rrtrtyy3gjr-%%*1;#&=******-,sk07q6fj4;=*******$&1;$%%<23:,,>>,,7",
"ttytttt3gxg-++&q<O$*=*=**=*:7jldsjle,=**=*=*=#X*q<+@$645:><<<<<7",
"ttttuyy4gxj,%%=r9<+&:>>>>>-=:7pzxfw,-*->>>>>&X=7e2#&$955:,,<<<17",
"tyyuiiy3hxj,-;:iwt5+&:>>>>>-=-<672;-*->>>>>*X;ywi5=:*q55:,<,<118",
"rttyyyy4hxj2>>,petu<+&:>>>>>;=======;>>>>>*X*riqu7:,:w65:,<,<<<8",
"tttyttt3fxk2>><iwttw7+&:;::;:;-----;;::::&o%8tiwu6:,:q54;,<<<<<7",
"ryttyty2rlk2>,,peyueke+@@@@@@@@@@@@@@+@@@o$40tiqi6:,:q4<*,,<<<<7",
"ttyyuyt<<th2>,,uqttqkc9...ooooooOOoooo...#458ru0u6:,:9,%%,,<<1<2",
"ttyyyyt5-1e1>,:q6907fcu+@+<75556075551@@+=6568q602>,:3%%><<<<<<,",
"tyttyyt6,-<->,=1<<<<ykp@$@1qq0wtwqq0q8$#@=51,<1<1;:,=-%>1,<,<,<<",
"rttyttt6,,-#-;#**===5ur%:$,64wtw000qew&;==2*&=*=*$*:#*><<<<,<<<,",
"ttttttt6,<,$$$$;;;;;;58-,*<1:twqq00eyw=>:=*#-:;;;&#$@:<<<<,<<<,<",
"ttyyytt5,<,,,>,11<1<>;,;<;,qrwq00qeuu7=,,$$;<<1<1,,>,<,<,<<<,<,<",
"rtttttt6,<<<<<,,,,,,<>*:<-,97544470q61=,>$-<,,<<,<<<<<,,,,,,<,<<",
"tyyttyt6<,,<,,<<>,>,<<;;<--;;;;;;;;;--*,,=<<<<<,<,,<<,,>>,<<<<<,",
"rytytty5,<<,<<<<<<<<<<:;<-><<<<<<<<11<=<>-<,<<<,<<,<<<<1<,<<,<<,",
"rtrtytt6<,<<<,<<1<<,<,;:,;><,<<<<,<<<,=,,=<<,,<<,<,<<<<<1<,>,,<<",
"rrrrytt5,,,<,<,<<<,<><-*,*:,,<<<<,<,<,%>;&<<<<<,<<<<<,<,,<,>>,,<",
"rttttty5>>,<<<,<,<<,,<;@&@;,>,,,<<<,<<#&%&<,<,>,>,<,<,<<<,,<,<,<"
};
