/* XPM */
static char *_41677503953[] = {
/* columns rows colors chars-per-pixel */
"64 64 231 2 ",
"   c #040809",
".  c #070517",
"X  c #0C1114",
"o  c #23121E",
"O  c #13221B",
"+  c #060A24",
"@  c #120D2F",
"#  c #181727",
"$  c #151739",
"%  c #261529",
"&  c #2B193B",
"*  c #1C2628",
"=  c #1D2837",
"-  c #2A322C",
";  c #2B332F",
":  c #21293B",
">  c #3D4239",
",  c #181940",
"<  c #1D2049",
"1  c #252D42",
"2  c #292B47",
"3  c #283345",
"4  c #2E2B57",
"5  c #353553",
"6  c #363D66",
"7  c #551D53",
"8  c #61165A",
"9  c #5A254F",
"0  c #5A2B5A",
"q  c #563758",
"w  c #612559",
"e  c #712C5E",
"r  c #4F316D",
"t  c #59376C",
"y  c #593A77",
"u  c #672B66",
"i  c #772363",
"p  c #65336A",
"a  c #73356D",
"s  c #663A77",
"d  c #703D7B",
"f  c #304A4C",
"g  c #384659",
"h  c #3D695A",
"j  c #3A4768",
"k  c #3B4879",
"l  c #555753",
"z  c #486759",
"x  c #4A496A",
"c  c #4D5174",
"v  c #69437D",
"b  c #7A4677",
"n  c #6E5C70",
"m  c #55656C",
"M  c #437A63",
"N  c #497E66",
"B  c #486474",
"V  c #6B6971",
"C  c #822868",
"Z  c #873675",
"A  c #95377A",
"S  c #864675",
"D  c #8C4277",
"F  c #4C836A",
"G  c #4E866C",
"H  c #51826A",
"J  c #568D77",
"K  c #549075",
"L  c #5B977B",
"P  c #68887B",
"I  c #564882",
"U  c #485886",
"Y  c #4E538D",
"T  c #54528B",
"R  c #59558E",
"E  c #56598A",
"W  c #545A94",
"Q  c #634681",
"!  c #774E89",
"~  c #66538B",
"^  c #695996",
"/  c #7B5A94",
"(  c #4B628B",
")  c #546984",
"_  c #536788",
"`  c #557285",
"'  c #577788",
"]  c #576A97",
"[  c #56629B",
"{  c #5B649C",
"}  c #577098",
"|  c #64788A",
" . c #797685",
".. c #666697",
"X. c #727594",
"o. c #5C6BA4",
"O. c #5A6CA6",
"+. c #5C74A8",
"@. c #5E75AD",
"#. c #5F78B0",
"$. c #686CA4",
"%. c #7C69A4",
"&. c #6777AA",
"*. c #6373AC",
"=. c #7479A8",
"-. c #617BB3",
";. c #6B7CB4",
":. c #657FBA",
">. c #6A7EB9",
",. c #727AB3",
"<. c #7C7EB3",
"1. c #993E82",
"2. c #8B4486",
"3. c #994788",
"4. c #915583",
"5. c #994C91",
"6. c #935A98",
"7. c #A2468B",
"8. c #A14C89",
"9. c #A84C92",
"0. c #B24D97",
"q. c #B14F99",
"w. c #AB5698",
"e. c #B15196",
"r. c #B2529A",
"t. c #8B6C89",
"y. c #8E5FA0",
"u. c #AB5AA0",
"i. c #BA5AA4",
"p. c #9B62A3",
"a. c #AA6DAB",
"s. c #A76DB2",
"d. c #CC6CB4",
"f. c #5A8C88",
"g. c #5B9A87",
"h. c #5E8494",
"j. c #608F8F",
"k. c #7C8787",
"l. c #679A89",
"z. c #739589",
"x. c #65869B",
"c. c #7D849A",
"v. c #629593",
"b. c #759995",
"n. c #5CA182",
"m. c #66A88A",
"M. c #76A78F",
"N. c #6AAC98",
"B. c #76AD96",
"V. c #68B396",
"C. c #6CB49B",
"Z. c #64BE99",
"A. c #6EBD9C",
"S. c #78B29C",
"D. c #72BB9C",
"F. c #7684A7",
"G. c #6685B4",
"H. c #6681BA",
"J. c #6D83BC",
"K. c #7984B9",
"L. c #6B90B0",
"P. c #75B8A6",
"I. c #73B1A9",
"U. c #67C09A",
"Y. c #6CC39D",
"T. c #71C39E",
"R. c #73C7A1",
"E. c #76C3A7",
"W. c #75C9A3",
"Q. c #79CAA6",
"!. c #7BCCA9",
"~. c #6D89C3",
"^. c #7489C3",
"/. c #7494C5",
"(. c #7493CC",
"). c #7A96CE",
"_. c #7999C9",
"`. c #7898D1",
"'. c #7A9CD3",
"]. c #79A3CB",
"[. c #7DA2DA",
"{. c #7FC2C3",
"}. c #8A9197",
"|. c #8BB09F",
" X c #8587B0",
".X c #8897BB",
"XX c #87BAA9",
"oX c #91B9AC",
"OX c #A8B5B8",
"+X c #83C3A7",
"@X c #82CEAB",
"#X c #89C7B3",
"$X c #8ECFB0",
"%X c #98C8B6",
"&X c #8AD2B2",
"*X c #B6C7BD",
"=X c #A3D6BD",
"-X c #8B91C8",
";X c #8896C8",
":X c #849BD3",
">X c #9BA9CC",
",X c #89AAD3",
"<X c #82A5DD",
"1X c #9BA9D8",
"2X c #A1AEC8",
"3X c #A3A3D2",
"4X c #84ABE3",
"5X c #8BAFE7",
"6X c #90AEE4",
"7X c #87B1E8",
"8X c #89B2EA",
"9X c #98BAED",
"0X c #8CB8F1",
"qX c #9ABDF3",
"wX c #A9BAEB",
"eX c #A1BEF1",
"rX c #ADBFF0",
"tX c #B6CAC4",
"yX c #AADEC2",
"uX c #BAD9C9",
"iX c #B7E0CA",
"pX c #9EC2F7",
"aX c #A4C2F5",
"sX c #ABC3F4",
"dX c #ABC6F9",
"fX c #B1C6F6",
"gX c #B3C8F9",
"hX c #B5CBF8",
"jX c #BBCCFB",
"kX c #BBD0FF",
"lX c #C8E5D3",
/* pixels */
"Y.T.T.T.R.T.T.T.T.R.W.R.T.T.A.Y.R.Y.T.T.T.T.R.R.R.T.T.T.T.W.R.T.T.Y.Y.T.T.T.T.T.T.T.W.R.T.T.T.R.R.W.R.D.Y.Y.Y.T.T.T.T.T.T.W.W.T.",
"T.R.R.!.Q.Q.R.R.R.!.!.!.R.Z.Y.Y.R.R.R.R.R.W.!.W.Q.R.R.R.!.!.!.R.Z.Y.Y.R.R.R.R.R.R.!.!.!.R.R.R.Q.!.!.!.Y.Y.Z.T.R.R.R.R.R.W.!.Q.Q.",
"T.R.R.Q.W.W.R.R.R.Q.R.Q.R.Y.T.T.R.W.W.R.R.R.W.R.W.R.R.R.W.W.W.T.Y.R.T.R.R.W.R.R.R.W.W.W.R.R.R.R.W.Q.R.Y.R.R.R.R.W.R.R.R.W.W.W.R.",
"T.R.R.R.R.R.R.R.R.R.R.R.R.R.R.R.W.!.!.W.R.R.W.R.R.R.R.R.R.R.W.W.R.R.R.W.!.!.W.R.R.R.R.R.R.R.R.R.R.R.R.R.R.R.W.!.!.Q.R.R.R.R.R.R.",
"T.R.R.R.R.R.R.R.R.R.R.R.R.R.R.R.W.W.W.W.R.R.R.R.R.R.R.R.R.R.R.R.R.R.R.W.W.W.W.R.R.R.R.R.R.R.R.R.R.R.R.R.R.R.R.R.W.W.R.R.R.R.R.R.",
"T.R.R.R.R.R.R.R.R.R.R.W.R.R.R.R.R.R.R.R.R.R.R.R.R.R.R.R.R.R.R.R.R.R.R.R.R.R.R.R.R.R.R.R.R.R.R.R.R.R.R.R.R.R.R.R.R.R.R.R.R.R.R.R.",
"T.R.R.R.R.R.R.R.R.R.R.R.R.R.R.R.R.R.R.R.R.R.R.R.R.R.R.R.R.R.R.R.R.R.R.R.R.R.R.R.R.R.R.R.R.R.R.R.R.R.R.R.R.R.R.R.T.W.R.R.R.R.R.R.",
"T.T.R.R.R.R.R.R.R.R.R.R.R.R.R.R.Y.Z.Y.Y.R.R.R.R.R.R.R.R.R.R.R.R.R.R.R.Y.Y.U.Y.R.R.R.R.R.R.R.R.R.R.R.R.R.R.R.R.Y.U.Y.R.R.R.R.R.R.",
"T.R.W.T.R.R.T.W.R.R.R.R.R.R.R.R.Y.Y.Y.T.R.R.R.R.R.R.R.R.R.R.R.R.R.R.R.R.T.Y.T.R.R.T.R.R.R.R.R.R.R.R.R.W.R.R.T.Y.Y.Y.W.R.R.R.R.R.",
"T.R.R.W.R.R.W.T.R.R.R.R.R.R.W.W.!.!.W.R.R.R.R.R.R.R.R.R.R.R.R.R.R.R.R.Q.W.W.W.T.R.W.R.R.R.R.R.R.R.R.R.W.R.R.Q.!.W.W.R.R.R.R.R.R.",
"T.T.Y.Y.R.R.T.W.R.W.T.R.R.R.T.Q.Q.Q.Q.R.Y.Y.Y.R.R.R.R.R.R.R.R.R.T.W.W.Q.W.!.+XQ.T.Q.D.A.C.A.C.C.C.C.C.C.A.C.V.W.!.R.T.U.Y.T.R.R.",
"Y.Y.Y.Y.R.R.W.T.Y.Y.R.R.R.R.R.R.R.W.T.T.Z.C.V.A.R.R.R.Y.Y.Y.R.R.Q.@X!.!.D.C.%XtXtX*X..T T T E T T T I Y Y c * C.R.R.Y.U.Y.Y.R.R.",
"T.T.W.T.T.W.W.Y.Y.U.Y.R.R.W.T.W.D.N.C.C.v.R R x.!.E.E.P.P.E.P.N.oXtXtXtX=.T R T E 1 ;XhXsXsX>X>X1X2XK.,X].` h.T.W.T.R.R.R.T.R.R.",
"T.T.W.!.!.!.T.W.R.R.R.R.T.Y.C.D.I.R R T ,.gXgXgXeX7X7X0X4X'.[.-.R R R I :XgXsX6X[._.K./.} ..& % % * * n.; * g.Y.R.W.R.W.W.!.@XW.",
"T.R.R.@X@X@XW.R.R.Y.C.I.E.b.E &.fXfXfXeX7X7X8X7X7X7X0X4X,.T Y ;XfXwX,X/.K.;X;.$.;.5 o % % w i 5.t.b.S.W.R.R.W.R.R.R.W.T.Q.@X@X!.",
"T.R.R.W.W.W.T.N.C.I.E $.gXdXrX7X8X8X5X8X8X8X8X7X8X7X'.W K.aX4X7XJ.I y 2 o 9 i 7.r.q.0.0.r.r.5.8.D.R.R.W.R.R.R.R.R.R.T.W.T.W.T.Q.",
"T.R.T.W.W.@Xm.E $.fXsX8X7X7X8X8X5X7X8X8X8X8X8X8X8X(.4 4 ;XaX4XJ.d i 1.r.q.r.r.q.r.0.e.r.e.8.S S S.T.W.T.R.R.R.W.R.R.R.R.R.R.R.R.",
"T.R.T.&X&XOX$.jXrX8X7X7X8X7X8X8X8X8X4X`.`.).'.8X0X( , K.aX7X~.s 1.r.q.q.q.q.q.q.0.r.r.e.7.S *XlX@XQ.T.W.Y.R.R.R.R.R.R.R.R.Q.W.R.",
"T.T.Q.OXOX$.jXrX7X8X8X8X8X8X7X8X8X4XJ.R Y 4 6 '.9X( $ K.aX(.v 1.r.q.q.q.q.q.q.q.r.r.e.8.S *XlXyX@X!.!.T.Y.U.T.R.R.R.R.R.W.!.!.Q.",
"T.W.#X{ ..;X1X7X8X7X8X8X8X8X8X8X4X,.K.wX%.t 7 x 0X] 4 ^.7XO.~ u.q.q.q.q.q.q.q.q.q.e.8.D *XlX=X!.!.W.W.Y.R.Y.R.R.Q.T.R.R.R.Q.R.R.",
"W.P.3XfXwX5 { ).8X7X7X8X8X8X8X4X>.<.wX%.A r.Z / 0X;.<.dX(.T d 5.r.q.q.q.q.q.q.q.q.w.i OXiXyXQ.T.R.R.R.R.R.R.W.!.!.Q.W.R.R.R.R.R.",
"T.l.u .XsXdX6X{ ).7X8X7X8X8X4X;.y.rX%.A d.d.1./ pXJ.,.eX(.~ y 1.9.q.0.0.e.q.q.q.q.w.b oX!.R.T.W.R.R.R.R.R.R.R.W.W.W.R.R.R.R.R.R.",
"A.L 0 a -X8XsX<XW ).8X7X8X4XJ.<.kX>XA i.d.d.9.! 1XK.^.4X~.#.H.~ 6.s.s.s.s.9.9.r.0.k.+XT.R.R.R.R.R.R.R.R.R.R.R.R.R.R.R.R.R.R.R.R.",
"P.D.q d u K.^.'.*.W `.[.'.K.<.jXpXK.5.i.d.d.3.p r <.dX(.-.@.W { :.'.[.'.7X%.p.s.p. .|.+XR.R.R.R.R.R.R.R.R.R.R.R.T.R.R.R.R.R.R.R.",
"Y.T.) 9 0 s r *.*.O.U *.[ $.gXeX].m a 3.9.d.Z q c =.aX(.*.I y v s ^ %.o.;.^.^.;XL.B.b.D.W.T.R.R.R.R.R.R.R.R.Y.Y.U.Y.R.R.R.R.R.R.",
"T.W.D.n 0 6.s =.*.W k W U '.dX4XL.t u C A D e 5 x $.0X(.I p 2.u.r.w.9.2.t x x B V.R.T.T.T.W.W.T.R.R.R.R.R.R.R.T.Y.Y.R.R.R.R.R.R.",
"T.T.T.D.w 2.y...H.[ O.W W 9XeX:X^ p 4.r.8.i q b. X~.5X$.r 1.r.e.r.A t.}. .P l.N.T.R.R.R.W.T.W.W.R.R.R.R.R.W.W.W.W.R.R.R.R.R.R.R.",
"Y.T.Y.A.n u ! &.qXqX0X[.o.8X8X<X^ u a.0.9.4.}.b.$.5X;.v 3.w.w.8.6. .M.!.E.Q.R.T.U.Y.R.R.T.W.R.R.R.R.R.R.R.R.!.W.Q.R.R.U.Y.T.R.R.",
"Y.Y.T.T.T.w ~ aXjXgX9X4X'.7X8X4X$.i 3.9.u V uXX.@.J.s 3.i.1.S n l.R.R.R.R.R.R.Y.U.Y.R.R.R.R.Y.Y.R.R.R.R.R.R.R.R.R.R.Y.U.Y.Y.R.R.",
"T.T.T.T.+Xv ;XkXjXjXgXqX7X5X8X8X:XQ i a & x F.[ { v 5.7.A 4. .B.R.R.R.R.R.R.R.R.R.R.R.R.R.R.Y.Y.Y.T.R.R.R.R.R.R.R.R.R.R.R.R.R.R.",
"T.T.T.T.z.2XF.L..X>XhXF.8X8X8X8X8X:X! r 4 Y [ @.c s 1.i u |.$XW.R.R.R.R.R.R.R.R.R.R.Q.!.R.R.R.R.R.R.R.R.R.R.R.R.R.R.R.R.W.W.!.R.",
"T.T.Q.T.; }.= = = g V $ (.8X8X8X8X8X7X*.^ `.~.E w 8 8 d b.T.W.W.R.R.R.R.R.R.R.R.R.Q.!.!.W.R.R.R.R.R.R.R.R.R.R.R.R.R.R.W.W.!.!.!.",
"T.W.T.T.h         . . + 6 4X8X7X8X7X8X:X~.0X[.<./ ^ y | R.R.R.R.R.R.R.R.R.R.R.R.R.R.W.R.W.R.R.R.R.R.R.R.R.R.R.R.R.R.R.R.R.W.W.W.",
"T.T.W.T.U.h           . @ Y 8X7X8X7X7X8X8X8X8X8X0X'.{ B n.R.R.R.R.R.R.R.R.R.R.R.R.R.R.R.R.R.R.R.R.R.R.R.R.R.R.R.R.R.R.R.R.R.R.R.",
"T.T.T.W.T.V.  > ;     % + < '.0X8X8X7X8X8X8X8X7X8X`.-.g z =XW.R.R.Y.R.R.R.R.R.R.R.R.W.W.R.R.R.R.W.W.R.R.R.R.R.R.R.R.R.R.R.W.R.R.",
"T.W.W.Q.Q.T.F > l ; X . + $ *.8X8X7X8X7X8X8X8X8X8X'.#.B B M.!.W.Y.Y.U.R.R.R.R.R.R.Q.!.Q.W.R.R.W.!.!.Q.Y.Y.U.Y.R.R.R.R.R.W.!.Q.W.",
"T.W.W.W.Q.@X*XX n l   . + $ R 0X8X8X7X8X8X7X8X8X<XJ.#.G.5 3 C.E.Y.R.T.R.W.W.R.R.R.W.W.W.R.R.R.R.W.W.W.R.R.Y.R.W.W.W.R.R.W.W.W.W.",
"T.T.R.R.T.@X|.X - -   . + $ *.7X8X8X8X8X8X8X8X8X'.#.#.#.( 6 B ' XXyX@XQ.!.!.W.R.R.R.R.R.R.R.R.R.R.R.R.R.R.R.W.Q.!.W.R.R.R.R.R.R.",
"T.R.R.R.T.T.T.O   . #   + 6 [.8X8X8X8X5X8X8X0X[.J.#.#.-.H.H.H.H.F.}.| ' oXyXyX@XW.R.R.R.R.R.R.R.R.R.R.R.R.R.W.W.W.W.R.R.R.R.R.R.",
"T.R.R.R.T.$Xz }.: 2 4 5 }.(.8X(.'.8X8X8X8X[.(.~.#.#.-.U U ~.<X7X(.>.J.>.F.F.c.| oXyX@XR.R.R.R.R.R.R.R.R.R.R.R.R.R.W.R.R.R.R.R.R.",
"T.T.R.R.@XuXk.}.c O.~.:XhXG.j W J.(.(.~.(.J.#.#.#.#.>.g + 3 ' {.].f.+.4X`.J.J.J.F.c.| ) ` %XyX!.R.R.R.R.R.R.R.W.R.R.R.R.R.R.R.R.",
"T.W.R.R.W.$X%Xj.h.W $.[ 5 g | x W -.-.@.#.#.#.#.-.>.U 6 k j g.R.W.n.g.B j g +.7X).J.~.~.J.=.c.' ` A.R.R.R.R.R.Y.U.Y.R.R.R.R.R.R.",
"T.W.R.R.W.W.T.T.R.j.f.g.F L #Xb.c.: j >.#.:.:.:.B 1 # X U ~.L.L.h.) N.n.M M g.B g g g -.7X(.~.^.~.C.R.R.R.R.Y.U.U.U.W.R.R.R.R.R.",
"T.T.R.R.T.T.Q.T.R.R.R.R.T.Y.T.@XE.H h 3 3 1 1 1 m P G L m = U H.+.[ G.x.} C.R.n.F F F v.P.c g g g m.R.R.R.R.W.W.W.R.R.R.R.R.R.R.",
"Y.R.Y.Y.W.W.R.R.R.R.R.R.R.R.R.W.!.!.V.F F F F N m.&XW.&XV.G f > = U H.O.{ G.| _ V.Y.T.W.R.K F F F A.R.R.R.W.Q.W.Q.R.R.U.Y.R.W.R.",
"Y.U.T.Y.W.T.R.T.Y.Y.T.R.R.R.R.R.T.T.T.T.U.Y.Y.W.R.R.R.T.Y.Y.n.G z.z : : ( H.O.{ ( ) ) V.R.T.Y.Y.W.W.R.R.R.R.R.R.R.R.Y.U.U.Y.R.R.",
"T.T.R.R.R.R.R.Y.Y.Y.Y.R.R.R.W.R.T.W.T.W.R.W.R.R.R.R.Y.U.Y.U.R.R.#Xm.G J f : : ( @.{ [ ] ) ) V.U.U.R.R.R.R.R.R.R.R.R.R.R.R.R.R.R.",
"T.R.R.W.!.W.R.R.R.R.T.R.R.R.W.T.W.T.W.T.W.T.W.!.W.W.W.R.Y.R.R.R.R.R.R.R.L K K f : = ] O.O.O.f m.R.R.R.R.R.R.R.R.R.R.R.R.W.W.Q.W.",
"T.R.R.@X@X@XW.R.R.R.R.R.R.R.R.R.R.R.R.R.R.R.!.!.@X!.R.R.R.R.R.R.R.R.R.R.R.W.W.L K |.g : : = k.R.R.R.R.R.R.R.R.R.R.R.R.R.W.!.@X!.",
"T.R.R.W.W.W.W.R.R.R.R.R.R.R.R.R.R.R.R.R.R.R.W.W.Q.W.R.R.R.R.R.R.R.R.R.R.R.W.W.R.T.&XL K K K @XQ.R.R.R.R.R.R.R.R.R.R.R.R.W.W.W.W.",
"T.R.R.R.R.R.R.R.R.R.R.R.R.R.R.R.R.R.R.R.R.R.R.R.R.R.R.R.R.R.R.R.R.R.R.R.W.R.R.R.T.T.R.R.T.T.R.R.R.R.R.R.R.R.R.R.R.R.R.R.R.R.R.R.",
"T.R.R.R.W.R.R.R.R.R.W.R.R.R.R.R.R.R.R.R.R.R.R.W.R.R.R.R.R.W.W.W.R.R.R.R.R.R.R.R.T.T.W.R.T.W.R.R.R.W.R.R.R.R.R.R.R.R.R.R.R.W.R.R.",
"T.R.W.W.!.W.R.R.W.!.!.!.R.Y.Y.U.R.R.R.R.R.W.W.Q.Q.W.R.R.W.!.Q.W.U.U.U.W.R.R.R.R.Q.Q.@XQ.W.R.R.Q.Q.!.Q.Y.U.Y.Y.W.R.R.R.R.Q.!.Q.Q.",
"T.R.W.W.W.W.R.R.R.W.W.W.R.Y.T.Y.W.W.W.R.R.W.W.R.W.R.R.R.W.W.W.W.Y.R.R.R.R.W.R.R.T.Q.W.W.R.R.R.R.W.W.W.Y.R.Y.R.R.W.R.R.R.W.W.W.R.",
"T.R.R.R.R.R.R.R.R.R.R.R.R.R.R.R.W.!.Q.W.R.R.R.R.R.R.R.R.W.R.R.R.R.R.R.W.Q.!.W.R.R.R.W.T.R.R.R.R.W.R.R.R.W.R.W.Q.!.W.R.R.R.R.R.R.",
"T.T.R.W.R.R.R.R.R.R.R.R.R.R.R.R.W.W.Q.R.R.R.R.R.R.R.R.R.R.R.R.R.R.R.R.W.W.W.W.R.R.R.R.W.R.R.R.R.R.R.R.R.R.R.R.W.W.Q.R.R.R.R.R.R.",
"Y.W.R.R.R.R.R.R.R.R.R.R.R.R.R.R.R.R.R.R.R.R.R.R.R.R.R.R.R.R.R.R.R.R.R.R.R.R.R.R.R.R.R.R.R.R.R.R.R.R.R.R.R.R.R.R.R.R.R.R.R.R.R.R.",
"T.R.R.R.R.R.R.R.R.R.R.R.R.R.R.R.R.R.R.R.R.R.R.R.R.R.R.R.R.R.R.R.R.R.R.R.R.R.R.R.R.R.R.R.R.R.R.R.R.R.R.R.R.R.R.R.R.R.R.R.R.R.R.R.",
"T.R.R.R.R.R.R.R.R.R.R.R.R.R.R.R.Y.Y.Y.R.R.R.R.R.R.R.R.R.R.R.R.R.R.R.R.R.Y.U.R.R.R.R.R.R.R.R.R.R.R.R.R.R.R.R.R.Y.U.R.R.R.R.R.R.R.",
"T.R.R.R.R.R.R.R.R.R.W.R.R.R.R.R.Y.U.U.Y.R.R.R.R.R.R.R.R.R.R.R.R.R.R.R.Y.Y.U.U.R.R.R.R.R.R.R.R.R.R.R.R.R.R.R.R.U.U.Y.R.R.R.R.R.R.",
"T.R.R.R.R.R.R.W.R.R.R.R.R.W.R.W.Q.W.R.R.R.R.R.R.R.R.R.R.R.R.R.R.R.R.W.W.W.W.W.R.R.R.R.R.R.R.R.R.R.R.W.R.R.R.W.W.R.R.R.R.R.R.R.R.",
"Y.R.Y.Y.R.R.R.R.R.R.R.R.R.R.R.W.Q.Q.W.R.R.Y.Y.R.R.R.R.R.R.R.R.R.R.W.W.W.W.Q.R.R.U.Y.R.R.R.R.R.R.R.R.R.R.R.W.Q.W.Q.R.R.U.Y.R.R.R.",
"Y.Y.Y.U.R.R.R.R.R.Y.R.R.R.R.R.R.R.R.R.R.U.Y.U.R.R.R.R.R.R.R.R.R.R.R.R.R.R.R.R.U.Z.Z.Y.R.R.R.W.R.R.R.R.R.R.R.R.R.R.R.U.U.U.U.R.R.",
"Y.Y.R.R.R.R.R.Y.U.U.R.R.R.R.R.R.R.R.R.R.Y.R.R.R.R.R.Y.U.Y.U.R.R.R.R.R.R.R.R.R.Y.R.R.R.R.R.R.U.U.U.R.R.R.R.R.R.R.R.R.R.R.R.R.R.R."
};
