/* XPM */
static char *_21677503953[] = {
/* columns rows colors chars-per-pixel */
"64 64 155 2 ",
"   c #070707",
".  c gray3",
"X  c #0B0B0B",
"o  c #0C0C0C",
"O  c #0E0E0E",
"+  c gray6",
"@  c #0F1110",
"#  c #101010",
"$  c #121312",
"%  c #121413",
"&  c #131615",
"*  c #141816",
"=  c #1F2C26",
"-  c #22312A",
";  c #701A57",
":  c #701B57",
">  c #701F57",
",  c #701A58",
"<  c #701F58",
"1  c #702058",
"2  c #70315F",
"3  c #463F78",
"4  c #473F78",
"5  c #463E79",
"6  c #473F79",
"7  c #483F78",
"8  c #483F79",
"9  c #703762",
"0  c #5F5F5F",
"q  c #45715D",
"w  c #474078",
"e  c #474079",
"r  c #484178",
"t  c #494278",
"y  c #494479",
"u  c #4A477A",
"i  c #4D4C7C",
"p  c #4C4D7C",
"a  c #4F577F",
"s  c #606060",
"d  c #72767D",
"f  c #4F846C",
"g  c #536182",
"h  c #576F87",
"j  c #5A7B8B",
"k  c #5D7E8E",
"l  c #5F78B0",
"z  c #6078B0",
"x  c #6079B0",
"c  c #6078B1",
"v  c #6079B1",
"b  c #B04F98",
"n  c #B04F99",
"m  c #B14F99",
"M  c #AF5197",
"N  c #AF5198",
"B  c #AC5999",
"V  c #AA5D99",
"C  c #B05098",
"Z  c #B15099",
"A  c #A5669A",
"S  c #A06F9A",
"D  c #D170B8",
"F  c #D070B9",
"G  c #D170B9",
"H  c #5F878D",
"J  c #618E8F",
"K  c #728182",
"L  c #659993",
"P  c #60A485",
"I  c #67B08F",
"U  c #67A296",
"Y  c #69A097",
"T  c #6AA998",
"R  c #6CAF9A",
"E  c #72A592",
"W  c #6BB895",
"Q  c #63BF99",
"!  c #65BF99",
"~  c #6EBC98",
"^  c #6FB99D",
"/  c #6FBB9D",
"(  c #6693AB",
")  c #689AAA",
"_  c #699FA8",
"`  c #6486B0",
"'  c #7BBDBD",
"]  c #65C099",
"[  c #67C19B",
"{  c #6BC19B",
"}  c #68C29B",
"|  c #6CC19B",
" . c #6FC09B",
".. c #69C29C",
"X. c #6AC39C",
"o. c #6DC19C",
"O. c #6CC49E",
"+. c #6DC49E",
"@. c #6EC49E",
"#. c #6FC59F",
"$. c #71C39E",
"%. c #71C49E",
"&. c #70C59F",
"*. c #72C49F",
"=. c #72C4A0",
"-. c #70C6A0",
";. c #73C7A1",
":. c #73C7A2",
">. c #76C7A3",
",. c #74C8A2",
"<. c #74C8A3",
"1. c #76C9A3",
"2. c #76C9A4",
"3. c #78CAA4",
"4. c #78CBA6",
"5. c #79CBA7",
"6. c #7ACBA6",
"7. c #7CCCA7",
"8. c #7FCBA8",
"9. c #7ACCA8",
"0. c #7ACCA9",
"q. c #7BCDA9",
"w. c #7FCDA9",
"e. c #7CCDAA",
"r. c #94879C",
"t. c #80CEAA",
"y. c #84D0AC",
"u. c #8FCFB1",
"i. c #99D3B6",
"p. c #A3D6BC",
"a. c #A3D6BD",
"s. c #81B8CF",
"d. c #83B6D6",
"f. c #83B5D8",
"g. c #84B4DB",
"h. c #88B0E8",
"j. c #88B1E8",
"k. c #89B1E8",
"l. c #88B0E9",
"z. c #89B0E9",
"x. c #88B1E9",
"c. c #89B1E9",
"v. c #AED9C3",
"b. c #B0DAC4",
"n. c #B5DCC6",
"m. c #BCDECA",
"M. c #B9C8F8",
"N. c #B8C9F8",
"B. c #B9C9F8",
"V. c #B9C8F9",
"C. c #C5E1D0",
"Z. c #C7E2D1",
"A. c #C7E1D2",
"S. c #C8E2D2",
"D. c #F8F8F8",
/* pixels */
" .%.%.;.>.%.%.%.;.$.<.<.$. . . .X.%.%.%.%.%.;.-.@.*.%.:.%.<.>.%.%. .o.%.%.o.%.%.&.*.4.*.*.&.&.&.3.:.%.%.X.#.@.%.%.;.%.-.%.<.<.%.",
"$.;.>.5.0.2.;.;.>.0.e.0.>.! X.} :.:.%.:.%.<.3.3.e.<.%.%.5.e.e.<.] } } :.<.;.%.2.&.q.q.4.<.3.*.4.e.e.6.X.X.} %.;.@.%.2.%.2.6.6.6.",
"$.;.;.2.>.;.;.;.;.2.<.2.&.X.:.-.:.3.:.:.3.@.6.3.3.@.<.&.2.<.<.%.@.%.%.:.<.<.2.%.#.3.3.&.&.<.%.<.3.3.<.%.%.#.:.3.6.2.-.2.<.2.<.:.",
"$.;.;.;.;.;.;.;.;.;.;.;.<.:.:.:.6.e.3.3.@.3.-.<.@.3.@.3.%.<.<.2.<.:.:.2.6.0.2.<.3.&.#.3.*.<.3.%.:.%.:.:.:.&.3.3.6.3.2.@.<.%.2.%.",
"$.;.;.;.;.;.;.;.$.>.;.;.&.<.<.*.3.<.3.:.%.<.<.=.3.@.;.$.2.$.%.:.<.%.%.<.<.2.<.<.3.@.3.@.3.@.3.@.%.:.3.@.3.@.&.3.&.3.#.3.<.<.%.<.",
"$.;.;.;.;.;.;.;.<.7.b.Z.S.v.t.<.:.3.:.:.<.<.$.;.@.3.$.J y y $ 6.<.<.<.<.<.%.%.<.@.3.@.3.@.3.@.3.%.:.@.3.@.3.<.<.3.#.3.#.*.<.&.<.",
"$.;.;.;.;.;.;.;.<.S.4 5 4 S.Z.C.@.%.<.<.<.%.;.;.3.<./ B.x.1 1 q &.*.%.<.<.%.<.*.3.@.3.@.3.@.3.#.3.<.&.&.3.@.3.%.%.:.#.3.3.&.*.3.",
"$.;.;.;.;.;.;.;.n.r M.M.M.o r Z.@.] X.%.%.<.<.%.@.u M.j.> C M 9 #.3.<.%.} } %.<.@.3.@.3.@.3.#.3.%.<.<.<.@.3.@.X.] #.3.&.&.&.3.&.",
"&.@.<.@.3.@.2.@.%.r < x.M.M.x.5 %.o...:.:.:.:.:.7 M.k.> m D m k ,.3.#.#.#.} #.:.&.&.<.<.3.,.#.#.@.3.#.3.&.,.:.#.O.O.<.<.&.&.*.3.",
"%.3.&.:.@.2.%.:.<.S.1 1 x.x.M.x.r 5.2.:.&.:.:.r M.M.> Z D D D ;.,.#.3.4.3.3.:.:.,.,.<.&.&.*.,.,.3.#.3.#.<.:.3.3.3.:.%.&.<.<.3.&.",
"%.%.@.X.3.@.:.;.;.S.1 C > k.x.x.z k >.>.@.v.5 M.M.k.Z Z D D F E :.%.3.3.3.3.3.&.} @.%.<.&.<.%.:.@.3.*.3.<.<.6.3.4.&.&.X.X.#.&.&.",
"$.X.@.:.@.3.%.@.o.Z.S.1 1 1 1 x z l j >.} 5 M.M.k.> 1 Z Z D C d ,.:.3.&.,.:.%.X.} X.&.<.<.<.%.X.%.@.&.<.<.&.@.3.&.<.&.X.X.#.#.3.",
"%.%.<.%.$.>.$.@.} Z.S.> 1 C > z z z r a.r z V.c.k.> 1 1 1 b C ;.#.,.@.3.@.3.@.&.%.:.,.#.3.&.} #.} #.,.,.3.@.3.@.3.@.3.@.,.&.3.%.",
"%.<.<.6.t.5.:.<.>.;.S.S.1 C C z z r r r 8 c.V.c.z > 1 C C 1 1 ;.#.,.3.#.3.@.3.@.:.3.e.3.3.3.:.@.&.3.,.#.@.3.@.3.@.3.@.3.3.6.y.3.",
"%.<.<.y.t.y.:.;.>.;.n.S.1 1 C 5 c.c.x.x.8 x.c.c.z > C C b C ;.;.3.3.#.3.@.3.@.3.:.4.y.y.6.%.:.3.#.3.,.#.3.@.3.@.3.@.<.&.6.q.y.7.",
"%.%.%.<.<.>.<.;.;.;.>.m.S.< < x.V.V.c.x.z x.c.x.z > C C N , ;.;.&.&.3.#.3.@.3.@.&.<.*.3.%.:.3.#.3.&.&.3.@.3.@.3.@.3.%.3.%.<.:.:.",
"%.%.@.:.-.%.2.%.:.:.:.:.p.1 v B.N.N.B.j.c.c.c.c.c., < b < & ;.;.%.<.*.*.<.<.;.<.,.:.:.:.3.@.3.#.#.&.,.:.,.:.&.&.*.3.3.,.#.,.:.&.",
"%.2.;.<.<.<.@.3.:.:.3.:.:.( j.B.B.B.B.B.c.c.c.c.c.c.< < + i 2.;.<.%.<.<.%.%.<.%.:.%.3.3.@.3.#.:.3.3.<.&.#.&.<.<.3.#.&.&.3.,.3.:.",
"%.<.2.6.0.6.3.@.:.6.e.3.%.x N.B.B.B.B.B.c.c.c.c.c.c.l.l e ` e.>.X.X.X.%.<.<.;.:.:.3.q.3.3.<.&.6.q.q.4.O.} X.#.:.&.&.3.3.3.q.3.3.",
"%.%.:.3.<.3.@.3.<.3.3.6.U j.j.j.j.j.j.B.c.c.c.c.c.c.c.6 x.x.x.x.k.a u <.<.<.:.:.:.3.:.3.<.%.:.2.q.3.*.#.#.#.:.3.3.,.&.&.:.3.3.,.",
"%.@.3.@.<.&.<.&.%.:.<.&.P D.r r 8 8 D.. y x.x.x.c.c.c.8 v c.c.c.k.j.) Y 6.6.3.:.:.3.#.:.>.:.%.%.&.&.3.#.3.#.3.3.q.4.&.*.:.#.:.:.",
"%.3.@.3.&.<.@.3.<.:.%.<.I o @ @ + # # # % z x.x.c.c.c.c.8 8 v c.k.j.j.j.r r i.:.%.:.#.:.$.2.:.<.<.<.&.&.#.3.&.3.4.&.4.%.:.:.<.&.",
">.@.3.@.3.@.3.@.>.$.2.%.<.%.@ 0 s % + + # % z x.c.c.c.c.c.c.8 v x.j.j.j.x.d.h T %.&.3.:.;.=.;.;.%.*.3.3.3.@.3.@.*.&.O.4.#.3.<.&.",
"%.%.@.3.@.3.@.3.;.<.$.;.;.>.Z.@ 0 0 + % + % r x.c.c.c.c.c.c.c.8 x.j.j.j.j.j.k.k.y y n.6.;.;.=.:.<.*.,.#.@.3.@.3.*.*.3.O.3.&.<.<.",
"*.2.%.3.3.@.3.@.3.@.3.@.%.<.S.@ 0 s # # # # 5 x.x.c.c.c.c.c.c.e z x.c.c.c.c.c.z.c.g.j L / :.2.:.%.<.<.<.:.&.#.X.} &.&.3.&.&.&.3.",
"*.%.3.@.@.3.@.3.@.3.@.3.:.:.* @ + + # # # # z x.x.c.c.c.c.c.c.c.r x.c.c.c.c.c.x.c.c.j.j.g.a u y a i.%.%.:.,.&.X.@.@.,.3.&.3.#.,.",
";.@.@.3.3.@.:.:.3.@.3.@.:.%.f D.8 8 8 8 D.r x.x.c.c.c.c.c.c.c.v r x.x.x.c.c.c.c.c.c.c.M.M.M.M.s.( g R &.&.3.3.3.&.3.&.&.3.#.,.,.",
"%.%.@.%.@.3.&.:.@.3.@.3.:.%.:.x x.x.z.z.c.c.c.x.c.c.c.c.c.c.c.v 8 x.x.x.V.V.V.V.B.v v v l.l.l l x x u J :.:.q.&.q.&.&.X.X.#.3.#.",
" .X.;.} %.2.<.%.#.#.#.&.3.#.6.r 8 z x.x.x.x.z z c.c.c.c.c.c.v v r M.c.c.c.c.c.c.j.j.j.c.v v v v x # Z.:.@.3.@.3.&.3.@.X.X.&.3.#.",
"%.%.%.%.2.%.%.%.@.X.&.<.@.3.u.@ z r r 5 z z z x.c.c.c.c.v v v v z y c.c.c.c.z z v v v v v v v z x o :.:.3.#.3.@.*.&.&.&.&.&.#.3.",
"%.%.<.<.6.<.*.<.#.:.<.%.3.%.W _ z > b b o 8 z z z z v v v v v z z r B.c.c.z z z v v v v v v z z z l . Z.#.3.&.#.3.3.&.3.%.4.q.*.",
"%.:.<.e.y.e.3.%.3.@.&.~ @ j.j.x 2 A r.b C r r z z z v v v v v z z r V.c.c.z z z v v v v v v z z z l o r 3.#.3.3.&.#.%.4.*.q.t.t.",
"%.<.<.<.<.<.%.<.;.>.r c.c.z z z 8 8 8 < < b b . + z z z z z z % % z 8 x.x.z z z v v v v v v v v v v v o 5 ^ :.=.;.:.;.>.-.2.<.<.",
"@.<.*.%.*.<.<.=.>.V.V.c.< < < 8 8 z z z c.x.x.x.x.+ % + # # # # z z r M.x.z z z v v v v v v v v v v l l + c.j.' =.:.;.;.<.@.*.<.",
"%.%.<.:.<.<.=.>.M.M.V.c., b b C b < < < < 8 8 8 5 8 z z z z z z % z 8 M.c.v z z v v v v v v v v v v v v v + = - ;.:.=.;.:.<.<.<.",
"%.<.<.3.6.6.;.;.r M.c.x.x., C C b b b b b b b C b > , < < < # # % % % r c.c.v v v v v v v v v v v v v v l l + & u.:.;.:.<.6.6.6.",
"%.<.<.3.<.<.>.;.;.8 M.x.x.z < b b C b b b b m m b b b b b b C b ; ;.-.>.c.c.c.l l l l v l l l l v v v v v v v v  .<.<.<.<.<.<.*.",
"%.%.<.%.;.;.%.;.-.;.r M.x.x.z < b C Z m Z m m m b b b b b b C < Z.;.;.2.2.r e c.l.c.c.l l l l x v v v v v v v v x x %.<.<.<.<.<.",
"*.<.%.3.;.;.;.;.;.;.;.5 M.x.j.x 1 m C C Z b m m m m b b b b b < Z.;.;.;.>.0.0.;.5 r e e x.x.k.x v l l v v v v v x x z z x . . *.",
"%.%.<.%.;.;.;.;.;.;.;.S.8 l j.j.x % 1 C C C b Z b Z m b C C b < Z.;.;.;.;.;.;.;.A.. o l r r e e e . c.c.c.v v v l l x x x x x . ",
"%.%.%.3.@.3.@.3.&.6.&.6.:.y y x z z z r > C C C C C b N N M V C , Z.;.;.;.;.;.;.;.;.;.  . z z y Z.Z.e e e e e e e e e e e e   Z.",
"%.:.<.%.3.@.3.@.&.6.&.%.<.@.&.u 8 r z z z z 8 r # > B N C b S C n < o Z...! +.>.;.;.;.;.%.. o l   Z.:.&.:.:.@.} ] @.:.;.:.%.:.:.",
"%.<.%.5.@.3.@.3.&.&.%.6.&.3.@.#.} ! 5 5 8 z z z l 4 u r # 1 N N C C 1 1 o   } ;.;.;.;.;.%.2.-.    Z.*.3.:.&.#.} } X.:.:.;.;.:.%.",
"%.;.<.%.3.@.3.@.&.6.#.@.3.%.3.<.7.5.>.$.S.5 8 r l x x x z z z z z z z z z l + ;.;.;.;.;.2.@.2.;.:.:.<.&.:.:.3.3.:.:.%.:.;.;.:.:.",
"X.#.X.@.@.3.@.3.-.@.-.:.@.3.@.6.6.6.6.%.$...@.<.e e 5 e r r u . . . .   .     ;.! +.=.;.<.;.;.-.:.<.*.<.3.:.3.<.3.;.@.} ..@.$.<.",
" .X.#.X.3.@.#.@.@.@.@.6.3.%.2.@.%.<.;.@.} o.} :.2.%.%.@.X.#.Z.Z.S.S.;.;.;.;.;...} o.$.>.;.-.-.-.:.&.3.*.@.3.;.:.2.:.X.} ..;.%.<.",
"%.%.#.3.%.:.3.X.@.@.@.3.@.3.6.;.2.@.;.<.%.<.>.;.<.:.@.] } X.3.&.;.;.;.;.;.;.;.;.;.:.=.$.;.@.] X.X.&.&.,.3.@.3.@.%.<.@.3.2.@.<.%.",
"%.<.:.3.6.3.:.%.@.-.@.@.3.@.@.2.@.2.:.-.<.%.<.5.<.:.:.&.:.:.#.3.;.;.;.;.;.;.;.;.:.:.5.5.;.>.;.%.#.&.3.&.@.3.@.3.%.<.3.%.<.6.6.2.",
"%.%.<.q.y.y.<.6.&.&.&.6.&.6.:.@.3.#.3.@.3.@.q.y.y.q.&.3.<.&.<.*.3.@.3.@.3.@.3.#.<.7.q.y.6.3.3.&.:.&.<.:.&.&.3.3.,.#.3.O.6.7.y.t.",
"%.:.<.3.%.6.&.&.&.6.&.6.&.%.%.6.#.3.@.3.@.3.3.3.*.&.*.&.<.&.<.&.@.3.@.3.@.3.#.3.%.&.3.3.,.&.&.&.:.:.<.%.3.#.&.&.#.3.O.3.&.4.4.*.",
"%.3.%.<.&.<.3.@.&.&.&.&.%.4.&.&.3.#.<.&.3.@.3.&.3.#.3.&.:.,.:.,.3.@.3.@.3.@.,.#.<.<.@.&.#.,.&.3.*.*.:.%.:.:.,.:.3.#.3.O.4.&.&.&.",
"%.&.<.-.<.3.@.3.&.6.6.&.3.&.@.6.*.&.<.,.@.3.@.3.@.3.#.3.&.3.,.,.3.#.@.3.@.3.,.#.*.&.3.3.#.,.3.&.3.<.<.<.%.3.#.&.#.,.#.3.%.4.&.3.",
"%.@.<.3.6.6.3.@.3.6.q.q.@.X.X.X.:.:.:.:.&.,.3.3.3.3.3.#.3.q.3.,.X.X.X.%.:.:.:.,.3.3.q.3.&.*.3.3.q.q.3.O.X.X.#.:.3.&.&.&.&.y.4.4.",
"%.<.3.<.:.:.&.<.:.<.3.6.3.@.#.%.:.:.:.#.,.:.3.&.3.&.#.,.3.3.3.,.X.%.&.<.,.:.#.:.#.3.3.3.3.@.&.3.3.3.3.&.#.#.:.:.3.&.3.3.4.*.4.&.",
"%.:.%.3.2.&.<.&.:.%.3.@.3.@.#.&.3.e.6.<.,.&.@.3.&.&.3.,.&.&.3.:.&.:.<.<.3.e.3.#.#.,.,.:.@.3.@.3.:.<.%.&.:.:.:.3.q.3.,.#.3.*.&.3.",
"%.:.3.@.%.<.&.<.<.<.@.3.@.3.@.3.3.3.3.<.<.<.3.@.3.&.:.#.,.:.:.#.<.:.3.*.3.3.3.,.,.:.#.:.3.@.3.@.&.<.<.*.&.3.,.3.4.,.3.&.&.&.3.*.",
"%.3.@.3.@.3.@.3.&.<.@.3.@.3.@.3.:.:.%.:.:.#.@.3.3.@.3.@.3.#.3.&.*.&.#.&.3.#.3.#.#.3.#.3.O.3.@.3.O.3.%.3.&.,.:.:.,.#.<.&.*.3.#.3.",
"#.@.3.@.3.@.3.@.&.*.3.@.3.@.3.@.%.:.3.%.:.3.3.@.@.3.@.3.#.3.#.&.,.3.3.&.#.3.O.3.,.,.3.#.3.O.3.@.4.O.3.O.<.:.&.:.:.,.<.&.3.#.3.#.",
"O.%.@.3.@.3.#.3.3.3.#.3.@.3.@.3.#.} X.#.#.3.@.3.3.@.3.@.3.#.&.3.#.#.3.#.X.} &.3.:.#.3.#.O.*.&.3.%.*.#.3.<.&.#.O.} #.:.&.@.3.@.3.",
"*.&.3.@.3.@.3.#.,.#.3.#.3.@.3.@.} } ] #.3.#.3.@.@.3.@.3.@.3.&.3.,.,.&.#.X.X.&.&.3.&.&.,.4.%.4.%.4.&.3.&.<.<.#.} } } &.3.3.@.3.@.",
"*.%.4.%.3.&.&.3.#.,.:.3.@.3.@.3.q.3.:.:.#.,.3.&.3.@.3.@.3.&.&.#.%.:.<.3.3.&.:.:.&.3.%.,.#.,.&.3.%.3.@.3.&.3.3.3.,.:.&.%.@.#.3.@.",
"%.&.%.%.&.3.3.#.3.,.#.&.3.@.3.&.4.3.3.:.#.X.#.,.@.3.@.3.*.*.3.,.<.&.3.6.3.3.&.#.] #.#.:.,.3.&.&.3.@.3.@.&.3.3.3.3.3.&.X.#.#.@.3.",
"X.X.X.} &.*.<.&.#.%.%.&.3.&.&.&.,.,.<.#.} O.X.#.&.&.&.&.#.&.&.4.<.&.3.@.%.<.:.X.] X.&.&.,.#.&.&.&.&.@.3.3.@.3.#.:.:.O.] X.#.3.@.",
"%.#.%.#.<.<.&.X.} X.#.3.#.#.3.3.#.3.*.<.&.&.#.&.3.3.#.X.X.X.3.&.*.<.&.<.<.<.%.#.&.#.3.&.3.&.X.X.@.%.3.@.@.3.#.:.3.&.&.#.#.&.@.3."
};
