/* XPM */
static char *_51677503952[] = {
/* columns rows colors chars-per-pixel */
"64 64 236 2 ",
"   c #030404",
".  c #03050C",
"X  c #07080B",
"o  c #0E0E0F",
"O  c #040617",
"+  c #0E131A",
"@  c #19151A",
"#  c #0F152E",
"$  c #121729",
"%  c #29122D",
"&  c #1A212F",
"*  c #1D2334",
"=  c #1C2539",
"-  c #2B2A2D",
";  c #252938",
":  c #2B4E3F",
">  c #292946",
",  c #2F2F4B",
"<  c #313B4F",
"1  c #353C56",
"2  c #373D67",
"3  c #5A1D4A",
"4  c #6C114F",
"5  c #6B1654",
"6  c #5A2854",
"7  c #433D5B",
"8  c #6A295B",
"9  c #77205F",
"0  c #741D60",
"q  c #52306E",
"w  c #593974",
"e  c #612566",
"r  c #762663",
"t  c #70336B",
"y  c #7B3879",
"u  c #374D48",
"i  c #374956",
"p  c #355350",
"a  c #374465",
"s  c #3F506F",
"d  c #49544E",
"f  c #4A5859",
"g  c #57575A",
"h  c #476857",
"j  c #435765",
"k  c #4B4A7D",
"l  c #544E72",
"z  c #465279",
"x  c #44557B",
"c  c #6F507A",
"v  c #4F6D6E",
"b  c #4D677A",
"n  c #64726A",
"m  c #6D6E74",
"M  c #85286A",
"N  c #862A6C",
"B  c #81366E",
"V  c #912F73",
"C  c #893674",
"Z  c #96367C",
"A  c #914C7E",
"S  c #8F5D7F",
"D  c #4E876E",
"F  c #4F8A70",
"G  c #518C71",
"H  c #58987B",
"J  c #60997E",
"K  c #7E3F82",
"L  c #4A4B85",
"P  c #4A4B89",
"I  c #514D85",
"U  c #514E89",
"Y  c #4B5C83",
"T  c #4B5A87",
"R  c #535A88",
"E  c #4F5690",
"W  c #535B94",
"Q  c #575A95",
"!  c #674683",
"~  c #774685",
"^  c #65578A",
"/  c #6C5993",
"(  c #4E648C",
")  c #546C83",
"_  c #54698A",
"`  c #547383",
"'  c #567D84",
"]  c #55659E",
"[  c #5B649B",
"{  c #596B99",
"}  c #5B7597",
"|  c #6D7A87",
" . c #64699D",
".. c #78629D",
"X. c #66779B",
"o. c #5C6BA5",
"O. c #5C6BA6",
"+. c #5D77A6",
"@. c #5E74AC",
"#. c #5F79B1",
"$. c #676DA5",
"%. c #7D69A5",
"&. c #6475A5",
"*. c #6273AC",
"=. c #627BAD",
"-. c #7176A9",
";. c #627BB3",
":. c #667BB5",
">. c #767BB4",
",. c #9D3C82",
"<. c #884D8A",
"1. c #984884",
"2. c #985287",
"3. c #8E5A9A",
"4. c #A4438B",
"5. c #A9478E",
"6. c #AB4B94",
"7. c #AF4F98",
"8. c #B24D97",
"9. c #B14F99",
"0. c #A05096",
"q. c #B4519B",
"w. c #B8529D",
"e. c #896985",
"r. c #906986",
"t. c #B85BA4",
"y. c #886FA9",
"u. c #AE69AA",
"i. c #A76DB2",
"p. c #CD6BB5",
"a. c #CE6DB6",
"s. c #5B848C",
"d. c #5C9A87",
"f. c #5E8494",
"g. c #65888A",
"h. c #748A86",
"j. c #729382",
"k. c #719B8E",
"l. c #628397",
"z. c #669895",
"x. c #769593",
"c. c #5CA081",
"v. c #64A88A",
"b. c #65A394",
"n. c #69AA99",
"m. c #6EAE98",
"M. c #6BB498",
"N. c #64BF99",
"B. c #6EBD9C",
"V. c #71B69A",
"C. c #72BD9E",
"Z. c #6483AD",
"A. c #678CA8",
"S. c #7B87A6",
"D. c #6794AB",
"F. c #6688B2",
"G. c #6681BA",
"H. c #6B84BC",
"J. c #7884B8",
"K. c #6CA5A4",
"L. c #6DB3A4",
"P. c #74BBA5",
"I. c #73A5B2",
"U. c #79B7B6",
"Y. c #67C09A",
"T. c #6CC39D",
"R. c #71C49E",
"E. c #73C7A1",
"W. c #7AC4A5",
"Q. c #75C9A3",
"!. c #79CAA6",
"~. c #7BCCA9",
"^. c #7CC5BD",
"/. c #6E8DC5",
"(. c #728BC3",
"). c #748AC4",
"_. c #6F90C7",
"`. c #7494CB",
"'. c #7B98CE",
"]. c #789AD2",
"[. c #7B9CD4",
"{. c #7EADCE",
"}. c #7DA2DA",
"|. c #7FC4C1",
" X c #8A9497",
".X c #8FA194",
"XX c #8D94AE",
"oX c #8286B9",
"OX c #AB88AB",
"+X c #8FACAD",
"@X c #9BAAB6",
"#X c #A2AAA9",
"$X c #A5B5B6",
"%X c #B2B1B3",
"&X c #82CEAB",
"*X c #89CAAB",
"=X c #8ECBB2",
"-X c #8CD5B2",
";X c #94D5B6",
":X c #AAC8BA",
">X c #B2CABC",
",X c #A3D9BE",
"<X c #8D96CB",
"1X c #859DD5",
"2X c #A299CB",
"3X c #84B0CD",
"4X c #82A4DD",
"5X c #8CA6D9",
"6X c #99A9DB",
"7X c #A5B4D7",
"8X c #85ACE4",
"9X c #89AFE4",
"0X c #87B2E6",
"qX c #89B2EA",
"wX c #92B4EB",
"eX c #95B5EB",
"rX c #96B9EF",
"tX c #95BBF1",
"yX c #9EBDF2",
"uX c #A6B8E9",
"iX c #A4BFF2",
"pX c #8DC7C6",
"aX c #99C4CA",
"sX c #93C9C9",
"dX c #B8CFC6",
"fX c #A8DAC1",
"gX c #BDD5C6",
"hX c #B4E5CB",
"jX c #A9C3F4",
"kX c #AAC2F4",
"lX c #B2C4F4",
"zX c #B7C9F6",
"xX c #BBCCFB",
"cX c #BBD1FF",
"vX c #CAE6D4",
"bX c #C7D0E9",
/* pixels */
"T.R.R.R.E.R.R.R.R.E.W.R.R.R.T.T.T.E.E.R.R.R.E.E.E.R.R.R.R.W.R.R.R.Y.P.T.R.R.R.R.E.E.Q.E.E.C.E.E.E.Q.E.P.T.T.T.R.R.R.T.R.E.E.E.R.",
"R.E.E.~.!.!.E.E.E.~.~.~.E.Y.T.Y.Q.T.E.E.E.E.~.Q.!.E.E.E.~.&X&XQ.Y.T.N.E.Q.E.Q.R.E.!.!.!.Q.E.E.Q.!.~.!.Y.T.Y.R.E.E.E.E.E.!.~.!.!.",
"R.E.E.!.Q.Q.E.E.E.!.E.!.R.T.R.R.E.Q.Q.E.E.E.Q.E.Q.Q.C.C.P.R.R.P.T.T.E.E.Q.Q.R.Q.E.Q.Q.Q.E.E.E.E.Q.Q.Q.T.E.R.R.Q.!.E.E.E.E.!.E.E.",
"R.E.E.E.E.E.E.E.E.E.E.E.Q.E.E.Q.!.~.~.Q.E.E.E.C.Q.z.L I I I I U g.E.E.Q.!.~.Q.E.E.E.E.E.E.E.E.E.Q.E.E.Q.E.Q.Q.~.~.!.E.E.E.E.E.E.",
"R.E.E.E.E.E.E.E.R.Q.E.E.E.E.E.E.Q.Q.Q.Q.*XP.b.s.-.xXlXlXiXiXiXuXS.f.E.E.Q.Q.Q.E.Q.E.E.E.E.E.E.Q.Q.Q.W.E.E.E.R.Q.Q.Q.E.E.E.E.E.E.",
"R.E.E.E.E.E.E.E.Q.E.E.E.E.E.Q.E.Q.W.L.T.z.$.xXlXlXlXzXiXwXeX9Xb m ,XE.E.E.E.Q.T.B.M.E.W.W.W.~.~.3X8X4X=.{ L.Q.R.E.E.E.E.E.E.E.E.",
"R.E.E.E.E.E.E.E.R.Q.E.E.Q.R.R.E.*X+Xs X.xXlXzXiXqXqXqXqXqX9Xb n ,XQ.E.E.C.M.Q.l.I ; S.xXiXuX7X7XJ.$.; o $ v.R.R.E.E.E.E.E.E.E.E.",
"R.R.E.E.E.E.E.E.Q.R.E.Q.R.Q.E.b.z  .lXlXiX9XqXqXqX9XqXqX9Xb n :XE.E.B.E.l.L <XlXwX].'.=.$., @ @ 6 t 8 8 %X&XR.T.Y.T.E.E.E.E.E.E.",
"R.E.E.E.E.E.E.E.R.Q.E.E.E.R.v._ xXiXqXqXqXqXqXqXqXqX0XqX( f fXQ.W.~.f.).iX6X1X(.-.1 @ @ 3 9 ,.5.k.E.E.E.E.E.E.E.T.E.E.E.E.E.E.E.",
"R.E.E.Q.E.E.E.E.R.Q.E.Q.R.n. .xXiXqXqX9XqXqX0XqXqXqXqX].s h !.Q.sXiX8X).*.! M ,.q.7.8.8.7.7.7.y k.E.E.E.E.E.Q.!.Q.E.E.E.E.E.E.E.",
"T.R.T.T.E.E.E.E.Q.E.E.Q.M.( xXjX8XqXqXqX9XqXqXqX0XqXtX( d ,XE.aXjX8X).y ,.7.7.9.9.9.8.8.q.6.B k.!.E.E.E.E.E.!.Q.!.E.E.Y.T.T.E.E.",
"T.T.T.T.E.E.E.E.T.T.R.R.b. .jX0XqXqXqXqXqXqX9XqXqXqXwX` : R.E.sXyX/.! Z q.9.9.9.9.q.8.8.6.B k.T.E.E.E.E.E.E.E.E.E.E.T.Y.Y.E.E.E.",
"R.E.E.E.E.E.E.T.T.T.T.M.R iXqXqXqXqX8XqXqX0XqXqXqXqXwX_ u Y.R.sX5Xl V 7.7.7.9.9.9.9.9.q.N h.B.T.T.E.E.E.E.E.E.E.E.E.Q.E.E.E.E.E.",
"R.E.E.!.~.!.Q.E.E.E.Q.m.$.9XqX9XqXqXqXqXqXqXqXqXqX0XqX+.p C.T.U.].~ ,.q.7.q.9.9.9.9.9.6.y k.E.E.E.E.E.E.E.E.E.E.E.E.E.E.Q.!.&XQ.",
"R.E.E.&X&X&XQ.E.E.E.B.s.iXqXqX9XqXqX8XqXqXqX0XqXqX0X0X`.W } z.*.].3.8.q.9.9.9.9.9.9.q.N h.E.E.E.E.E.E.E.E.E.E.E.E.E.E.E.!.~.&X~.",
"R.E.E.E.Q.Q.E.E.E.E.P.A.qXqXqXqXqXqXqX0XqXqXqXqXqXqX[./.*.-. X@.:.~ q.7.9.9.9.9.9.9.6.y k.E.E.E.E.E.E.E.E.E.E.E.E.E.E.E.E.Q.Q.!.",
"R.E.E.Q.E.E.E.E.E.&XK.iXqXqXqXqXqXqX9XqXqXqXqXqXqXqXtXyXrXH.L J.@.! 9.9.9.9.9.9.8.w.N h.E.E.E.E.E.E.E.E.E.E.E.E.E.E.E.E.E.E.E.E.",
"R.E.E.E.Q.E.E.&X=X$X$.0XqXqXqXqXqXqXwXtXrXrXrXrXwXrXuX6X5X*.J.6XE ,.9.9.9.9.9.9.8.w.N H E.E.E.E.E.Q.E.E.E.E.E.E.E.E.E.E.E.Q.Q.E.",
"R.E.W.!.!.!.;XvXdXk jXqX9X}.}.`.].`.'.6XuXuX6X6X2X`.[ L k ' aX6X! V w.9.9.9.9.9.q.5.S .XQ.E.E.Q.~.~.!.T.Y.Y.E.E.E.E.E.E.Q.~.!.!.",
"R.E.E.Q.Q.Q.$X$X:XX._.(.8XH.o.P P L L E *.o.[ [ U , > b ) E.sX5XQ C 4.9.9.9.9.9.q.M .X-XE.E.E.Q.!.Q.Q.T.E.E.E.Q.E.E.E.E.Q.Q.Q.Q.",
"R.Q.Q.R.E.z. . .pXaX2 { F.9XH.;.:.;.;.*.@.[ J.uXy.t 8 $ h !.3X`.;.Q <.i.i.i.0.6.q.N h.R.E.E.E.E.E.E.E.E.E.E.Q.!.~.Q.E.E.E.E.E.E.",
"R.R.Q.Q.B.l 2XjXzXU.$.+Xf A.8X+.=.;.;.@.[ J.uX..Z t.Z c Q.pX5Xo.o.] :.[.4XqX>.3.u.~ x.Q.E.E.E.E.E.E.E.E.E.E.E.Q.Q.Q.E.E.E.Q.E.E.",
"R.R.Q.R.R.b 8 y.zXjX9X$.XXj } A.+.*.*.[ oXuX%.Z a.a.2.g.Q.|.`.L w K w k Q =.`.).;.] b.R.E.E.E.E.E.E.E.E.E.E.E.E.E.E.E.E.E.E.E.E.",
"R.Q.R.Q.R.C.r K y.eXiX4XW +Xs Y =.@.] oXcX2XV t.a.a.OXQ.L.I.).e ,.w.,.M t ~ ! q q ^ K.Q.E.E.E.E.E.E.E.E.E.E.E.E.E.E.E.E.E.E.E.E.",
"R.R.Q.Q.R.R.c <.e y.oX1Xf.( S.# &.[ oXxX6Xy.,.t.p.a.OXE.l.] =.~ w.9.9.w.9.9.4.1.2.$X-XQ.E.E.E.E.E.E.E.E.E.E.E.T.Y.T.E.E.E.E.E.E.",
"R.R.Q.R.!.R.R.g t t q D.D.+.s z ( $.xXyX<X4 0 ,.4.t. XP.K.@.Q y 9.8.9.9.4.,.1.%XvX;XR.R.E.E.E.E.E.E.E.E.E.E.E.E.T.T.E.E.E.E.E.E.",
"R.Q.R.Q.!.R.R.v.8 0.~ S.Z.E T XXP 1XlX0X>.4 0 N V r.M.b.I.[.! ,.9.9.4.Z 1.r.%XhX,X&XE.E.E.E.E.E.E.E.E.E.E.E.Q.Q.Q.E.E.E.E.E.E.E.",
"T.R.T.R.R.R.R.V.8 <.3.o.(.o.o.W E tXyX}. .t ,.w.4.m ~.x.o.>.y w.9.4.2.r.%XhXfX&XY.T.E.E.E.E.E.E.E.E.E.E.E.E.!.Q.!.E.E.Y.T.E.E.E.",
"T.T.T.T.E.E.E.R.e.6 c *.iXyXqX4Xo.qXqX}.o.c t.9.6.e.P.S.:.y.Z 9.4.A #XfX,X*XE.T.Y.T.E.E.E.E.E.T.E.E.E.E.E.E.E.E.E.E.T.Y.Y.T.Q.E.",
"T.R.Q.R.E.E.E.Q.gX6 ^ iXxXlXrX8X].qXqX8X-.9 ,.6.r g z.o.}.%.9.4.A #X-XE.E.E.E.E.E.E.E.E.E.E.Y.Y.Y.E.E.E.E.E.E.E.E.E.E.E.E.E.E.E.",
"R.Q.R.Q.!.Q.Q.!.=Xc [.xXxXxXlXyXqXqXqXqX1X~ 0 r % 2 } @.>.<.4.A #X-XE.E.E.E.R.Q.E.Q.Q.!.E.E.E.E.E.E.E.E.E.E.E.E.E.E.E.E.Q.Q.!.E.",
"R.R.Q.&X&X~.Q.R.V.7XJ.XXoX2XbX-.qXqXqX0XqX1X/ w 2 P [ @.k M M e.-XR.E.E.E.E.E.E.Q.~.~.~.Q.E.E.E.E.E.E.E.E.E.E.E.E.E.E.E.Q.~.&X~.",
"R.E.E.Q.Q.Q.E.E.m.| ; ; = , m # (.qXqXqXqXqX8X].*.Q ).W 8 5 t k.Q.Q.E.E.E.E.E.Q.E.E.E.Q.E.E.E.E.E.E.E.E.E.E.E.E.E.E.E.E.E.E.Q.Q.",
"R.E.E.E.E.E.E.E.v.      . . O O 2 }.qXqXqXqXqXqX1X).8X$.4 5 m R.Q.R.E.E.E.E.E.R.E.E.E.E.E.E.E.E.E.E.E.E.E.E.E.E.E.E.Q.E.E.E.E.E.",
"R.E.E.E.Q.E.E.E.C.n       X X . # s qXqXqXqXqXqXqXqXqX1X%./ ) V.R.E.E.E.E.R.E.E.E.E.Q.Q.E.E.E.E.E.Q.E.E.T.E.E.E.E.E.E.E.E.Q.E.E.",
"R.E.Q.!.!.Q.E.E.&X:XX d - X o O O = [.qXqXqXqXqXqXqXqXqXqX].Z.K.N.T.T.E.E.Q.E.E.E.!.~.!.!.E.E.!.~.~.!.T.T.Y.E.E.E.E.E.E.!.~.!.!.",
"R.Q.Q.Q.Q.Q.R.E.R.gXn d g - o + O # O.qXqXqXqXqXqXqXqX0XqX}.#.Z.n.E.E.Q.Q.Q.E.E.E.E.E.Q.E.E.E.E.Q.Q.Q.T.E.E.E.E.Q.E.E.E.E.!.E.E.",
"R.R.Q.R.E.E.E.E.&XvX>X@ n g O O O # W qXqXqXqX8XqXqXqXqX}.H.#.#.A.E.E.!.~.~.Q.E.E.E.E.E.E.E.E.E.E.E.E.E.E.E.Q.~.~.!.E.E.E.E.E.E.",
"R.E.E.E.Q.E.Q.R.~.vX>Xo - - O O O $ *.qXqXqXqXqXqXqXqXqX[.#.;.#.Z.f.` ` n.!.Q.E.E.E.E.E.E.E.E.E.E.E.E.E.E.E.E.Q.Q.!.E.E.E.E.E.E.",
"R.E.E.E.R.Q.Q.R.~.>Xd   + . O . O 2 8XqXqXqXqXqX9XqXqX8XH.#.#.;.#.:.H.H.} ` ` ` n.E.E.E.E.E.E.E.E.E.E.E.E.E.E.E.E.E.E.E.E.E.E.E.",
"R.E.E.E.E.E.E.E.~.:X@ .X< ; > 7 XX1X}._.}.0XqXqXqX}._.H.#.#.#.x s _.}.tX].H././.} ) ` _ n.E.E.E.E.E.E.E.Q.R.R.R.E.E.E.E.E.E.E.E.",
"R.E.E.E.E.E.E.E.E.=X Xy.k { (.1XzX:.a ] G./._._./._.#.#.#.#.G.a + > 1 s.^.' _ }.[.(.(.(.} ) ) ) m.E.E.E.R.Q.R.T.Y.T.E.E.E.E.R.Q.",
"R.E.E.E.E.E.E.E.E.Q.-Xd.z.L.pXK.1 i | q W #.#.#.#.#.#.Z.#.G.Y 1 s s 1 v L.H d.U.|.b { 8X`.).`.H.{.l._ ) ` C.R.Y.Y.Y.Q.E.E.Q.E.E.",
"R.R.E.E.E.E.E.E.E.Q.Q.E.R.R.R.B.D H :X@Xx.& a G.#.G.;.G.Y = $ + x G.#.+.L.E.T.E.Q.c.d.U.^.v i +.8X'.).).`.p M.Q.Q.E.E.E.E.E.E.E.",
"T.E.T.T.E.E.E.E.Q.Q.R.E.E.E.E.Q.!.!.!.;X*X.Xm = = ; ; = h .Xj.G d.b x G.F.D.D.L.Y.T.E.E.E.c.D b.U.j i 1 u h.P.Q.~.E.E.Y.T.R.Q.E.",
"T.T.R.T.E.E.E.E.T.T.R.Q.Q.E.E.E.E.E.E.R.P.-XC.F G D G F v.;X~.E.T.N.p = = Y G.D.D.D.L.E.E.E.R.Y.T.d.F D G !.!.R.E.E.T.Y.Y.T.E.E.",
"R.R.E.E.E.E.E.T.Y.T.T.R.R.Q.E.E.E.E.E.E.E.Q.Q.E.E.E.T.Y.T.T.E.E.R.E.v.F H p = * Y #.F.D.} Y Y n.Y.R.R.R.E.E.E.E.E.E.E.E.Q.R.E.E.",
"R.E.E.E.!.Q.E.E.R.Q.R.Q.Q.R.E.E.E.E.E.E.E.R.Q.!.!.Q.E.E.E.Q.E.E.E.E.E.E.R.v.G H u = = T O.O.O._ ( M.R.Q.E.E.E.E.E.E.Q.R.Q.Q.~.Q.",
"R.E.E.&X&X&XQ.E.E.E.E.E.E.E.E.E.E.E.E.E.E.E.~.~.-X~.E.E.E.E.E.E.E.E.E.E.E.E.E.E.v.H d.L.!.p ( +.o.A.u +X~.Q.Q.E.E.E.E.E.Q.~.&X~.",
"R.E.E.Q.Q.Q.E.E.E.E.E.E.E.E.E.E.E.E.E.E.E.E.E.Q.Q.E.E.E.E.E.E.E.E.E.E.E.E.E.E.E.E.E.T.Q.E.c.M.p & & j.gX&XE.E.E.E.E.E.E.Q.E.Q.!.",
"R.E.E.E.E.E.E.E.E.E.E.E.E.E.E.E.E.E.E.E.E.E.E.E.E.E.E.E.E.E.E.E.E.E.E.E.E.E.E.E.E.E.E.E.E.E.E.v.H H W.*XE.E.E.E.E.E.E.E.E.E.E.E.",
"R.E.E.E.Q.E.E.E.E.E.Q.E.E.E.E.E.E.E.E.E.E.E.E.Q.E.E.E.E.E.Q.Q.E.E.E.E.E.E.E.E.E.E.E.Q.E.E.E.E.E.Q.Q.Q.R.E.E.E.E.E.E.E.E.E.Q.Q.E.",
"R.E.Q.Q.!.!.E.E.Q.!.~.!.E.T.T.T.Q.E.E.E.E.Q.Q.!.!.E.E.E.!.~.~.E.T.Y.T.E.E.E.E.E.E.Q.~.!.Q.E.E.Q.!.~.!.T.Y.T.E.E.E.E.E.E.Q.~.!.!.",
"R.E.E.!.Q.Q.E.E.Q.Q.Q.Q.E.T.E.T.Q.Q.E.E.E.E.!.E.Q.E.E.E.Q.Q.!.E.T.E.T.E.E.Q.E.E.E.Q.Q.Q.E.E.E.Q.!.Q.Q.R.R.R.E.E.Q.E.E.E.Q.Q.Q.E.",
"R.E.E.E.E.E.E.E.E.E.E.E.E.E.E.E.Q.~.!.Q.E.E.E.E.E.E.E.E.E.E.E.E.E.E.E.Q.~.~.Q.E.E.E.E.E.E.E.E.E.R.Q.R.Q.Q.R.Q.~.~.Q.E.E.E.E.E.E.",
"R.R.E.E.E.E.E.E.E.E.E.E.E.E.E.E.Q.Q.!.E.E.E.E.E.E.E.E.E.E.E.E.E.E.E.E.Q.Q.Q.Q.E.E.E.E.E.E.E.E.E.Q.R.Q.R.R.Q.E.Q.!.!.E.E.E.E.E.E.",
"E.E.E.E.E.E.E.E.E.E.E.E.E.E.E.E.E.E.E.E.E.E.E.E.E.E.E.E.E.E.E.E.E.E.E.E.E.E.E.E.E.E.E.E.E.E.E.E.E.E.E.E.E.E.E.E.E.E.E.E.E.E.E.E.",
"E.E.E.E.E.E.E.E.E.E.E.E.E.E.E.E.E.E.E.E.E.E.E.E.E.E.Q.E.E.E.E.E.E.E.E.E.E.E.E.E.E.E.E.E.E.E.E.E.E.E.E.E.E.E.E.E.E.E.E.E.E.E.E.E.",
"T.E.E.E.E.E.E.E.E.E.E.E.E.E.E.E.T.T.T.E.E.E.E.E.E.E.E.E.E.E.E.E.E.E.E.T.T.Y.E.E.E.E.E.E.E.E.E.E.E.E.E.E.E.E.E.T.Y.E.E.E.E.E.E.E.",
"T.E.E.E.E.E.E.E.E.E.E.E.E.E.E.E.T.Y.Y.T.E.E.E.E.E.E.E.E.E.E.E.E.E.E.E.E.T.Y.T.E.E.E.E.E.E.E.E.E.E.E.E.E.E.E.E.Y.Y.T.E.E.E.E.E.E.",
"R.E.E.E.E.E.E.E.E.E.E.E.E.E.E.Q.Q.!.E.E.E.Q.E.E.E.E.E.E.E.E.E.E.E.E.E.Q.!.E.E.E.R.E.E.E.E.E.E.E.E.E.E.E.E.Q.Q.Q.E.E.E.E.E.E.E.E.",
"T.E.T.R.E.E.E.E.E.E.E.E.E.E.E.Q.!.!.Q.E.E.T.T.E.E.E.E.E.E.E.E.E.E.E.Q.Q.!.Q.E.E.Y.T.E.E.E.E.E.E.E.E.E.E.E.E.!.Q.!.E.E.Y.T.E.E.E.",
"Y.T.T.Y.E.E.E.E.E.E.E.E.E.E.E.E.E.E.E.E.Y.T.Y.T.Q.E.E.E.E.E.E.E.E.E.E.E.E.E.E.Y.Y.Y.T.E.E.E.E.E.E.E.E.E.E.Q.E.E.E.E.T.Y.Y.Y.E.E.",
"R.T.E.E.E.E.E.T.Y.Y.E.E.E.E.E.E.E.E.E.Q.T.E.E.E.E.E.T.Y.Y.T.E.E.E.E.E.E.E.E.E.E.E.E.E.E.E.E.Y.T.Y.E.E.E.E.E.E.E.E.E.T.E.E.E.E.E."
};
