/* XPM */
static char *_31677503953[] = {
/* columns rows colors chars-per-pixel */
"64 64 100 2 ",
"   c #0E0E0E",
".  c #101111",
"X  c #141816",
"o  c #171D1B",
"O  c #18201D",
"+  c #1F2A25",
"@  c #212F28",
"#  c #23332C",
"$  c #263931",
"%  c #293F35",
"&  c #2A4136",
"*  c #2D453A",
"=  c #701D57",
"-  c #701F58",
";  c #702057",
":  c #702058",
">  c #70305F",
",  c #473F79",
"<  c #483F79",
"1  c #703762",
"2  c #2E4E40",
"3  c #325043",
"4  c #3A5D4D",
"5  c #426D5A",
"6  c #474078",
"7  c #484178",
"8  c #4C4B7C",
"9  c #4E547E",
"0  c #4F597F",
"q  c #714367",
"w  c #745D75",
"e  c #467660",
"r  c #4B7C66",
"t  c #606060",
"y  c #716978",
"u  c #4D836B",
"i  c #4F8C71",
"p  c #528B71",
"a  c #559277",
"s  c #515D81",
"d  c #546584",
"f  c #566B85",
"g  c #586E87",
"h  c #597387",
"j  c #5A768A",
"k  c #5A7A89",
"l  c #5F79B0",
"z  c #617EAF",
"x  c #6079B0",
"c  c #B04F98",
"v  c #AE5499",
"b  c #B05098",
"n  c #A76299",
"m  c #D070B8",
"M  c #5E858C",
"N  c #728E88",
"B  c #628F90",
"V  c #649592",
"C  c #659B94",
"Z  c #59A283",
"A  c #67A195",
"S  c #65AB96",
"D  c #69A997",
"F  c #6AAC99",
"G  c #68B291",
"H  c #6BB895",
"J  c #6DB49B",
"K  c #64BF99",
"L  c #6FBA9D",
"P  c #6283AE",
"I  c #658CAC",
"U  c #6793AB",
"Y  c #6DACA6",
"T  c #71BFA3",
"R  c #7CBDBF",
"E  c #66C09A",
"W  c #6CC39D",
"Q  c #71C49E",
"!  c #73C7A1",
"~  c #7DC7A7",
"^  c #75C9A3",
"/  c #79CAA6",
"(  c #7CCCA9",
")  c #82CEAB",
"_  c #89CFAF",
"`  c #84D0AC",
"'  c #84C6B9",
"]  c #93D1B4",
"[  c #9DD4B9",
"{  c #A2D6BB",
"}  c #84B4DB",
"|  c #88B0E7",
" . c #89B1E9",
".. c #9BC8D2",
"X. c #AAD8C1",
"o. c #B3DBC5",
"O. c #B8DDC9",
"+. c #B9C9F8",
"@. c #C1DFCE",
"#. c #F8F8F8",
/* pixels */
"W Q Q Q Q Q Q Q Q ! ^ ! Q T L W Q Q W Q Q Q Q ! ! W Q Q Q ! ! ! W W W Q Q Q Q Q Q Q ! ! Q Q Q ! ! ^ ! Q W W Q Q Q Q Q Q Q ^ ! Q ",
"Q ! ! ( ( / ! ! ! ( ( ( ! K W W ! ! ! ! ! ! ( / ( ! ! ! ( ( ( ^ K W E ! ! ! ! ! ! ( ( ( ! ! ! / ( ( / W W E Q ! ! ! ! ! / ( ( / ",
"Q ! ! / ^ ^ ! ! ! / ! / Q Q Q Q ! ^ ! ! ! ! / ! ! ! ! ! ^ ^ / ! W ! ! ! ! ! ! ! ! ^ ^ ^ ! ! ! ! ^ ^ ! Q Q Q ! ^ ^ ! ! ! ^ ^ ! ! ",
"Q ! ! ! ! ! ! ! ! ! ! ! ^ ^ Q Q / ( ( ^ ! ! ! ! ! ! ! ! ! ! ! ! ! ! ! ^ / ( / ! ! ! ! ! ! ! ! ! ^ ! ! ! ! ! ^ / ( / ! ! ! ! ! ! ",
"Q ! ! ! ! ! ! ! ! ! ! ! Q ^ ! ! ^ ^ ^ ^ ! ! ! ! ! ! ! ! ! ! ! ! ! ! ! ! ^ ^ ^ ! ! ! ! ! ! ! ! ! ! ! ! ! ! ! ! ! ^ ^ ! ! ! ! ! ! ",
"Q ! ! ! ! ! ! ! ! ! ! ! ^ Q ! ! ! ! ^ ! ! ! ! ! ! ! ! ! ! ! ! ! ! ! ! ! ! ! ! ! ! ! ! ! ! ! ! ! ! ! ! ! ! ! ! ! ! ! ! ! ! ! ! ! ",
"Q ! ! ! ! ! ! ! ^ ! ! ! ! ! ! ! ! ! ! ^ ^ ! ! ! ! ! ! ! ! ! ! ! ! ! ! ! ! ! ! ! ! ! ! ! ! ! ! ! ! ! ! ! ! ! ! ! ! ! ! ! ! ! ! ! ",
"Q Q ! ! ! ! ! ! ! ! ! ! ! ! ! ! W E E W ! ! ! ! ! ! ! ! ! ! ! ! ! ! ! W W E ! ! ! ! ! ^ ! ! ! ! ! ! ! ! ! ! ! W E W ! ! ! ! ! ! ",
"Q ! ! ! ! ! ! ! ! ! ! ! ! ! ! ! Q W W Q ^ ! ! ! ! ! ! ! ! ! ! ! ! ! ! ! W W Q ! ! ! ! ! ! ! ! ! ! ! ! ! ! ! Q W W W ! ! ! ! ! ! ",
"Q ! ! ! ! ! ! ! ! ! ! ! ! ! ! ^ ( / ^ ! ! ! ! ! ! ! ! ! ! ! ! ! ! ! ^ ^ / ^ ! ! ! ! ! ! ! ! ! ! ! ! ! ! ! ^ / / / ! ! ^ ! ! ! ! ",
"Q W W W ! ! ! ! ! ! ! ! ! ! ! ^ / / ^ ! Q W W ! ! ! ! ! ! ! ! ! ! ! ^ / ^ ( ! Q E W ! ! ! ! ! ! ! ! ! ! ! ^ / / ( ! Q E W W ! ! ",
"W W W W ! ! ! ! W W Q ^ ! ! ! ^ ! ! ! ! E W W ! ! ! W j 8 X { ! ! ! ! ! ! ! ! W E E ! ! ! ! Q W Q ! ! ! ! ! ! ! ! ! E E E ! ! ! ",
"Q ! ! ! ! ! ! Q W S S M o.Q ! ! ! ! ! ! ! ! ! ! ! V ' } : : . ! ! ! ! ! ! ! ! ! ^ ! ! ! ! ! W W E ! ! ! ! ! ! ! ! ! ! ! ! ! ! ! ",
"Q ! ! / ( / ! ! k +.+.+.  W ! ! ! ! ! ! ! ! ^ ) ( .. .- b b : ! ! ! ! ! ! ! ! ! ! / / ( ! ! ! ! ! ^ ! ! ! ! ! ! ! ! ! ! / / ` ^ ",
"Q ! ! ) ) ` / ! 8 -  .+.+. .M Q ! ! ! ! ! ! ) ) +. .- c m b : ! ! ! ! ! ! ! ! ! ! ( ( ` / ! ! ! ! ! ! ! ! ! ! ! ! ! ! ! / ` ( ` ",
"Q ! ! ^ ^ ! ! ! ! = -  . .+. .H ! ! ! ! ! ! ! +.+.- b m m m : ! ! ! ! ! ! ! ! ! ! ! ! / ! ! ! ! ! ! ! ! ! ! ! ! ! ! ! ! ! ! ! ! ",
"Q ! ! ! ! ! ! ! ! N b :  . .| l < ! ! ! ! ! +.+. .b b m m m : ! ! ! ! ! ! ! ! ! ! ! ! ! ! ! ! ! ! ! ! ! ^ ! ! ! ! ! ! ! ! ^ ! ! ",
"Q ! ! ! ! ! ! ! ! ! : : - - z x x < ! ! , +.+. .: : b b m b : ! ! ! ! ! ! ! ! ! ! ! ^ ^ ! ! ! ! ^ ^ ! ! W ! ! ! ! ! ! ! ! ^ ^ ! ",
"Q ! ^ ~ ( / ! ! ! ( w - c : x x x < @.7 x +. . .: : : : b b . ^ E W E ! ! ! ! ! ! ( ( ( ^ ! ! ^ ( ( / W W E W ! ! ! ! ! ^ ( / ^ ",
"Q ! ! ^ ! ^ ! ! ! ^ ^ > b b x x < < 7 7  .+. .x : : b b : : _ ! W ! W ! ^ ^ ! ! ! ^ ^ ^ ! ! ! ^ ^ ^ ^ W ! W ^ ^ ^ ^ ! ! ^ ^ ^ ^ ",
"Q ! ! ! ! ! ! ! ! ! ! y : b 7  . . . .<  . . .x : b n v c 1 ! ! ! ! ! / ( ( ^ ! ! ! ! ! ! ! ! ! ^ ! ! ! ! ! ^ / ( ^ ! ! ^ ! ! ! ",
"Q ! ! ! ! ! ! ! ! ! ! ! : ;  .+.+. . .x  . . .x : b b b = ^ ! ! ! ! ! ! ! ^ ! ! ! ! ! ! ! ! ! ! ! ! ! ! ! ! ! ^ ^ ^ ! ! ! ! ! ! ",
"Q ! ! ! ! ! ! ! ! ! ! ! q x +.+.+.+. . . . . . .; : b : . ! ! ! ! ! ! ! ! ! ! ! ! ! ! ! ! ! ! ! ! ! ! ! ^ ! ! ! ! ! ! ! ! ! ! ! ",
"Q ! ! ! ! ! ! ! ! ! ! ! z  .+.+.+.+.+. . . . . . .: : . { ! ! ! ! ! ! ! ! ! ! ! ! ! ! ! ! ! ! ! ! ! ! ! ! ! ! ! ! ! ! ! ! ! ! ! ",
"Q ! ! ! ! ! ! ! ! ! ! ! x +.+.+.+.+.+. . . . . . . .x s ! ! ! ! ! ! ! W E E ! ! ! ! ! ! ! ! ! ! ! ! ! ! ! ! W W K W ! ! ! ! ! ! ",
"Q ! ! ! ! ! ! ! ! ! ! 7  .|  . . . .+. . . . . . . . .B ! ! ! ! ! ! ! W ! E W ! ! ! ! ! ! ! ! ! ! ! ! ! ! ! ! W W W ! ! ! ! ! ! ",
"Q ! ! ! ! ! ! ! ! ! !   #.7 7 6 < #.. 7  . . . . . . .< f C ! ! ! ! ! ^ ^ ^ ! ! ! ! ! ! ! ! ! ! ! ! ! ! ! ^ ^ / ^ ! ! ! ! ^ ! ! ",
"T ! W Q ! ! ! ! ! ! ! a O   . . . . . . x  . . . . . . . .P 0 B ! ! ^ ( ^ ^ ! ! E W ! ! ! ! ! ! ! ! ! ! ! ! / ^ ( ! ! E W W ! ! ",
"L W Q W Q ^ ! Q W ! Q ! / # t t . . . . . x  . . . . . . . . .I 0 d M ! ^ ! ! E E W Q ! ! ! ! W W ! ! ! Q ^ Q ^ ^ ! W W W W ! ! ",
"W Q Q ^ ^ Q Q W W W W ! ( O.  t t .   . . <  . . .< x x  . . . .| } P 8 s 0 8 0 ) ! ! ! ! ! E E W ! ! ! ^ Q ^ Q Q ^ Q Q ! ! ! ! ",
"Q Q ^ Q / ! Q Q ! ! H 5 + . . t t .   .   <  . . . .< < < x  . . . . . . . .I P f k h h h g g M ^ Q ! ! Q ^ ! ! ^ ! Q ^ ^ ^ / ^ ",
"Q Q Q ) 9 j J 5 + * R } | . . . . . . . . x  . . . . . . .< <  . . . . . . .|  . . . . . . .| | 6 8 8 0 8 0 ^ ! ! ! ^ Q ^ ( ( ( ",
"Q ! < +.+.+.+. . . .x x x   #.< < 7 7 #.7  . . . . . . . . .x <  . . . . . . .l x x x x x x x x x x x x x x . . ^ ! ! ! ! ! ! ! ",
"Q ! , +.+.+. . .l x x x x < x  . . . . . . . . . . . . . . .x x 7 |  . . . .x x x l x x x x x x x x x x x . . . . ] ! ! ! ! ! ! ",
"Q ! ! ! 8 x x x x - - - : 7 7 < x  . . . .x x  . . . . . .x x x l 6 +.+.+. . .x x x x x x x x x x x x x x x l l l X o # ) ^ ^ ! ",
"Q ! ! / o.g k x x x x 7 : - : - 7 < 7 x x  . . . . . . . .x x x . . 7 6 6  . . . .x x x x x x x x x x x x l P P l l l l . + o X ",
"Q ! ! ^ ! ! ! ! M P x x l l l , . . x x x  . . . . . . .x x x x   8 . X o.V L ! F  . . . . . . . . . .l l l P x z z P x x P P z ",
"Q ! ! ! ! ! ! ! ! ! V j s P P l x x . x x x  . . . .x x x x x x x x < 1 $ X.) ! ! ! ! ! ! ! ! ! ^ ^ Q L Q ^ ! ^ ( / ! ! ! ! ! ! ",
"Q ! ! ! ! ! ! ! ! ! ! ! ! C 0 s j s X < x x x x x x x x x x x x x  . ., < s 4 ! ! ! ! ! ! ! ! ! ^ ! ! ! ^ ! ^ ^ ^ / ! ! ! ! ! ! ",
"Q ! ! ! ! ! ! ! ! ! ! ! ! ! Q ! ^ ! ! C 8 x x x x x x x x x x x x  . . .x < 7 ! ! ! ! ! ! ! ! ! ! ! ^ ! Q ^ Q ! ! ! ! ! ! ! ! ! ",
"Q ! ! ! ! ! ! ! ! ! ! ! ! ! ! ! ! ! ! ! ! * X l l l l P U 4 % 2 r p U  .| | | , , ^ ^ Q ! ! ! ! ! ! ! ! ! ! ! ! ! ! ! ! ! ! ! ! ",
"Q ! ! ! ! ! ! ! ! ! ! ! ! ! ! ! W K W W ! ! ^ 4 @ O . X # I d [ ) ) r e Z l |  .| , , ^ ! ! ! ! ! ! ! ! ! ! W W K W ! ! ! ! ! ! ",
"T ! ! ! ^ ! ! ! ! ! ! ! ! ! ! ! W K K Q ! ! ! ! ! ! / 4 P P U J Q ^ Q Q W Z i x  . . ., , ! ! ! ! ! ! ! ! ! W W E W ! ! ! ! ! ! ",
"Q Q ! ! Q ! ! ! ! ! ! ! ! ! ! ^ / ^ ^ ! ! ! ! ! ! ! ! ! 3 x U ! ^ Q ^ ^ ^ ! ! G Z l  . . ., , ! ! ! ! ! ! ! / ^ ! ! ! ! ! ! ! ! ",
"W Q W Q ! ! ^ Q ! ! ! ! ! ! ! ^ ^ / ^ ! Q W Q ! ! ! ! ! Q & P I Y Q ! / / / ! W E a e x  . . ., 6 ! ! ! ! ! / ^ / ! ! E W ! ! ! ",
"W W W W ! ! ! Q W Q Q ! ! ! ! ! ^ ! ! ! E W W ! ! ! ! W W Q $ l P U D ! ! ! ! W E E ^ Z p x  . . .7 < j ! ! ! ! ! ! W W W W ! ! ",
"Q Q ! ! ! ! ! W E W W ! ! ! ! ! ! ! ! ! ! ! ! ! ! ! W E E E ! $ P z I ! ! ! ! ! ^ ! ! ! ! r 2   x  . .+ ! ! ! ! ! ! ! ! ! ! ! ! ",
"Q ! Q ^ ( ^ ! ! ! ! ! ! ! ! ! ! ! ! ! ! ! ! ! / / ^ ! ! ! ^ ! ! 2 z z I A ! ! ! ^ ^ ^ / ! ! ! ! u     [ ! ! ! ! ! ! ! ! ! ! ( ! ",
"Q ! ! ` ` ` ^ ! ! ! ! ! ! ! ! ! ! ! ! ! ! ! ( ` ( / ! ! ! ! ! ! ! & z z I ! ! ! Q ( ( ( / ! ! ! ^ ! ! ! ! ! ! ! ! ! ! ! ^ ( ` ( ",
"Q ! ! ! ^ ^ ! ! ! ! ! ! ! ! ! ! ! ! ! ! ! ! ^ ^ / ! ! ! ! ! ! ! ! ! & z l I J ! ^ ^ ^ ^ ^ ! ! ! ! ! ! ! ! ! ! ! ! ! ! ! ! ^ ! / ",
"Q ! ! ! ! ! ! ! ! ! ! ! ! ! ! ! ! ! ! ! ! ! ! ! ! ! ! ! ! ! ! ! ! ! ! # o z I L ^ Q ! ! ! ! ! ! ! ! ! ! ! ! ! ! ! ! ! ! ! ! ! ! ",
"Q ! ! ! ! ! ! ! ! ! ^ ! ! ! Q ! ! ! ! ! ! ! ! ^ ! ! ! ! ! ^ ^ ! ! Q ! ! ] + X P M ^ ^ ! ! ! ! ! ^ ^ ! ! ! ! ! ! ! ! ! ! ! / ! ! ",
"Q ! ^ / / / ! ! ! / ( ( ! W W E ! ! ! ! ! ^ ^ ( / ! ! ! / ( ( ^ W E W ! Q ^ ` @ O / / / ^ ! ! ^ ( ( ( E W E W ^ ! ! ! ! ! ( / ^ ",
"Q ! ! / ^ ! ! ! ! ^ / / ! W Q Q ^ ^ ^ ! ! ! ^ ^ / ! ! ! / ^ ^ ! W ! W ! ^ ^ ! ! ( ! ^ ^ ! ! ! ^ ^ ^ ^ Q ! Q ! ^ ^ ! ! ! ^ / ^ ! ",
"Q ! ! ! ! ! ! ! ! ! ! ! ! ! ! ! ^ ( ( ^ ! ! ! ! ! ! ! ! ! ! ! ! ! ! ! ! / ( ^ ! ! ! ! ! ! ! ! ! ! ! ! ! ! ! ^ ^ ( ^ ! ! ! ! ! ! ",
"Q ! ! ! ! ! ! ! ! ! ! ! ! ! ! ! ^ ^ ^ ! ! ! ! ! ! ! ! ! ! ! ! ! ! ! ! ^ ^ / ^ ! ! ! ! ! ! ! ! ! ! ! ! ! ! ! ^ ^ / / ! ! ! ! ! ! ",
"W ! ! ! ! ! ! ! ! ! ! ! ! ! ! ! ! ! ! ! ! ! ! ! ! ! ! ! ! ! ! ! ! ! ! ! ! ! ! ! ! ! ! ! ! ! ! ! ! ! ! ! ! ! ! ! ! ! ! ! ! ! ! ! ",
"Q ! ! ! ! ! ! ! ! ! ! ! ! ! ^ ! ! ! ! ! ! ! ! ! ! ! ! ! ! ! ! ! ! ! ! ! ! ! ! ! ! ! ! ! ! ! ! ! ! ! ! ! ! ! ! ! ! ! ! ! ! ! ! ! ",
"Q ^ ! ! ! ! ! ! ! ! ! ! ! ! ! ! ! E E ! ! ! ! ! ! ! ! ! ! ! ! ! ! ! ! ! W W ! ! ! ! ! ! ! ! ! ! ! ! ! ! ! ! ! W E ! ! ! ! ! ! ! ",
"Q ! ! ! ! ! ! ! ! ! ! ! ! ! ! ! W E E W ! ! ! ! ! ! ! ! ! ! ! ! ! ! ! W W E W ! ! ! ! ! ! ! ! ! ! ! ! ! ! ! ! E E E ! ! ! ! ! ! ",
"Q ^ Q ^ ^ Q ^ ! ^ ^ Q ^ ! ! ! ^ / ^ ! ! ! ! ! ! ! ! ! ! ! ! ! ! ! ! ! ^ ! ^ ! ! ! ! ! ! ! ! ! ! ! ! ! ! ! ! ^ ^ ! ! ! ! ! ! ! ! ",
"W Q W W Q ^ ! ! Q W ^ ! ! ! ! ^ ^ ( ^ ! ! W W ! ! ! ! ! ! ! ! ! ! ! ^ ( / ^ ! ! E W ! ! ! ! ! ! ^ ! ! ! ! ^ / ^ ( ! ! E W ! ! ! ",
"W W W W Q ^ ^ Q W ^ ! ! ! ! ! ! ! ! ! ! E W E ! ! ! ! ! ! ! ! ! ! ! ! ! ! ! ! E K K W ! ! ! ^ ! ! ! ! ! ! ! ! ! ! ! E E E E ! ! ",
"W W ! Q ^ W ^ W E W Q ! ! ! ! ! ! ! ! ! ! ! ! ! ! ! W E E W ! ! ! ! ! ! ! ! ! W ! ! ! ! ! ! E E E ! ! ! ! ! ! ! ! ! ! ! ! ! ! ! "
};
