/* XPM */
static char *_11677503952[] = {
/* columns rows colors chars-per-pixel */
"64 64 64 1 ",
"  c #070707",
". c #701A57",
"X c #463F78",
"o c #463E79",
"O c #606060",
"+ c #6078B1",
"@ c #6079B1",
"# c #B14F99",
"$ c #D170B9",
"% c #64BF99",
"& c #65BF99",
"* c #65C09A",
"= c #67C19B",
"- c #6BC19B",
"; c #68C29B",
": c #6FC09B",
"> c #69C29C",
", c #6AC39C",
"< c #6DC19C",
"1 c #6EC29C",
"2 c #6EC49E",
"3 c #6EC59F",
"4 c #6FC59F",
"5 c #71C39E",
"6 c #71C49E",
"7 c #70C59F",
"8 c #72C49F",
"9 c #72C4A0",
"0 c #70C6A0",
"q c #71C6A1",
"w c #73C7A1",
"e c #73C7A2",
"r c #74C5A1",
"t c #74C6A2",
"y c #76C7A3",
"u c #77C7A4",
"i c #74C8A3",
"p c #75C9A3",
"a c #76C9A3",
"s c #76C9A4",
"d c #77C9A4",
"f c #77CAA5",
"g c #77CAA6",
"h c #78CAA5",
"j c #7ACAA5",
"k c #78CBA6",
"l c #79CBA7",
"z c #7ACBA6",
"x c #7CCCA7",
"c c #79CBA8",
"v c #7ACCA8",
"b c #7ACCA9",
"n c #7BCDA9",
"m c #7ECDA9",
"M c #7FCDA9",
"N c #7CCDAA",
"B c #80CEAA",
"V c #82CFAB",
"C c #84D0AC",
"Z c #88B2E6",
"A c #89B1E9",
"S c #B9C9F8",
"D c #C8E2D2",
"F c #F8F8F8",
/* pixels */
":66wy666w5ii5:::556w156w56666ii66:36666677k666e66i66,16666446i66",
"5wylbswwybNby&,;w0wwwyBsli5wxNNi=,=ee66e7xCka66kCbk31,4ei7a4kmxk",
"5wwsywwwwsis7,e0wsew1sslk6i6siki36eeiii67k7k7a4akii344a7aeeaikii",
"5wwwwwwwwwwwieeelNNys0w3wi3s6s6i6ieexNisa6h6a4k66i6ia4axmap6e6e6",
"5wwwwwwwwwww7ii8eecewwww6ik63XXX aekiki6ke6ia4a4i6a4a44kikk76k3i",
"5wwwwwwwwwwDXXXDee0ewwwws6w6XSA.. 46i66i66k34a4a6i6i4aa76e6aa6a6",
"5wwwwwwwwwiXSSS X5wwwwww30kXSA.##.7a76i76k67k6a4k6a3a4k777674a4a",
"5wwwwwwwwwiX.ASSAX;0wwwwk6XSA.#$#.i7,,7a3ekk776i6i6k4a61,7k4a4a4",
"64i67a7iww0e..AASAoseewwDoSS.#$$$.D47444a4a4a4a3k77k7a7633a7a4a4",
"6a76k7a3wwew.#.AAA@oeeyDoSSA##$$$.Dkai7a6a4a6a6k7a74a7xik6677a4a",
"6e3367eiwywwD....@@@X>DXSSA..##$#.Dkkx63;47aa44a7h4a7axkk77,13a4",
"1,477a64;66wD..#.@@+XDX@SAA....## Di3k63,4744a4176a4a4ek7a4,,e6k",
"66i86i673,06eD.##++ooooASA+..##..D4a4ak6466i76,43a4ae366a7a7677a",
"63ixxksi30esew..#oAAAAoAAA+.####.Da4a47awkBNaa7a64a4k6k64a7iimCa",
"6aaCCCk6i6s6wwe..ASSAA+AAA+.###.Di7a4a47imCCk6a7a74ak7k4a4i6aCCm",
"67i7iiws6s6i9i6.+SSSSAAAAAA..#. D6a6a4k66i3ia77a77k4776a4a3k6a6i",
"666s68a77a44a4e@ASSSSSAAAAAA.. XXXDi3s6seweeeeeea77h7a4a4ak7777k",
"6i6isi6aa7kaa74@SSSSSSAAAAAAA@@AA@XXi6s69egyeee5kaa644a4a4776Bk7",
"6iixxkk3pkmn4,XZAAAAASAAAAAAAAAAAAAAZi6secNceetgxBk31,774a7kaMMa",
"68iiaa6iaaaaa4 FXkXXF XAAAAAAAAAXAAAAXiiisee0etthii374a7k7a7akk4",
"6k4aia4a7a7a7a         @AAAAAAAZX+AAA@Xi0y5seqyti7a4a4xBxk6x44a4",
"64a7e6a6a7a7a7DD OO     +AAAAAAAAX+AAAXDwwi3y0tt7a4a4a7kak764a4a",
"667a3i4a7a7a7a7aD OO    XAAAAAAAAAoAAAAXD36s9wyra7a4a4h77a77k7a4",
"66a7i3k6a7a7a7a7D OO    XAAAAAAAAAo+AAAAXDs6w9ry7a4a4a6777k6776k",
"yi6i4a4k6k767a7a        @AAAAAAAAAAoAAAAAXDurrrrk6674a3,,6a4a4a4",
"66a6a4a4777ka7a7 FX4XXFXAAAAAAAAAA@oAAAAAAX&rrrr77k7a764;34a4a4a",
"e67a4a7a3k767a7aX@AAAAAAAA@AAAAA++@o@AAAAAAAoorr7k4k4kaaia4i7kk6",
"3637a4a66e6xa7akDXX@AAA@ X@@@@@@++@@oAAAAAAAAAoD76a4a7kkx77,6777",
":,3,6ia76447a7a7ie6wXX  @XX@@@@@@@@@oAAAAAAAAAAXXx677a7ak733,777",
"6363k677334a7a7aeei3wi6@X##  @@@@@@ oAAAAAAASSSSX77ka7a776673i7k",
"66akki8a67h7a7a70w9syi@@.####       oAASSSS++AZA=67k7ax77kk733B6",
"666CCNi83i6a7a7aiww93 @X#######swi0soSAAAAAAAA@@@h77a76a7766hCCm",
"6a7a7aa74a4aa7a7qiii @@.########wwi6sXAAA@@@@@@@@ee3i6i6a7k67k7k",
"64aaaa7aa4a47a7aiiq A@o#########.w0e6XSA@@@@@@@@@e6i6e7a7a4aa767",
"6777a7k64aaaa7360e AA@o##########.0yiXSA@@@@@@@@@iew3i7ia4a46ike",
"67ixxk77akmn6334oXAA@@oo..########.9iXSA@@@@@@@@@@k3,3774a4aaBxk",
"wkwkkkek7kaa7777SSS@@@@@@@@@+...###.iiXA@@@@@@@@@@ 6w3iia64aaaap",
"66636766a4a77aa4SSA..oo@@AAAAAA+@XXX bXA@@@@@@@@@@@6eeixmkk44aa6",
"66k6k74a4a4aa7a7oSA.###...oooo++@@@@@lXA@@@@@@@@@@@ 6wisak4a4a6k",
"6l5w77k4a4a47a7aoAAo.########....    iiA@@@@@@@@@@@@ ie6k6a4a4e3",
"6w3i6d6i7a776ka7eoAA.#############.DD66A@@@@@@@@@@@@ iii36a4a4a4",
"35l6i6h76kk76e6i;*AA@.############.D;=wA@@@@@@@@@@@@@ 3,,34a4a4a",
"6l637a6aa4a4kk3e>;XAA.###########.D>,,0AA@@@@@@@@@@@@@ ;;,e63ia4",
"w56la7a74a4a666kssi@A@.##########.eyii36AA@@@@@@@@@@@@@ i64ake6k",
"33337a7a6i646i6klcseAA.##########.ylsbi3=3XAA@@@@@@@@@@@  D,1664",
",,13a777337as3s3wwi5;A@.#########.e95ws;=,68XXAZ@@@@@@@@@@  D34a",
"667h77a33;1k6k6s6seweeA@o.########iwe9i636i6s6,3; ZA@@@@@@@@ Da4",
"667kxk466763i3s6i39e0e@AAo .######.www6siikkii6w6y3yXXXZZ@@@@ mk",
"66kCCC6k6ea7a7a7x677k6mX=AAX .#####.D4a4ixCCx7a73i6i4a6i6i4kkCCm",
"666ikk666k6h7a7a77k63k6k6X@@+o ..###.DDa763kaa7ai6s6a4k3a7a467k7",
"676k77k43i77a7a76k676a47rr1X++++XXX  ..Da77777a7s66saa4a7a4a766e",
"6k74k76ak6k77a7a77kkk6aarrryooo+@@@@@@@ 7kka4a76iis676a7a4a4kik6",
"66lixia4axxxa3,=6i677akNuuyegbg        47kxxk77xxmk1,,7ax667kCki",
"w66ldi4aaaak733633k476ieur0erggg474eaa7a6xaa7ahikai344i667k77kii",
"6l3xi7a77a7a7767kCxkk76krr90yttqeeepkxaa4a7aa7a7ee6i7iakCa7ka777",
"6w666a7aa4a7ak4aakk7k77kywy9tttti4peaka4a4a77a7ae3k3i6iaka7k7a7a",
"77a7a7a74a4a47k7iwe3i677k663a4a46ae4a4a476k6a7a7767k4a4a774a4k77",
"6a7a7a7aa4a4k767646k4a6ke6ke4a4aa7e64a7k7kei7a7akx76a4a44aa4a47k",
"66a7a7a74a4ak7k74,,4a4a46k6kk6a46a441;77a4a4a7a764774a64,36a7k76",
"6k7a7a7aa4a467k6,*;44a4ai37k776ia4a4,,6k4a4a7a7a6kk4a43,;3i7767k",
"6776a7a77a7a7k6kxkaaa7a76a7aa7a36aaaie7a3634a7a7a7a7a7kaaa36k77k",
"663e7a7aa7a7k66kxka47447a7a76i6ka4axak64;36a7a774a7a7axkx76=6646",
"3,3;a746777a7a6aa4a4,;,7a477474e4ai6a6a,,;7aa7366ka77aa4773=,3k6",
"66367a7,,377a7a44a4a637a7a6,,,a3k63k6i44a777a7,,377a7k4a4a363a4a"
};
