/* XPM */
static char *result[] = {
/* columns rows colors chars-per-pixel */
"64 64 133 2 ",
"   c #22221B",
".  c #2A2C27",
"X  c #312F27",
"o  c #303C30",
"O  c #374A35",
"+  c #474337",
"@  c #43583D",
"#  c #5A4D45",
"$  c #4D6C46",
"%  c #407C64",
"&  c #427D64",
"*  c #437D64",
"=  c #437E65",
"-  c #447E65",
";  c #447E66",
":  c #457E66",
">  c #467F66",
",  c #5E8348",
"<  c #468067",
"1  c #478067",
"2  c #488067",
"3  c #488068",
"4  c #498068",
"5  c #498168",
"6  c #4A8168",
"7  c #4A8169",
"8  c #4A8269",
"9  c #4B8269",
"0  c #4C8269",
"q  c #4C826A",
"w  c #4C836A",
"e  c #4D836B",
"r  c #4D836C",
"t  c #4E836C",
"y  c #4E846C",
"u  c #4F846D",
"i  c #4F856D",
"p  c #50856E",
"a  c #51856F",
"s  c #739668",
"d  c #64BF99",
"f  c #65BF99",
"g  c #65C099",
"h  c #65C09A",
"j  c #66C09A",
"k  c #67C09A",
"l  c #67C19B",
"z  c #68C19B",
"x  c #69C19B",
"c  c #6BC09B",
"v  c #6BC19B",
"b  c #68C29B",
"n  c #6CC19B",
"m  c #6FC09B",
"M  c #69C29C",
"N  c #6AC29C",
"B  c #6BC29C",
"V  c #6AC39C",
"C  c #6BC39D",
"Z  c #6DC19C",
"A  c #6CC39D",
"S  c #6EC29C",
"D  c #6EC29D",
"F  c #6FC29D",
"G  c #6FC39D",
"H  c #6DC49E",
"J  c #6EC49E",
"K  c #6EC49F",
"L  c #6EC59F",
"P  c #6FC59F",
"I  c #70C39E",
"U  c #71C39E",
"Y  c #71C49E",
"T  c #71C49F",
"R  c #70C59F",
"E  c #72C49F",
"W  c #72C4A0",
"Q  c #73C5A0",
"!  c #70C6A0",
"~  c #71C6A0",
"^  c #71C6A1",
"/  c #72C6A0",
"(  c #72C7A0",
")  c #72C6A1",
"_  c #72C7A1",
"`  c #73C7A1",
"'  c #74C5A1",
"]  c #74C6A1",
"[  c #74C7A1",
"{  c #74C6A2",
"}  c #74C7A2",
"|  c #76C7A3",
" . c #77C7A4",
".. c #74C8A2",
"X. c #75C8A2",
"o. c #74C8A3",
"O. c #75C8A3",
"+. c #75C9A3",
"@. c #76C8A3",
"#. c #76C9A3",
"$. c #76C9A4",
"%. c #77C9A4",
"&. c #77C9A5",
"*. c #77CAA5",
"=. c #77CAA6",
"-. c #78CAA4",
";. c #78CAA5",
":. c #79CAA5",
">. c #78CAA6",
",. c #78CBA6",
"<. c #79CBA7",
"1. c #7ACBA6",
"2. c #7BCBA6",
"3. c #7CCCA7",
"4. c #79CBA8",
"5. c #7ACBA8",
"6. c #7ACCA8",
"7. c #7ACCA9",
"8. c #7BCCA9",
"9. c #7BCDA9",
"0. c #7DCCA8",
"q. c #7ECCA8",
"w. c #7ECDA9",
"e. c #7FCDA9",
"r. c #7CCDAA",
"t. c #80CDAA",
"y. c #80CEAA",
"u. c #81CEAA",
"i. c #81CEAB",
"p. c #82CEAB",
"a. c #82CFAB",
"s. c #83CFAC",
"d. c #84D0AC",
/* pixels */
"m Y T E ] W Y Y T Q  .Q Y F n D U Y Y Y Y Y E ] Q Y Y Y E | ' T G c D U Y Y Y Y Y E  .Q E Y U E { | E I v S I Y Y Y Y Y T | ] E ",
"U ` O.6.<.>.` ` ..8.9.r.^ k V M ` ` ` ` ` ..6.=.<...` ` <.r.r.o.j C z _ ` ` ` ` ` 6.7.4.O.` ` *.r.r.<.N C l ! ` ` ` ` ` *.9.<.*.",
"U ` } $.....` ` ` $.O.$./ H ~ ~ ` +...` ` ` $.....` ` ` O.+.$.. . . ! ` ..O.` ` ` $...O.` ` ` } $.$.O.P ~ R ` ..$.` ` ` O.+...} ",
"U ` ` ` ` ` ` ` ` ` ` ` ` ` ` ` >.9.8.$.` ` ` ` ` ` ` ` ` ` o o , @ . &.<.8.$.` ` ` ` ` ` ` ` ` ` ` ` ` ` ` $.<.9.*.` ` ` ` ` ` ",
"U ` ` ` ` ` ` ` ` ` ` ` ` ` ` ` O.$.$...` ` ` ` ` ` ` ` ` ` o , s , . ..O.$.O.` ` ` ` ` ` ` ` ` ` ` ` ` ` ` ` O.O.+.` ` ` ` ` ` ",
"U ` ` ` ` ` ` ` ` ` ` ` ` ` ` ` ` ` ` ` ` ` ` ` ` ` ` ` ` o @ s s , o . ` ` ` ` ` ` ` ` ` ` ` ` ` ` ` ` ` ` ` ` ` ` ` ` ` ` ` ` ",
"U ` ` ` ` ` ` ` ` ` ` ` ` ` ` ` ` / ` ` ` ` ` ` ` ` ` ` ` o , s s , @ . _ / ` ` ` ` ` ` ` ` ` ` ` ` ` ` ` ` ` ` / ` ` ` ` ` ` ` ",
"U ` ` ` ` ` ` ` ` ` ` ` ` ` ` ` H g z P ` ` ` ` ` ` ` ` ` o s s s , , . M j R ` ` ` ` ` ` ` ` ` ` ` ` ` ` ` R N f J ` ` ` ` ` ` ",
"U ` ` ` ` ` ` ` ` ` ` ` ` ` ` ` K H N ~ ` ` ` ` ` ` ` ` o @ s s s , , o . C P ` ` ` ` ` ` ` ` ` ` ` ` ` ` ` ~ L H H ` ` ` ` ` ` ",
"U ` ` ` ` ` ` ` ` ` ` ` ` ` ` $.8.6.O.` ` ` ` ` ` ` ` ` o , s s s , , $ . $.` ` ` ` ` ` ` ` ` ` ` ` ` ` ` ..,.>.$.} ` ` ` ` ` ` ",
"F P A J ` ` ` ` ` ` ` ` ` ` ` $.>.<.$./ P A H _ ` ` ` o @ s s s s , , $ $ . ` P h H ~ ` ` ` ` ` ` ` ` ` ` ..>.$.<.` ~ l B P ` ` ",
"Z M H C ` ` ` P A J ~ ` ` ` ` ` ` ` ` / z H N _ ` ` o @ , s s s s , , $ $ @ o N z N ~ ` ` _ R A R _ ` ` ` ` ` ` ` ` A z N J ` ` ",
"U _ ` ` ` ` ` H C N H ` ` ` ` ` ` ` ` ` _ ` ` ` ` o @ , s s s s s , , $ $ $ @ . ` ` ` ` ` / z H z _ ` ` ` ` ` ` ` ` ` ` ` ` ` ` ",
"U ` } :.q.:.X.` ` _ ` ` ` ` ` ` ` ` ` ` ` ` -.o o @ s s s s s s s , , , $ $ $ @ . o 0.0.X.` _ ` _ ` ` ` ` ` ` ` ` ` ` ` @.1.u.#.",
"U ` ..s.i.d.%.` ` ` ` ` ` ` ` ` ` ` o o o o o , s s s s s , s s s , , , $ $ $ $ $ $ o o o o o ` ` ` ` ` ` ` ` ` ` ` ` ` ;.y.p.t.",
"U ` ` X.O.@.` ` ` ` ` ` ` ` ` ` ` ` o , s s s s s s s , , , s s s s , , $ $ $ $ $ $ , , , , . ` ` ` ` ` ` ` ` ` ` ` ` ` ` ....@.",
"U ` ` ` ` ` ` ` ` ` ` ` ` ` ` ` ` ` ` o @ , , , , , , , $ , s s s s , , $ $ $ $ $ $ $ , @ . ` ` ` ` ` ` ` ` ` ` ` ` ` ` ` ` ` ` ",
"U ` ` } O.` ` ` ` ` *...` / P ` ` ` ` ` o o @ , , , , $ @ , s s s s , $ @ $ $ @ $ $ @ o . ` ` ` O.$.` ` P _ ` ` ` ` ` ` ` &.O.` ",
"U ` O.>.<.>.` ` ..<.r.6._ N M N ` ` ` ` o o o o o $ $ $ $ $ , s s s , $ $ $ $ $ o o . . . ` ` *.8.r.>.A N z R ` ` ` ` ` $.r.5.*.",
"U ` } $.O.O.` ` ` $.$.*.) H ! R ` $...o o $ $ $ @ $ $ @ $ @ $ s s s $ @ $ @ $ $ @ $ $ $ o . ` ..&.$.O.J ! P ` ..$.` ` ` O.$.O...",
"U ` ` ` ` ` ` ` ` ` ` ` ` ` ` ` >.9.8.o $ $ $ $ @ $ @ @ $ , @ , s , @ $ $ @ @ $ @ $ $ $ $ o . ` ` ` ` ` ` ` $.<.9.*.` ` ` ` ` ` ",
"U ` ` ` ` ` ` ` ` ` ` ` ` ` ` ` O.O.o , , , , , $ @ $ $ $ , $ $ , $ $ $ $ $ $ @ $ $ $ $ $ $ o . ` ` ` ` ` ` ` O.O.O.` ` ` ` ` ` ",
"U ` ` ` ` ` ` ` ` ` ` ` ` ` ` o o o , s s , , , , $ $ $ , , , $ $ $ $ $ , $ $ $ $ $ $ $ $ $ , o o o ` ` ` ` ` ` ` ` ` ` ` ` ` ` ",
"U ` ` ` ` ` ` ` ` ` ` ` ` ` ` o , s s s , , , , , $ $ , , , , $ $ $ $ , , , $ $ $ $ $ $ , , , , , o ` ` ` ` ` ` ~ ` ` ` ` ` ` ` ",
"U ` ` ` ` ` ` ` ` ` ` ` ` ` ` ` o , , , , , , , , , , , , , , , $ $ , , , , , , , , @ $ $ , , , . ` ` ` ` ` P M d J ` ` ` ` ` ` ",
"U ` ` ` ` ` ` ` ` ` ` ` ` ` ` ` A . o , , , o , , , , , , , , , , , , , , , , , , , o @ @ @ . . ` ` ` ` ` ` ~ H A A ` ` ` ` ` ` ",
"U ` ` ` ` ` ` ` ` ` ` ` ` ` ` O.,.,.. . . o o , , , o , , , , , , , , , , , o , , , o . . . . ` ` ` ` ` ` } $.&.O.` ` ` ` ` ` ` ",
"F R A P ` ` ` ` ` ` ` ` ` ` ` $.<.5.o @ @ o @ , , o O o , , o , , , o , , o O . , , @ o @ @ o ` ` ` ` ` ` ..>.$.<.` ~ z C R ` ` ",
"Z b A N ` ` ` R H P ~ ` ` ` ` ` ` o @ @ @ o , , o O O . , o $ , , , @ o , . O O . , , o @ @ @ o ! _ ` ` ` ` ` ` } ` A k M J ` ` ",
"U ( ` ` ` ` ` H C N H ` ` ` ` ` o @ $ $ $ o o . O O O O . o @ $ , $ @ o . O O @ O . . o $ @ @ @ o / ` ` ` ` ` ` ` ` _ _ ` ` ` ` ",
"U ` ` X.:.O.[ ` ` _ ` ` ` ` o o $ $ $ $ $ $ $ O O O @ O O O O @ , @ O O O @ $ @ @ O O @ $ $ $ $ @ o . ` ` ` ` ` ` ` ` ` } @.2...",
"U ` [ e.u.y.O.` ` ` ` ` o o , , , $ $ $ $ $ $ @ O @ @ @ O @ O O $ @ O O O @ @ $ @ @ O @ $ $ $ $ $ $ $ . o ` ` ` ` ` ` ` #.0.u.q.",
"U ` ` X.X.O.` ` ` ` o o $ s s , , , $ , $ $ $ @ @ @ $ @ @ $ @ O @ O @ @ O O @ $ $ @ @ @ $ $ $ $ $ $ $ $ , o o ` ` ` ` ` ` ....O.",
"U ` ` ` ` ` ` ` o o o , s s s , , , , , , $ $ @ @ $ $ @ $ $ @ O O O $ $ @ @ @ $ $ $ @ @ $ $ $ $ $ $ , , , , o o o ` ` ` ` ` ` ` ",
"U ` ` ` ..` ` ` o , s s s s , , , , , , , $ @ @ $ , , , $ $ $ @ O @ $ $ $ @ @ $ $ $ $ $ $ , , , $ $ , , , , , , . ` ` ` ` O...` ",
"U ` O.>.<.>.` ` ..o , , , , , o , , , , , $ $ $ , , , , , $ $ $ @ $ $ $ $ $ , , , $ $ $ , , , , , o , , , , , . ` ` ` ` $.8.<.*.",
"U ` } $.O...` ` ` $.o o , , o o s s , , , $ $ $ , , , , , $ $ $ $ $ $ $ $ , , , , , $ $ , , , , , o . , , . . ..+.` ` ` O.$.O...",
"U ` ` ` ` ` ` ` ` ` ` ` o o o $ s s , , , o o , s s , , , $ $ $ $ $ $ $ $ , , , , , o o $ , , , , , . . . ` $.<.r.*.` ` ` ` ` ` ",
"U ` ` ` ` ` ` ` ` ` ` ` ` o o , s , , , $ . o s s s , , , @ $ $ $ $ $ $ @ , , , , , o . @ $ , , , , . . ` ` } $.$.*.` ` ` ` ` ` ",
"U ` ` ` ` ` ` ` ` ` ` ` ` o , s , , $ o . o , s s , , , , , , $ $ $ , , , , , , , , , o . o @ , , , , . ` ` ` ` ` ` ` ` ` ` ` ` ",
"U ` ` ` ` ` ` ` ` ` ` ` o . . . . . . O O o s s s , , @ , s , , $ , , , , @ , , , , , o O O o . . . . . . ` ` ` / ` ` ` ` ` ` ` ",
"U ` ` ` ` ` ` ` ` ` o o O @ @ @ @ @ @ O o , s s , , o , s s , , , , s , , , o $ , , , , o O O O O O O O O . . N d P ` ` ` ` ` ` ",
"U ` ` ` ` ` o o o o $ , , $ $ $ $ @ @ @ o s s , o . @ , s s , , , s s , , , O O o $ , , o O O O @ @ @ @ @ @ O . . . . ` ` ` ` ` ",
"U ` ` ` ` ` o @ , , , , , $ $ $ $ $ $ @ . . . . O O @ , s s , , , s s , , , @ O O o o o o @ @ @ @ @ @ @ @ @ $ $ $ O . ` ` ` ` ` ",
"F P A J ` ` ` . o $ $ $ $ $ $ o $ $ $ @ O O O O O @ @ $ s s , , @ , s , , $ @ @ O O O O O @ @ @ @ O @ @ @ @ $ $ . . ~ l C R ` ` ",
"Z M H C ` ` ` P . . @ $ $ @ o $ $ $ $ @ @ @ @ @ @ @ @ @ , s , $ $ $ , , , @ @ @ @ O O O O O @ @ @ @ . O @ @ O . . ` A l N J ` ` ",
"U _ ` ` ` ` ` N x M . . o o $ $ $ $ @ @ @ @ @ $ $ @ @ O @ , $ @ O @ $ , @ O @ @ @ @ @ O O O @ @ @ @ @ o . . . ` ` ` ` ` ` ` ` ` ",
"U ` ` X.1.@.} ` / ~ o o $ $ $ $ @ $ $ $ $ @ $ $ $ $ @ @ O O O O @ O O O O @ @ @ @ @ @ @ @ @ @ @ o @ $ $ $ o . ` ` ` ` ` ..#.3...",
"U ` ..y.i.a.#.` ` o $ $ $ $ $ O o $ $ $ $ o $ $ $ $ @ @ @ O O @ @ @ O O @ @ @ @ @ @ @ o @ $ $ @ . o $ $ $ $ $ . ` ` ` ` %.e.a.w.",
"U ` ` O.@.#.` ` ` o . . . . o o $ $ $ $ $ o $ $ $ $ $ @ @ @ @ @ @ @ @ @ @ @ @ @ @ @ @ . @ $ $ @ @ . . . . . . . ` ` ` ` ` X.X.#.",
"U ` ` ` ` ` ` ` ` ` ` ` ` 9 o $ $ $ $ $ . o $ $ $ $ @ @ $ $ @ @ @ @ @ $ $ @ @ @ @ $ $ . o @ @ $ $ $ . 9 ` ` ` ` ` ` ` ` ` ` ` ` ",
"U ` ` ` ..` ` ` ` ` q 9 9 o $ $ $ $ o . o o $ $ $ $ @ $ $ $ $ @ O @ $ $ $ $ @ @ $ $ $ o . . . @ $ $ $ . 6 9 9 ` ` ` ` ` ` O...` ",
"U ` O.*.<.>.` ` ..<.a i 8 o o . . . 9 9 o $ $ $ $ o @ $ $ $ $ @ O @ $ $ $ $ @ . @ $ $ @ . 9 9 . . . . . : ; 5 ` ` ` ` ` $.8.<.*.",
"U ` ..&.O.O.` ` ` $.$.e 7 > 4 3 9 q 0 9 o $ $ o o o o $ $ $ $ o . o $ $ $ $ o o . . $ $ . 9 9 0 e e w 2 4 3 _ ` O.` ` ` O.$.O...",
"U ` ` ` ` ` ` ` ` ` ` ` 9 9 9 9 e p u q o o o o     o o $ $ o . X o o $ $ o . . . o . . . 9 9 9 9 9 9 9 9 ` O.>.r.+.` ` ` ` ` ` ",
"U ` ` ` ` ` ` ` ` ` 9 9 9 9 9 9 e e t 0 9 9 9     X X o @ $ . X X X o $ @ . X X . . 9 9 9 9 9 9 9 9 9 9 9 9 0 $.&.$.` ` ` ` ` ` ",
"U ` ` ` ` ` 9 9 9 9 9 9 9 9 9 9 9 9 9 9 9 9   + + + + X o . X + + + X o . X X + + +   9 9 9 9 9 9 9 9 9 9 9 9 9 9 9 9 ` ` ` ` ` ",
"U ` ` ` ` ` 9 9 9 9 9 9 9 9 9 9 9 9 9 9 9 9     + + + X X X + + + + + X X X X + +     9 9 9 9 9 9 9 9 9 9 9 9 9 9 9 9 ` ` ` ` ` ",
"U ` ` ` ` ` ` 9 9 9 9 9 9 9 9 9 4 - > 4 9 9 9 9       X X   + + + + +   X X       9 9 9 9 9 9 9 9 9 9 9 9 9 6 < * 5 ` ` ` ` ` ` ",
"U ` ` ` ` ` ` ` 9 9 9 9 9 9 9 9 : * & 2 9 9 9 9 9 9 9       + # # # +       1 9 9 9 9 9 9 9 9 9 9 9 9 9 9 9 3 ; - N ` ` ` ` ` ` ",
"U ` ` ` ` ` ` ` ` ` 9 9 9 9 9 0 t r 9 9 9 9 9 9 9 9 9 9 9     # # #     e 0 9 9 9 9 9 9 9 9 9 9 9 9 9 9 9 0 e $...` ` ` ` ` ` ` ",
"F ! H P ` ` ` ` ` ` 9 9 9 9 9 e u i e 6 6 < 3 8 9 9 9 9 9 9   + # +   t e t 9 4 & 2 6 9 9 9 9 9 9 9 9 9 9 0 y &.<.` ~ z A R ` ` ",
"n z N k ` ` ` / R 6 9 9 9 9 9 9 9 9 9 6 - > & 6 9 9 8 6 3 8     #     9 9 9 9 - % & 3 9 9 9 8 3 8 9 9 9 9 9 9 9 } ` C d j C ` ` ",
"I P / / ` ` ` C z ; 1 9 9 9 9 9 9 9 9 9 3 6 6 9 9 9 3 = - : 9       9 9 9 9 9 4 6 6 9 9 9 6 - : - 6 9 9 9 9 9 9 ` ` ~ R ~ _ ` ` "
};
