/* XPM */
static char *aa205e7f14244bb68c93267091459e00Ee7colafx9g2Jwhv[] = {
/* columns rows colors chars-per-pixel */
"64 64 196 2 ",
"   c #060503",
".  c #0C0906",
"X  c #0B0B09",
"o  c #171A16",
"O  c #23231A",
"+  c #29281A",
"@  c #33331F",
"#  c #292926",
"$  c #272D2A",
"%  c #312D22",
"&  c #2A312D",
"*  c #36372B",
"=  c #343531",
"-  c #363834",
";  c #3B3B3D",
":  c #53361D",
">  c #463322",
",  c #39423D",
"<  c #6A4D1E",
"1  c #454535",
"2  c #474A3A",
"3  c #4F4B3A",
"4  c #403F41",
"5  c #434744",
"6  c #544F47",
"7  c #4B524A",
"8  c #555444",
"9  c #5A5546",
"0  c #585B44",
"q  c #5B574A",
"w  c #5D5A4B",
"e  c #585758",
"r  c #605C4E",
"t  c #635F50",
"y  c #5F624C",
"u  c #5A645C",
"i  c #606146",
"p  c #63624D",
"a  c #646354",
"s  c #6D6B53",
"d  c #676459",
"f  c #6A6B5C",
"g  c #776855",
"h  c #6F7054",
"j  c #76755A",
"k  c #5D6962",
"l  c #646363",
"z  c #616C64",
"x  c #6E6B63",
"c  c #6B6B69",
"v  c #726D64",
"b  c #677368",
"n  c #757263",
"m  c #75726A",
"M  c #797A69",
"N  c #6B7873",
"B  c #747372",
"V  c #7B7C71",
"C  c #787C75",
"Z  c #817F63",
"A  c #907C62",
"S  c #827D76",
"D  c #7B816B",
"F  c #7F8477",
"G  c #728178",
"H  c #8B8C6B",
"J  c #8C8D72",
"K  c #85837B",
"L  c #868478",
"P  c #848D7E",
"I  c #8E927E",
"U  c #929373",
"Y  c #92917B",
"T  c #99997D",
"R  c #AF8D71",
"E  c #C8A66E",
"W  c #7D7B80",
"Q  c #7B8C82",
"!  c #64BF99",
"~  c #67C09A",
"^  c #6CC39D",
"/  c #71C49E",
"(  c #73C7A1",
")  c #75C9A3",
"_  c #79CBA6",
"`  c #7BCCA9",
"'  c #898583",
"]  c #8C8985",
"[  c #918D85",
"{  c #918D8C",
"}  c #869182",
"|  c #899587",
" . c #9D9D84",
".. c #969689",
"X. c #9D9D8C",
"o. c #949192",
"O. c #959794",
"+. c #9D9C92",
"@. c #9D9B9C",
"#. c #A09F8D",
"$. c #A39E96",
"%. c #A09E9F",
"&. c #99A184",
"*. c #94A293",
"=. c #92A599",
"-. c #96AB99",
";. c #92AC9E",
":. c #9BAA9B",
">. c #A1A589",
",. c #A2A28C",
"<. c #A4A594",
"1. c #AAAB95",
"2. c #A6A59A",
"3. c #A7A69A",
"4. c #ABAA9C",
"5. c #ABB89E",
"6. c #B1B19C",
"7. c #9D9DA3",
"8. c #A19FA1",
"9. c #9AAFA2",
"0. c #A6A3A4",
"q. c #ADACA3",
"w. c #A8A7A8",
"e. c #ADACAB",
"r. c #B1AEAE",
"t. c #A3B4A3",
"y. c #A6BAAA",
"u. c #B3B4A4",
"i. c #BABAA7",
"p. c #B3B3AB",
"a. c #BBBCAB",
"s. c #AFADB2",
"d. c #B6B5B3",
"f. c #B8B7B7",
"g. c #BAB9B5",
"h. c #B6B5BB",
"j. c #BBBABB",
"k. c #C0BFAD",
"l. c #81CEAB",
"z. c #84D0AC",
"x. c #AEC4B5",
"c. c #B6CAB6",
"v. c #B5CBBB",
"b. c #B8CEBF",
"n. c #C2C3B4",
"m. c #C6C5BB",
"M. c #CACBBD",
"N. c #BEBDC2",
"B. c #C0BFC5",
"V. c #B6D6C4",
"C. c #BCD4C4",
"Z. c #C3C2C5",
"A. c #CCCCC4",
"S. c #C5C4CC",
"D. c #C8C7CF",
"F. c #CCCBCC",
"G. c #D0CFCD",
"H. c #C3DDCD",
"J. c #D5D5CA",
"K. c #C7C6D0",
"L. c #C8C7D0",
"P. c #CCCBD3",
"I. c #D0CFD4",
"U. c #C8DDD3",
"Y. c #D3D3D4",
"T. c #DBDCD3",
"R. c #D4D3D9",
"E. c #D8D7DB",
"W. c #DCDCDC",
"Q. c #E8DFD8",
"!. c #C5E0CE",
"~. c #C9E4D3",
"^. c #CCE7D6",
"/. c #D3EBDD",
"(. c #E1E1DD",
"). c #ECE5DA",
"_. c #F0E8DA",
"`. c #DDDDE1",
"'. c #E0DFE0",
"]. c #D9EEE5",
"[. c #E4E4E4",
"{. c #E8E8E7",
"}. c #E6E6E8",
"|. c #EBEBEC",
" X c #F0F0EE",
".X c #EEEEF1",
"XX c #EDF7F4",
"oX c #F2F1F2",
"OX c #F4F4F4",
"+X c #F5F5F6",
"@X c #F8F8F7",
"#X c #F7F7F8",
"$X c #F8F8F8",
"%X c #FAFAFA",
"&X c #FBFBFC",
"*X c #FDFDFD",
/* pixels */
"^ / / / / / / / / ( _ / / ! / ! / / / / / / / / / / / / / ) ) / / ~ ^ / / / / / / / _ ( / / / / ( _ ( ! ^ / / / / / / / / ) ( / ",
"/ ( ( ` ` _ ( ( ( ` ` ` ( ! / / ) / / ) ) / ` ) ` ) ) ) ` ) ` ) ~ ^ ~ ( ) / ( ) ( ` _ _ ) ( ( _ ` ` l.! ^ ! / ( ( ( ( ( ) ` _ _ ",
"/ ( ( _ ) ) ( ( ( _ ) ) ( / ( / ) ) ) / / / ) ) ) ( ( ( ) ) ) ( ^ ) / ) ) ) ( ( ( ) ) ) ( ( ( ( ) _ _ / ( / ( ( ) / ) ( ) ) ) ( ",
"/ ( ( ( ( ( ( ( ( ( ( ( ( ( ( ( ) ` z.) ) ) ) ) ( / ) ( ( ( ( ( ) / ( ) ) ) ) ( ( ( ( ( ( ( ( ( ( ( ( ( ( ( ) ` ` _ ( ( ( ( ( ( ",
"/ ( ( ( ( ( ( ( ( ( ( ( ( ( ( ( ) _ ) ) ) ) / ) ( ( ( ( ( ( ) ( ( ( ( ) ) ) ) ) ( ( ( ( ( ( ( ( ( ( ( ( ( ( ( ( ) ( ( ( ( ( ( ( ",
"/ ( ( ( ( ( ( ( ( ( ( ( ( ( ( ( / / / ) / / ) / ( ( ( ( ( ( ( ( ( ( ( ( ) ) / ) ( ( ( ( ( ( ( ( ( ( ( ( ( ( ( ( ( ( ( ( ( ( ( ( ",
"/ ( ( ( ( ( ( ( ( ( ( ( ( ( ( ( / >.U T 5.H./ ) ( ( ( ( ( ( ( ( ( ( ( ( ( ( ) ( ( ( ( ( ) ( ( ( ( ( ( ( ( / ( ( ( ( ( ( ( ( ( ( ",
"/ / ( ( ( ( ( ( ( ( ( ( ( ( ( ( / c.n.n.5.T D | ( ( ( ( ( ( ( ( ( ( ( ( ~ ~ ^ ( ( ( ( ( ( ( ( ( ( ( ( ( <.p.m.J.J.2.L ( ( ( ( ( ",
"/ ( ( ( ( ( ( ( ( ( ( ( ( ( ( ( U m.}.[.n.T n V 9.x.( ( / ) / ) ( ( ( ^ / ! ( ( ( ( ( ( ( ( ( ( / )  .&.p.R..X*X&X2.9 ( ( ( ( ( ",
"/ ( ( ) ( ( ( ( ( ( ( ( ( ( ( ) U d.E.[.T.G.Z.q.n y b ( ) / ) ) ( ( ) ) ) ) ) ) ( ( ( ( ( ( ( ] k.J.(.(.{..X@X*X*X0.9 ) ( ( ( ( ",
"^ / ^ ^ ( ( ( ( ( ( ( ( ( ( ( ) Z w.P.[.}.|.|.G.] n D ( ) / ) / ( ( ) ) ) _ ) ( ! / ( ( / Y S e.`.+X*X*X*X%X.X`.m.+.F ~ ^ / ( ( ",
"^ ^ ^ ^ ) ( ( / ^ / ( ( ( ( ( ( t %.R.'.[.[.[.(.J.Z.d./ / / / / ( ) ) ) ( ( ) ! ^ ! { B.B.F.[.|.+X#X@X@X@XOX`.e.v P b.~ ^ ^ ( ( ",
"/ ( ( ( ( ( ( ^ ^ ^ ^ ( ( ( ( ( q %.P.R.[.[.m.u.a.u.4.^ ^ 9.6.i.c.6.c.1.#.....[ K S w.P.`.|.%X&X&X#X%X@X+X`.8.' P t.( ( ( ( ( ( ",
"/ / ( _ l._ ( ( ( ) ( ( ( ( ( ( w %.D.D.Y.J.1.U U U T p.P.W.|.OX X@XoXoX X X X[.R.D.B.P.}.#X%X#X#X#X#XOX`.s.m m c.( ( ( ) _ z.) ",
"/ ( ( l.l.z.) ( ( ( ( ( ( ( ( ( 9 8.P.S.d.1.2.q.a.n.M.W..X.X#X$X%X%X%X*X%X*X&X#XoX}.I.P..X%X#X#X$X$X+XQ.o.7 G t.( ( ( ( ) z.z.` ",
"/ ( ( ) ( ) ( ( ( ( ( ( ( ( ( ( f 7.Z.Z.q.&.g.E.[.OX@X@X$X$X$X$X%X@X%X@X%X@X#X@X%X#X'.R..X%X#X%X#X+X[.h.k = =.( ( ( ( ( ( / ) ) ",
"/ ( ( ( ( ( ( ( ( ( ( ( ( ( ) ( t.&.<.C.B.A.'..XOX#X#X@X$X$X@X$X@X%X#X#X#X%X#X#X%X#X.X.XOX@X#X%X#X`.h.B G -./ / ) ) / ) / ) ) / ",
"/ ( ( ( ) / ( ( ) ) ) ) ( ( ^ ) ) T T m.'.|.#X%X&X@X@X@X$X$X#X$X#X@X@X@X#X#X#X%X@X%X@X@X%X#X%X+X}.R.7.q Y / / ) ) / ) / ) ) ) ) ",
"/ ( ) ` _ ` ( ( ) ) ` _ ( ~ ~ ~ ) T >.J.|.#X%X#X@X@X%X@X$X$X$X$X#X@X@X%X%X@X@X@X@X@X+X%X#X#X#X'.P.P.8.q P ~ / / / / ) ) ) ` _ ) ",
"/ ( ( ) ( ) ( ( ) ) ) ) ( ^ ( ( ) -.x.).#X#X%X#X@X#X#X#X$X$X$X$X@X#X@X@X@X#X@X#X%X#X%X+X%X+X}.R.Z.d.S * G ~.) ) ) ) / ) ) ) ) ) ",
"/ ( ( ( ( ( ( ( ( ( ( ( ) / / / _ p.R. X#X@X@X@X%X@X@X@X%X@X%X+X%X#X@X%X#X#X@X#X#X@X#X#X&X}.I.K.C.#.r o z H.) ` ` ) ( ( ) ) ( ( ",
"/ ( ( ( ( ( ( ( ( ( ( ( / ) ) / j g.|.#X@X#X#X%X+X#X@X@X+X+X%X#X@X#X@X@X%X@X@X%X#X@X&X#X}.R.K.S.h.T v c m | v.) ) ) ( ( ) / ( ( ",
"/ ( ( ( ( ( ( ( ( ( ) / ) ) / I v A.*X#X#X%X#X#X@X%X%X@X@X%X#X#X%X#X#X%X#X#X#X#X#X+XOX|.R.B.B.D.B.#.#.k.{ d :./ ) ( ( ( ( ( ( ( ",
"/ ( ( ( ( ( ( ( ( ( ) ) ) / 1.>.d.[.&X@X#X@X@X@X@X@X#X#X@X#X%X@X#X@X#X@X#X#X%X&X#XXX[.R.L.B.D.D.B.f.d.D.h.O.S ) / ( ( ( ( ( ( ( ",
"/ ) / ) ) / ) ) ( ( ( ( / / U c.|.#X#X#X#X@X@X#X@X#X#X#X#X%X+X@X@X#X#X%X@X@XoX).J.Z.Z.B.S.S.S.S.S.K.Z.g.Z.N.x ^ ! ^ ( ( ( ( ( ( ",
"! _ ) / ) / ) / ( ( ( ( / x.U n.#X%X#X#X#X%X%X#X@X%X#X%X%X+X+X%X@X%X%X#X#X+X(.6.H v @.S.D.S.S.S.S.F.d.X.e.h.x ^ ^ ^ ( ( ( ( ( ( ",
"/ ( / ) ) ) ) / ( ( ( ( ( y.D u.oX@X+X@X@X@X@X@X@X@X@X#X+X%X%X+X%X&X#X{.G.k.q.,.L m @.S.D.S.S.S.S.K.q.M X.h.e _ ) ( ( ( ( ( ( ( ",
"/ / / / / ) / ) ( ( ( ( ( 4.p +.{.+X&X@X#X#X%X@X@X@X#X%X%X#X#X%X#XOX{.m. .s f w.B.h.N.S.S.S.S.S.S.L.8.a ] s.4 - _ ) ( ~ ~ / ( ( ",
"! ^ / ^ / / ) / ^ ^ ( ( ( -.8 ] W.+X%X%X#X%X%X@X&X#X@X@X@X@X*X*XT.a.$.3.6.q = 8.I.L.L.S.S.S.S.S.S.D.s.] K ' b Q ) ( ^ ~ ~ ^ ) ( ",
"/ / ) / / ) / ^ ^ ^ ^ ( ( 5.a } S.[.%X%XOX#X#X+XOX#X@X@X#X%X+X[.6.Z p $.(.c # @.P.S.S.S.S.S.S.S.S.S.D.B.] d *.V.( ( ( ( ) ) ( ( ",
"/ / ) ) ` / ) ) ) ( ( ( ( b.-.F ] F. X|.|.|.|.|. X X#X@X&XXXa.c g A $.G.|...w w.L.S.S.S.S.S.S.S.S.S.D.S.s.] f G ( ( ( ( ) _ _ ) ",
"/ ) / l.z.l.) / ( ( ( ( ( ( ~.P r p.[.[.[.[.[.[.[.|.OXOX/.[.W X : R ).*XOXa. .h.L.S.S.S.S.S.S.S.S.S.S.L.U.h.- & ( ( ( ( ) ` ` ` ",
"/ ( ( ) ) ) ( ( ( ( ( ( ) / ~.P w 0.E.[.[.[.[.[.[.[.|.].Q.[ =   < E _.*X@XG.k.B.L.S.S.S.S.S.S.S.S.S.P.E.[.F.; $ / ) ( ( ( ) ( ) ",
"/ ( ( ( ( ( ( ( ( ( ( ( / ) !.P q 7.P.'.[.[.[.[.[.{.U.Y.d.L -   < E _.oXT.G.L.B.S.S.S.S.S.D.P.I.P.I.R.`.W.g.= $ ( ) ( ( ( ( ( ( ",
"/ ( ( ( ) ( ( ( ( ( ) ) ) / !.P q %.R.`.{.[.[.[.[.{.W.[ S A.' . : A _.J.#.r.B.P.S.S.S.S.S.P.W.'.'.'.E.P.a.H O & ( ( ( ( ( ) ) / ",
"^ ( ) _ _ ) ( ( ) _ ` _ ( ^ ^ P q 0.W.[.}.[.[.[.{.F.$.f j k.K O > Z $.4.#.h.P.B.S.S.S.S.S.P.E.A.k.n.c.u.D 2 5 ( ( ( ( ( ) ` _ _ ",
"/ / ) ) ) ) ( ( ( ) ) ) ( ^ H.P a d.{.[.[.[.[.[.Q.%.a j H U j 3 > 6 e ' k.B.P.B.S.S.S.S.S.S.Z.4.U H H H 1 O ( ( ) ( ( ( ) ) ) ( ",
"/ ) / ) ( ( ( ( ( ( ( ( / ) 5...O.Y. X[.(.[.|.T.a.X.] +.4.q.$.{ o.' ' w.B.P.B.L.S.S.S.S.S.j.3.3.+.9 + % ( ( _ ` ` _ ( ( ( ( ( ( ",
"/ ) ) / ( ( ( ( ( ( ( ( ) / H <.Y.|.+X[.{.{.(.m. .2.Z.S.B.B.D.B.D.B.B.B.L.B.P.B.S.S.S.S.S.d...<.7.5 X ( ( ( ( ( _ _ ( ( ( ( ( ( ",
"/ / ) ) ( ( ( ( ( ( ( ( / t.s @.|.#X@X+X+X|.n.,.q.j.S.K.D.K.L.L.L.P.P.P.B.P.B.L.S.S.S.Z.S.Z.d.B 5 N | / ( ( ( ( ( / ( ( ( ( ( ( ",
"^ ) ( ( ( ( ( ( ( ( ( ( v.O.x p.#X&X@X%X.XT.1.X.B.K.B.B.K.D.B.K.L.K.B.K.S.S.S.S.S.S.S.S.L.N.7.e , 9./.( ( ) ( ) ( ( ( ( ( ( ( ( ",
"/ / ( ( ( ( ( ( ( ( ( ( F M 0.R.#X&X@X#XM.1.6.g.D.L.K.D.K.B.K.K.B.K.D.K.S.S.S.S.S.S.S.S.P.o.; k x.V.( ( ( ) ^ ^ ~ ^ ( ( ( ( ( ( ",
"/ ) ) ) ( ( ( ( ( ( ( ( f v P..X#X@X@XOXa.H p.P.K.B.L.B.D.D.B.B.B.K.B.L.L.D.D.D.P.S.P.S.B.m   k !.^ ( ( ( ( ^ ~ ~ ~ ) ( ( ( ( ( ",
"/ / ) / ( ( ( ( ( ( ( ( f M [.&X#X#XOX{.u.U p.S.L.B.K.K.B.K.K.D.K.K.B.K.S.S.Z.Z.S.S.S.j.&.0 X b ( ( ( ( / ) ) ) ) ( ( ( ( ( ( ( ",
"^ ( ^ ^ ( ( ( ( ( ( ( ( f S [.&X%X%X[.n.4.2.j.S.K.B.L.L.S.S.S.D.P.D.p.@.] ' ' ' ' ' B e 2 1 k ;.( ( ( ( ( ) ) ) _ ( / ~ ^ ^ ) ) ",
"^ ~ ^ ^ ( ( ) ^ / ( ( ( a v Y.+X+X%XT.T <.Z.S.S.L.B.K.B.S.S.Z.Z.N.e.J s w 9 q 9 q 8 * X   7 x.^ ^ ( ( ( ( ( ) ( ( ) ^ ~ ^ ^ ) / ",
"/ / ( ( ) / ) ~ ! ! ^ ( 2 7 Z.}. X XA.U <.P.P.S.L.K.B.B.L.P.j.,.c ; % 8 | *.*.*.*.*.} G G =.! ^ ~ ( ( ( ( ( ( ( ( ( ) ) / ) / ) ",
"/ ) ) ) ) ) ) ) ( ( ( ( & $ 8.I.'.[.m.U X.d.S.S.B.K.L.C.h.h.X.h * o o k H.^.~.) ( ) ) _ ) ) / ( ( ( ( ( ( ( ( ( ( ( / ) ) / ` ) ",
"/ ) ) ` l.z.) ( ( ( ( ( $ . a 2.P.R.g.U H  .f.D.D.D.S.6.U n , + z *.-.) ( ( ( ( ( ` ` ` ) ( ( ( ( ( ( ( ( ( ( ( ( ( ( ( ) ` z.` ",
"/ / ) ) ) ) / ) ( ( ( ( k @ % m f.Z.j.&.T X.f.D.f.r.@.n i a 7 , -.( ( ( ( ( ( ( ( ) ) ) ) ( ( ( ( ( ( ( ( ( ( ( ( ( ( ( ( ) ) ) ",
"/ ( / ) ( ( ( ( ( ( ( ( v.G o 1 T g.S.N.j.N.S.j. .M q O , -.( ( ^ ( ( ( ( ( ( ( ( ( ( ( ( ( ( ( ( ( ( ( ( ( ( ( ( ( ( ( ( ( ) ) ",
"/ ( ( ( ) ( ( ( ( ( ) ( ~.x.u 0 s K o.o.o.{ C l 3 y M e ( ) ( ( ( ( ( ( ( ( ( ( ( ( ) ( ( ( ( ) ( ) ( ( ( ( ( ( ( ( ( ( ( ) ) ( ",
"/ / ) ) _ _ ( ( ( _ ` _ ) !.V.} 0 8 0 q 0 8 + X X b ( ) ) ` ` ) ~ ~ ~ ) ( ( ( ( ( _ ` _ ) ( ( ) _ _ ) ^ ^ ~ ^ ) ( ( ) ( ) ) ` ) ",
"/ ) ) ) ) ) ( ( ( _ _ _ ( ~ / / ( ) ( ( ( ( ) ) ) / ( ( ) ) ) ( ^ ( ^ ) ( ( ( ( ( ) ) ) ( ( ( ( ) ) ) ^ ( ( ( ( ) ( ( ( ) ) ) ) ",
"/ ) ( ( ( ( ( ( ( ( ( ( ( ( ( ( _ ` ` ) ( ( ( ( ( ( ( ( ) ( ( ( ( ( ) ) ` ` ) ( ( ( ( ( ( ( ( ( ) ( ( ( ( ( ) _ _ ) ( ( ( ( ) ( ",
"/ / ( ( ( ( ( ( ( ( ( ( ( ( ( ( ) ) ) ( ( ( ( ( ( ( ) / ( ( ( ( ( ( ( ) ) ) ) ( ( ( ( ( ( ( ( ( ) ( ( ( ( ( ( ) ) ) ( ( ( ( ( ( ",
"^ ( ( ( ( ( ( ( ( ( ( ( ( ( ( ( ( ( ( ( ( ( ( ( ( ( ( ( ( ( ( ( ( ( ( ( ( ( ( ( ( ( ( ( ( ( ( ( ( ( ( ( ( ( ( ( ) ) ( ( ( ( ( ( ",
"( ( ( ( ( ( ( ( ( ( ( ( ( ( ( ( ) ) ( ( ( ( ( ( ( ( ( ( ( ( ( ( ( ( ( ( ( ( ( ( ( ( ( ( ( ( ( ( ( ( ( ( ( ( ( ) ( ( ( ( ( ( ( ( ",
"^ ) ( ( ( ( ( ( ( ( ( ( ( ( ( ( ( ~ ^ ^ ( ( ( ( ( ( ( ( ( ( ( ( ( ( ( / ^ ~ ( ( ( ( ( ( ( ( ( ( ( ( ) ( ( ( ( ^ ~ ( ) ( ( ( ( ( ",
"/ ( ( ( ( ( ( ( ( ( ( ( ( ( ( ( ~ ~ ~ ^ ( ( ( ( ( ( ( ( ( ( ( ( ( ( ( ^ ~ ~ ^ ( ( ( ( ( ( ( ( ( ( ( ( ( ( ( ( ~ ~ ~ ( ( ( ( ( ( ",
"/ ) ( ( ( ( ( ( ( ( ( ( ( ( ( _ ) _ ) ( ) ( ( ( ( ( ( ( ( ( ( ( ( ( ) ) ) ) ) ( ( ( ( ( ( ( ( ) ( ( ( ( ( ( ) ) ( ( ( ( ( ( ( ( ",
"^ / ^ ^ ( ( ( ( ( ( ( ( ( ( ( ( _ _ ) ( ^ ^ ^ ( ( ( ( ( ( ( ( ( ( ) ) ) ) ` ( ( ~ ^ ( ( ( ( ( ) ( ( ( ( ( ) ) ) ) ( ( ~ ^ / ( ( ",
"^ ^ ^ ^ ( ( ) ( ( ( ( ( ( ( ( ( ( ( ( ( ~ ^ ~ ( ( ( ( ( ( ( ( ( ( ( ( ( ( ( ( ~ ! ~ ^ ( ( ( ) ^ ( ( ( ( ( ( ( ( ) ) ~ ~ ~ ~ ( ( ",
"^ ^ ( / ( ( ( ~ ~ ~ ^ ( ( ( ( ( ( ( ( ( ( ( ( ( ( ( ^ ~ ^ ~ ( ( ( ( ( ( ( ( ( ^ ( ( ( ( ( ( ~ ~ ~ ( ( ( ( ( ( ( ( ( ( ( ( ( ( ( "
};
